<svg width="1920" height="1080" viewBox="0 0 1920 1080" fill="none" xmlns="http://www.w3.org/2000/svg">
<g clip-path="url(#clip0_580_1812)">
<path fill-rule="evenodd" clip-rule="evenodd" d="M-236.339 262.989C-224.541 209.683 -203.401 149.128 -128.485 145.548C-51.204 141.855 10.8608 195.729 47.7438 249.413C83.879 302.008 96.8364 362.853 46.5766 400.353C-12.7472 444.615 -110.803 466.325 -190.873 427.448C-264.297 391.799 -249.244 321.299 -236.339 262.989Z" fill="#BAF86E"/>
<path fill-rule="evenodd" clip-rule="evenodd" d="M486.661 7.72982C498.459 -45.5759 519.599 -106.13 594.515 -109.71C671.796 -113.404 733.861 -59.5298 770.744 -5.84598C806.879 46.7495 819.836 107.594 769.577 145.094C710.253 189.356 612.197 211.066 532.127 172.19C458.703 136.54 473.756 66.0404 486.661 7.72982Z" fill="#BAF86E"/>
<path fill-rule="evenodd" clip-rule="evenodd" d="M-63.3387 908.73C-51.5414 855.424 -30.4008 794.87 44.5154 791.29C121.796 787.596 183.861 841.47 220.744 895.154C256.879 947.749 269.836 1008.59 219.577 1046.09C160.253 1090.36 62.1973 1112.07 -17.8729 1073.19C-91.2967 1037.54 -76.2436 967.04 -63.3387 908.73Z" fill="#BAF86E"/>
<path fill-rule="evenodd" clip-rule="evenodd" d="M1640.73 -36.1319C1691.31 -9.06667 1669.99 65.0561 1650.92 119.116C1640.57 148.454 1604.3 147.231 1573.82 153.546C1530.88 162.442 1477.96 197.062 1454.98 159.714C1430.07 119.25 1471.67 75.1434 1504.35 40.6864C1544.04 -1.15957 1589.84 -63.3616 1640.73 -36.1319Z" fill="#BAF86F"/>
<path fill-rule="evenodd" clip-rule="evenodd" d="M818.661 1073.73C830.459 1020.42 851.599 959.87 926.515 956.29C1003.8 952.596 1065.86 1006.47 1102.74 1060.15C1138.88 1112.75 1151.84 1173.59 1101.58 1211.09C1042.25 1255.36 944.197 1277.07 864.127 1238.19C790.703 1202.54 805.756 1132.04 818.661 1073.73Z" fill="#BAF86E"/>
<path fill-rule="evenodd" clip-rule="evenodd" d="M1763.66 1035.73C1775.46 982.424 1796.6 921.87 1871.52 918.29C1948.8 914.596 2010.86 968.47 2047.74 1022.15C2083.88 1074.75 2096.84 1135.59 2046.58 1173.09C1987.25 1217.36 1889.2 1239.07 1809.13 1200.19C1735.7 1164.54 1750.76 1094.04 1763.66 1035.73Z" fill="#BAF86E"/>
</g>
<defs>
<clipPath id="clip0_580_1812">
<rect width="1920" height="1080" fill="white"/>
</clipPath>
</defs>
</svg>
