<svg xmlns="http://www.w3.org/2000/svg" xmlns:xlink="http://www.w3.org/1999/xlink" width="186" zoomAndPan="magnify" viewBox="0 0 139.5 49.499998" height="66" preserveAspectRatio="xMidYMid meet" version="1.0"><defs><g/><clipPath id="b357199e0b"><path d="M 0.449219 0 L 138.554688 0 L 138.554688 49.003906 L 0.449219 49.003906 Z M 0.449219 0 " clip-rule="nonzero"/></clipPath><clipPath id="d07e3dc97a"><path d="M 0.449219 0 L 50.714844 0 L 50.714844 49.003906 L 0.449219 49.003906 Z M 0.449219 0 " clip-rule="nonzero"/></clipPath><linearGradient x1="2.938183" gradientTransform="matrix(0.199099, 0, 0, 0.199099, -0.256461, -1.577673)" y1="8.534162" x2="252.231195" gradientUnits="userSpaceOnUse" y2="257.82623" id="49bf3434cd"><stop stop-opacity="1" stop-color="rgb(2.883911%, 16.012573%, 34.150696%)" offset="0"/><stop stop-opacity="1" stop-color="rgb(2.914429%, 16.200256%, 34.54895%)" offset="0.00390625"/><stop stop-opacity="1" stop-color="rgb(2.946472%, 16.389465%, 34.94873%)" offset="0.0078125"/><stop stop-opacity="1" stop-color="rgb(2.97699%, 16.578674%, 35.346985%)" offset="0.0117187"/><stop stop-opacity="1" stop-color="rgb(3.009033%, 16.767883%, 35.746765%)" offset="0.015625"/><stop stop-opacity="1" stop-color="rgb(3.039551%, 16.957092%, 36.14502%)" offset="0.0195313"/><stop stop-opacity="1" stop-color="rgb(3.071594%, 17.146301%, 36.5448%)" offset="0.0234375"/><stop stop-opacity="1" stop-color="rgb(3.102112%, 17.333984%, 36.943054%)" offset="0.0273438"/><stop stop-opacity="1" stop-color="rgb(3.134155%, 17.523193%, 37.342834%)" offset="0.03125"/><stop stop-opacity="1" stop-color="rgb(3.164673%, 17.712402%, 37.741089%)" offset="0.0351562"/><stop stop-opacity="1" stop-color="rgb(3.196716%, 17.901611%, 38.140869%)" offset="0.0390625"/><stop stop-opacity="1" stop-color="rgb(3.227234%, 18.089294%, 38.539124%)" offset="0.0429688"/><stop stop-opacity="1" stop-color="rgb(3.259277%, 18.278503%, 38.938904%)" offset="0.046875"/><stop stop-opacity="1" stop-color="rgb(3.289795%, 18.467712%, 39.337158%)" offset="0.0507812"/><stop stop-opacity="1" stop-color="rgb(3.321838%, 18.656921%, 39.736938%)" offset="0.0546875"/><stop stop-opacity="1" stop-color="rgb(3.352356%, 18.84613%, 40.135193%)" offset="0.0585937"/><stop stop-opacity="1" stop-color="rgb(3.384399%, 19.035339%, 40.534973%)" offset="0.0625"/><stop stop-opacity="1" stop-color="rgb(3.414917%, 19.223022%, 40.933228%)" offset="0.0664062"/><stop stop-opacity="1" stop-color="rgb(3.44696%, 19.412231%, 41.333008%)" offset="0.0703125"/><stop stop-opacity="1" stop-color="rgb(3.477478%, 19.60144%, 41.731262%)" offset="0.0742187"/><stop stop-opacity="1" stop-color="rgb(3.509521%, 19.790649%, 42.131042%)" offset="0.078125"/><stop stop-opacity="1" stop-color="rgb(3.540039%, 19.979858%, 42.530823%)" offset="0.0820312"/><stop stop-opacity="1" stop-color="rgb(3.572083%, 20.169067%, 42.930603%)" offset="0.0859375"/><stop stop-opacity="1" stop-color="rgb(3.6026%, 20.35675%, 43.328857%)" offset="0.0898437"/><stop stop-opacity="1" stop-color="rgb(3.634644%, 20.545959%, 43.728638%)" offset="0.09375"/><stop stop-opacity="1" stop-color="rgb(3.665161%, 20.735168%, 44.126892%)" offset="0.0976562"/><stop stop-opacity="1" stop-color="rgb(3.697205%, 20.924377%, 44.526672%)" offset="0.101562"/><stop stop-opacity="1" stop-color="rgb(3.727722%, 21.112061%, 44.924927%)" offset="0.105469"/><stop stop-opacity="1" stop-color="rgb(3.759766%, 21.30127%, 45.324707%)" offset="0.109375"/><stop stop-opacity="1" stop-color="rgb(3.790283%, 21.490479%, 45.722961%)" offset="0.113281"/><stop stop-opacity="1" stop-color="rgb(3.822327%, 21.679688%, 46.122742%)" offset="0.117187"/><stop stop-opacity="1" stop-color="rgb(3.852844%, 21.868896%, 46.520996%)" offset="0.121094"/><stop stop-opacity="1" stop-color="rgb(3.884888%, 22.058105%, 46.920776%)" offset="0.125"/><stop stop-opacity="1" stop-color="rgb(3.915405%, 22.245789%, 47.319031%)" offset="0.128906"/><stop stop-opacity="1" stop-color="rgb(3.947449%, 22.434998%, 47.718811%)" offset="0.132812"/><stop stop-opacity="1" stop-color="rgb(3.977966%, 22.624207%, 48.117065%)" offset="0.136719"/><stop stop-opacity="1" stop-color="rgb(4.01001%, 22.813416%, 48.516846%)" offset="0.140625"/><stop stop-opacity="1" stop-color="rgb(4.040527%, 23.002625%, 48.9151%)" offset="0.144531"/><stop stop-opacity="1" stop-color="rgb(4.072571%, 23.191833%, 49.31488%)" offset="0.148437"/><stop stop-opacity="1" stop-color="rgb(4.103088%, 23.379517%, 49.713135%)" offset="0.152344"/><stop stop-opacity="1" stop-color="rgb(4.135132%, 23.568726%, 50.112915%)" offset="0.15625"/><stop stop-opacity="1" stop-color="rgb(4.165649%, 23.757935%, 50.511169%)" offset="0.160156"/><stop stop-opacity="1" stop-color="rgb(4.197693%, 23.947144%, 50.91095%)" offset="0.164062"/><stop stop-opacity="1" stop-color="rgb(4.22821%, 24.134827%, 51.309204%)" offset="0.167969"/><stop stop-opacity="1" stop-color="rgb(4.260254%, 24.324036%, 51.708984%)" offset="0.171875"/><stop stop-opacity="1" stop-color="rgb(4.290771%, 24.513245%, 52.108765%)" offset="0.175781"/><stop stop-opacity="1" stop-color="rgb(4.322815%, 24.702454%, 52.508545%)" offset="0.179687"/><stop stop-opacity="1" stop-color="rgb(4.353333%, 24.891663%, 52.906799%)" offset="0.183594"/><stop stop-opacity="1" stop-color="rgb(4.385376%, 25.080872%, 53.30658%)" offset="0.1875"/><stop stop-opacity="1" stop-color="rgb(4.415894%, 25.268555%, 53.704834%)" offset="0.191406"/><stop stop-opacity="1" stop-color="rgb(4.447937%, 25.457764%, 54.104614%)" offset="0.195312"/><stop stop-opacity="1" stop-color="rgb(4.478455%, 25.646973%, 54.502869%)" offset="0.199219"/><stop stop-opacity="1" stop-color="rgb(4.510498%, 25.836182%, 54.902649%)" offset="0.203125"/><stop stop-opacity="1" stop-color="rgb(4.542542%, 26.025391%, 55.300903%)" offset="0.207031"/><stop stop-opacity="1" stop-color="rgb(4.574585%, 26.2146%, 55.700684%)" offset="0.210938"/><stop stop-opacity="1" stop-color="rgb(4.605103%, 26.402283%, 56.098938%)" offset="0.214844"/><stop stop-opacity="1" stop-color="rgb(4.637146%, 26.591492%, 56.498718%)" offset="0.21875"/><stop stop-opacity="1" stop-color="rgb(4.667664%, 26.780701%, 56.896973%)" offset="0.222656"/><stop stop-opacity="1" stop-color="rgb(4.699707%, 26.96991%, 57.296753%)" offset="0.226562"/><stop stop-opacity="1" stop-color="rgb(4.730225%, 27.157593%, 57.695007%)" offset="0.230469"/><stop stop-opacity="1" stop-color="rgb(4.762268%, 27.346802%, 58.094788%)" offset="0.234375"/><stop stop-opacity="1" stop-color="rgb(4.792786%, 27.536011%, 58.493042%)" offset="0.238281"/><stop stop-opacity="1" stop-color="rgb(4.824829%, 27.72522%, 58.892822%)" offset="0.242187"/><stop stop-opacity="1" stop-color="rgb(4.855347%, 27.914429%, 59.291077%)" offset="0.246094"/><stop stop-opacity="1" stop-color="rgb(4.88739%, 28.103638%, 59.690857%)" offset="0.25"/><stop stop-opacity="1" stop-color="rgb(4.917908%, 28.291321%, 60.089111%)" offset="0.253906"/><stop stop-opacity="1" stop-color="rgb(4.949951%, 28.48053%, 60.488892%)" offset="0.257812"/><stop stop-opacity="1" stop-color="rgb(4.980469%, 28.669739%, 60.887146%)" offset="0.261719"/><stop stop-opacity="1" stop-color="rgb(5.012512%, 28.858948%, 61.286926%)" offset="0.265625"/><stop stop-opacity="1" stop-color="rgb(5.04303%, 29.046631%, 61.686707%)" offset="0.269531"/><stop stop-opacity="1" stop-color="rgb(5.075073%, 29.23584%, 62.086487%)" offset="0.273437"/><stop stop-opacity="1" stop-color="rgb(5.105591%, 29.425049%, 62.484741%)" offset="0.277344"/><stop stop-opacity="1" stop-color="rgb(5.137634%, 29.614258%, 62.884521%)" offset="0.28125"/><stop stop-opacity="1" stop-color="rgb(5.168152%, 29.803467%, 63.282776%)" offset="0.285156"/><stop stop-opacity="1" stop-color="rgb(5.200195%, 29.992676%, 63.682556%)" offset="0.289062"/><stop stop-opacity="1" stop-color="rgb(5.230713%, 30.180359%, 64.080811%)" offset="0.292969"/><stop stop-opacity="1" stop-color="rgb(5.262756%, 30.369568%, 64.480591%)" offset="0.296875"/><stop stop-opacity="1" stop-color="rgb(5.293274%, 30.558777%, 64.878845%)" offset="0.300781"/><stop stop-opacity="1" stop-color="rgb(5.325317%, 30.747986%, 65.278625%)" offset="0.304687"/><stop stop-opacity="1" stop-color="rgb(5.355835%, 30.937195%, 65.67688%)" offset="0.308594"/><stop stop-opacity="1" stop-color="rgb(5.387878%, 31.126404%, 66.07666%)" offset="0.3125"/><stop stop-opacity="1" stop-color="rgb(5.418396%, 31.314087%, 66.474915%)" offset="0.316406"/><stop stop-opacity="1" stop-color="rgb(5.450439%, 31.503296%, 66.874695%)" offset="0.320313"/><stop stop-opacity="1" stop-color="rgb(5.592346%, 31.794739%, 67.042542%)" offset="0.324219"/><stop stop-opacity="1" stop-color="rgb(5.735779%, 32.087708%, 67.211914%)" offset="0.328125"/><stop stop-opacity="1" stop-color="rgb(6.277466%, 32.751465%, 66.549683%)" offset="0.332031"/><stop stop-opacity="1" stop-color="rgb(6.819153%, 33.416748%, 65.888977%)" offset="0.335938"/><stop stop-opacity="1" stop-color="rgb(7.359314%, 34.080505%, 65.228271%)" offset="0.339844"/><stop stop-opacity="1" stop-color="rgb(7.901001%, 34.745789%, 64.567566%)" offset="0.34375"/><stop stop-opacity="1" stop-color="rgb(8.442688%, 35.409546%, 63.90686%)" offset="0.347656"/><stop stop-opacity="1" stop-color="rgb(8.984375%, 36.073303%, 63.246155%)" offset="0.351563"/><stop stop-opacity="1" stop-color="rgb(9.526062%, 36.737061%, 62.585449%)" offset="0.355469"/><stop stop-opacity="1" stop-color="rgb(10.067749%, 37.402344%, 61.924744%)" offset="0.359375"/><stop stop-opacity="1" stop-color="rgb(10.609436%, 38.066101%, 61.262512%)" offset="0.363281"/><stop stop-opacity="1" stop-color="rgb(11.151123%, 38.731384%, 60.601807%)" offset="0.367188"/><stop stop-opacity="1" stop-color="rgb(11.69281%, 39.395142%, 59.941101%)" offset="0.371094"/><stop stop-opacity="1" stop-color="rgb(12.234497%, 40.058899%, 59.280396%)" offset="0.375"/><stop stop-opacity="1" stop-color="rgb(12.776184%, 40.722656%, 58.61969%)" offset="0.378906"/><stop stop-opacity="1" stop-color="rgb(13.317871%, 41.387939%, 57.958984%)" offset="0.382812"/><stop stop-opacity="1" stop-color="rgb(13.859558%, 42.051697%, 57.296753%)" offset="0.386719"/><stop stop-opacity="1" stop-color="rgb(14.401245%, 42.71698%, 56.636047%)" offset="0.390625"/><stop stop-opacity="1" stop-color="rgb(14.942932%, 43.380737%, 55.975342%)" offset="0.394531"/><stop stop-opacity="1" stop-color="rgb(15.484619%, 44.044495%, 55.314636%)" offset="0.398438"/><stop stop-opacity="1" stop-color="rgb(16.026306%, 44.708252%, 54.653931%)" offset="0.402344"/><stop stop-opacity="1" stop-color="rgb(16.567993%, 45.373535%, 53.993225%)" offset="0.40625"/><stop stop-opacity="1" stop-color="rgb(17.10968%, 46.037292%, 53.33252%)" offset="0.410156"/><stop stop-opacity="1" stop-color="rgb(17.651367%, 46.702576%, 52.671814%)" offset="0.414062"/><stop stop-opacity="1" stop-color="rgb(18.193054%, 47.366333%, 52.009583%)" offset="0.417969"/><stop stop-opacity="1" stop-color="rgb(18.734741%, 48.03009%, 51.348877%)" offset="0.421875"/><stop stop-opacity="1" stop-color="rgb(19.276428%, 48.693848%, 50.688171%)" offset="0.425781"/><stop stop-opacity="1" stop-color="rgb(19.818115%, 49.359131%, 50.027466%)" offset="0.429688"/><stop stop-opacity="1" stop-color="rgb(20.359802%, 50.022888%, 49.36676%)" offset="0.433594"/><stop stop-opacity="1" stop-color="rgb(20.901489%, 50.688171%, 48.706055%)" offset="0.4375"/><stop stop-opacity="1" stop-color="rgb(21.443176%, 51.351929%, 48.045349%)" offset="0.441406"/><stop stop-opacity="1" stop-color="rgb(21.984863%, 52.015686%, 47.384644%)" offset="0.445312"/><stop stop-opacity="1" stop-color="rgb(22.52655%, 52.679443%, 46.722412%)" offset="0.449219"/><stop stop-opacity="1" stop-color="rgb(23.068237%, 53.344727%, 46.061707%)" offset="0.453125"/><stop stop-opacity="1" stop-color="rgb(23.609924%, 54.008484%, 45.401001%)" offset="0.457031"/><stop stop-opacity="1" stop-color="rgb(24.151611%, 54.673767%, 44.740295%)" offset="0.460937"/><stop stop-opacity="1" stop-color="rgb(24.693298%, 55.337524%, 44.07959%)" offset="0.464844"/><stop stop-opacity="1" stop-color="rgb(25.234985%, 56.001282%, 43.418884%)" offset="0.46875"/><stop stop-opacity="1" stop-color="rgb(25.776672%, 56.665039%, 42.756653%)" offset="0.472656"/><stop stop-opacity="1" stop-color="rgb(26.318359%, 57.330322%, 42.095947%)" offset="0.476562"/><stop stop-opacity="1" stop-color="rgb(26.860046%, 57.99408%, 41.435242%)" offset="0.480469"/><stop stop-opacity="1" stop-color="rgb(27.401733%, 58.659363%, 40.774536%)" offset="0.484375"/><stop stop-opacity="1" stop-color="rgb(27.94342%, 59.32312%, 40.113831%)" offset="0.488281"/><stop stop-opacity="1" stop-color="rgb(28.485107%, 59.986877%, 39.453125%)" offset="0.492187"/><stop stop-opacity="1" stop-color="rgb(29.026794%, 60.650635%, 38.792419%)" offset="0.496094"/><stop stop-opacity="1" stop-color="rgb(29.568481%, 61.315918%, 38.131714%)" offset="0.5"/><stop stop-opacity="1" stop-color="rgb(30.110168%, 61.979675%, 37.469482%)" offset="0.503906"/><stop stop-opacity="1" stop-color="rgb(30.651855%, 62.644958%, 36.808777%)" offset="0.507812"/><stop stop-opacity="1" stop-color="rgb(31.193542%, 63.308716%, 36.148071%)" offset="0.511719"/><stop stop-opacity="1" stop-color="rgb(31.735229%, 63.972473%, 35.487366%)" offset="0.515625"/><stop stop-opacity="1" stop-color="rgb(32.276917%, 64.63623%, 34.82666%)" offset="0.519531"/><stop stop-opacity="1" stop-color="rgb(32.818604%, 65.301514%, 34.165955%)" offset="0.523438"/><stop stop-opacity="1" stop-color="rgb(33.360291%, 65.965271%, 33.503723%)" offset="0.527344"/><stop stop-opacity="1" stop-color="rgb(33.901978%, 66.630554%, 32.843018%)" offset="0.53125"/><stop stop-opacity="1" stop-color="rgb(34.443665%, 67.294312%, 32.182312%)" offset="0.535156"/><stop stop-opacity="1" stop-color="rgb(34.985352%, 67.958069%, 31.521606%)" offset="0.539062"/><stop stop-opacity="1" stop-color="rgb(35.527039%, 68.621826%, 30.860901%)" offset="0.542969"/><stop stop-opacity="1" stop-color="rgb(36.068726%, 69.287109%, 30.200195%)" offset="0.546875"/><stop stop-opacity="1" stop-color="rgb(36.610413%, 69.950867%, 29.53949%)" offset="0.550781"/><stop stop-opacity="1" stop-color="rgb(37.1521%, 70.61615%, 28.878784%)" offset="0.554688"/><stop stop-opacity="1" stop-color="rgb(37.693787%, 71.279907%, 28.216553%)" offset="0.558594"/><stop stop-opacity="1" stop-color="rgb(38.235474%, 71.943665%, 27.555847%)" offset="0.5625"/><stop stop-opacity="1" stop-color="rgb(38.777161%, 72.607422%, 26.895142%)" offset="0.566406"/><stop stop-opacity="1" stop-color="rgb(39.318848%, 73.272705%, 26.234436%)" offset="0.570312"/><stop stop-opacity="1" stop-color="rgb(39.860535%, 73.936462%, 25.57373%)" offset="0.574219"/><stop stop-opacity="1" stop-color="rgb(40.402222%, 74.601746%, 24.913025%)" offset="0.578125"/><stop stop-opacity="1" stop-color="rgb(40.942383%, 75.265503%, 24.252319%)" offset="0.582031"/><stop stop-opacity="1" stop-color="rgb(41.48407%, 75.92926%, 23.591614%)" offset="0.585938"/><stop stop-opacity="1" stop-color="rgb(42.025757%, 76.593018%, 22.929382%)" offset="0.589844"/><stop stop-opacity="1" stop-color="rgb(42.567444%, 77.258301%, 22.268677%)" offset="0.59375"/><stop stop-opacity="1" stop-color="rgb(43.109131%, 77.922058%, 21.607971%)" offset="0.597656"/><stop stop-opacity="1" stop-color="rgb(43.650818%, 78.587341%, 20.947266%)" offset="0.601562"/><stop stop-opacity="1" stop-color="rgb(44.192505%, 79.251099%, 20.28656%)" offset="0.605469"/><stop stop-opacity="1" stop-color="rgb(44.734192%, 79.914856%, 19.625854%)" offset="0.609375"/><stop stop-opacity="1" stop-color="rgb(45.275879%, 80.578613%, 18.963623%)" offset="0.613281"/><stop stop-opacity="1" stop-color="rgb(45.817566%, 81.243896%, 18.302917%)" offset="0.617188"/><stop stop-opacity="1" stop-color="rgb(46.359253%, 81.907654%, 17.642212%)" offset="0.621094"/><stop stop-opacity="1" stop-color="rgb(46.90094%, 82.572937%, 16.981506%)" offset="0.625"/><stop stop-opacity="1" stop-color="rgb(47.442627%, 83.236694%, 16.320801%)" offset="0.628906"/><stop stop-opacity="1" stop-color="rgb(47.984314%, 83.900452%, 15.660095%)" offset="0.632812"/><stop stop-opacity="1" stop-color="rgb(48.526001%, 84.564209%, 14.99939%)" offset="0.636719"/><stop stop-opacity="1" stop-color="rgb(49.067688%, 85.229492%, 14.338684%)" offset="0.640625"/><stop stop-opacity="1" stop-color="rgb(49.609375%, 85.89325%, 13.676453%)" offset="0.644531"/><stop stop-opacity="1" stop-color="rgb(50.151062%, 86.558533%, 13.015747%)" offset="0.648438"/><stop stop-opacity="1" stop-color="rgb(50.692749%, 87.22229%, 12.355042%)" offset="0.652344"/><stop stop-opacity="1" stop-color="rgb(51.234436%, 87.886047%, 11.694336%)" offset="0.65625"/><stop stop-opacity="1" stop-color="rgb(51.776123%, 88.549805%, 11.03363%)" offset="0.660156"/><stop stop-opacity="1" stop-color="rgb(52.31781%, 89.215088%, 10.372925%)" offset="0.664063"/><stop stop-opacity="1" stop-color="rgb(52.859497%, 89.878845%, 9.710693%)" offset="0.667969"/><stop stop-opacity="1" stop-color="rgb(53.401184%, 90.544128%, 9.049988%)" offset="0.671875"/><stop stop-opacity="1" stop-color="rgb(53.793335%, 91.004944%, 8.680725%)" offset="0.675781"/><stop stop-opacity="1" stop-color="rgb(54.187012%, 91.467285%, 8.311462%)" offset="0.679688"/><stop stop-opacity="1" stop-color="rgb(54.309082%, 91.563416%, 8.470154%)" offset="0.6875"/><stop stop-opacity="1" stop-color="rgb(54.554749%, 91.755676%, 8.789062%)" offset="0.695313"/><stop stop-opacity="1" stop-color="rgb(54.800415%, 91.947937%, 9.106445%)" offset="0.703125"/><stop stop-opacity="1" stop-color="rgb(55.047607%, 92.140198%, 9.423828%)" offset="0.710938"/><stop stop-opacity="1" stop-color="rgb(55.293274%, 92.332458%, 9.741211%)" offset="0.71875"/><stop stop-opacity="1" stop-color="rgb(55.53894%, 92.524719%, 10.058594%)" offset="0.726562"/><stop stop-opacity="1" stop-color="rgb(55.784607%, 92.71698%, 10.375977%)" offset="0.734375"/><stop stop-opacity="1" stop-color="rgb(56.030273%, 92.909241%, 10.693359%)" offset="0.742188"/><stop stop-opacity="1" stop-color="rgb(56.27594%, 93.101501%, 11.010742%)" offset="0.75"/><stop stop-opacity="1" stop-color="rgb(56.523132%, 93.293762%, 11.328125%)" offset="0.757812"/><stop stop-opacity="1" stop-color="rgb(56.768799%, 93.486023%, 11.645508%)" offset="0.765625"/><stop stop-opacity="1" stop-color="rgb(57.014465%, 93.678284%, 11.962891%)" offset="0.773438"/><stop stop-opacity="1" stop-color="rgb(57.260132%, 93.870544%, 12.280273%)" offset="0.78125"/><stop stop-opacity="1" stop-color="rgb(57.505798%, 94.062805%, 12.597656%)" offset="0.789062"/><stop stop-opacity="1" stop-color="rgb(57.751465%, 94.255066%, 12.915039%)" offset="0.796875"/><stop stop-opacity="1" stop-color="rgb(57.998657%, 94.447327%, 13.232422%)" offset="0.804688"/><stop stop-opacity="1" stop-color="rgb(58.244324%, 94.639587%, 13.549805%)" offset="0.8125"/><stop stop-opacity="1" stop-color="rgb(58.48999%, 94.831848%, 13.868713%)" offset="0.820312"/><stop stop-opacity="1" stop-color="rgb(58.735657%, 95.024109%, 14.186096%)" offset="0.828125"/><stop stop-opacity="1" stop-color="rgb(58.981323%, 95.21637%, 14.503479%)" offset="0.835938"/><stop stop-opacity="1" stop-color="rgb(59.22699%, 95.40863%, 14.820862%)" offset="0.84375"/><stop stop-opacity="1" stop-color="rgb(59.474182%, 95.600891%, 15.138245%)" offset="0.851562"/><stop stop-opacity="1" stop-color="rgb(59.719849%, 95.793152%, 15.455627%)" offset="0.859375"/><stop stop-opacity="1" stop-color="rgb(59.965515%, 95.985413%, 15.77301%)" offset="0.867188"/><stop stop-opacity="1" stop-color="rgb(60.211182%, 96.177673%, 16.090393%)" offset="0.875"/><stop stop-opacity="1" stop-color="rgb(60.456848%, 96.369934%, 16.407776%)" offset="0.882812"/><stop stop-opacity="1" stop-color="rgb(60.704041%, 96.562195%, 16.725159%)" offset="0.890625"/><stop stop-opacity="1" stop-color="rgb(60.949707%, 96.754456%, 17.042542%)" offset="0.898437"/><stop stop-opacity="1" stop-color="rgb(61.195374%, 96.948242%, 17.359924%)" offset="0.90625"/><stop stop-opacity="1" stop-color="rgb(61.44104%, 97.140503%, 17.677307%)" offset="0.914062"/><stop stop-opacity="1" stop-color="rgb(61.686707%, 97.332764%, 17.99469%)" offset="0.921875"/><stop stop-opacity="1" stop-color="rgb(61.932373%, 97.525024%, 18.312073%)" offset="0.929687"/><stop stop-opacity="1" stop-color="rgb(62.179565%, 97.717285%, 18.629456%)" offset="0.9375"/><stop stop-opacity="1" stop-color="rgb(62.425232%, 97.909546%, 18.948364%)" offset="0.945312"/><stop stop-opacity="1" stop-color="rgb(62.670898%, 98.101807%, 19.265747%)" offset="0.953125"/><stop stop-opacity="1" stop-color="rgb(62.916565%, 98.294067%, 19.58313%)" offset="0.960937"/><stop stop-opacity="1" stop-color="rgb(63.162231%, 98.486328%, 19.900513%)" offset="0.96875"/><stop stop-opacity="1" stop-color="rgb(63.407898%, 98.678589%, 20.217896%)" offset="0.976562"/><stop stop-opacity="1" stop-color="rgb(63.65509%, 98.87085%, 20.535278%)" offset="0.984375"/><stop stop-opacity="1" stop-color="rgb(63.900757%, 99.06311%, 20.852661%)" offset="0.992188"/><stop stop-opacity="1" stop-color="rgb(64.146423%, 99.255371%, 21.170044%)" offset="1"/></linearGradient><clipPath id="0a3c46090d"><path d="M 0.449219 0 L 57.421875 0 L 57.421875 49.003906 L 0.449219 49.003906 Z M 0.449219 0 " clip-rule="nonzero"/></clipPath><clipPath id="a3c5025f8a"><path d="M 15.667969 15.457031 L 33.753906 15.457031 L 33.753906 34.179688 L 15.667969 34.179688 Z M 15.667969 15.457031 " clip-rule="nonzero"/></clipPath><clipPath id="100910bfba"><path d="M 24.710938 15.457031 C 19.714844 15.457031 15.667969 19.636719 15.667969 24.792969 C 15.667969 29.949219 19.714844 34.128906 24.710938 34.128906 C 29.703125 34.128906 33.753906 29.949219 33.753906 24.792969 C 33.753906 19.636719 29.703125 15.457031 24.710938 15.457031 Z M 24.710938 15.457031 " clip-rule="nonzero"/></clipPath></defs><g clip-path="url(#b357199e0b)"><path fill="#ffffff" d="M 0.449219 0 L 138.554688 0 L 138.554688 49.003906 L 0.449219 49.003906 Z M 0.449219 0 " fill-opacity="1" fill-rule="nonzero"/><path fill="#ffffff" d="M 0.449219 0 L 138.554688 0 L 138.554688 49.003906 L 0.449219 49.003906 Z M 0.449219 0 " fill-opacity="1" fill-rule="nonzero"/></g><g clip-path="url(#d07e3dc97a)"><path fill="url(#49bf3434cd)" d="M 0.449219 0 L 0.449219 49.003906 L 50.714844 49.003906 L 50.714844 0 Z M 0.449219 0 " fill-rule="nonzero"/></g><g clip-path="url(#0a3c46090d)"><path fill="#ffffff" d="M -7.746094 20.449219 L -7.746094 53.046875 L 57.449219 53.046875 L 57.449219 -12.148438 L -7.746094 -12.148438 Z M 26.144531 1.660156 C 27.710938 1.710938 28.433594 1.789062 29.710938 2.058594 C 31.726562 2.484375 33.359375 3.035156 35.03125 3.847656 C 37.835938 5.21875 40.5 7.328125 42.683594 9.917969 C 45.195312 12.890625 46.800781 16.195312 47.566406 19.941406 C 47.886719 21.527344 48.085938 23.695312 47.929688 23.914062 C 47.882812 23.976562 47.777344 23.996094 47.386719 24.03125 C 47.117188 24.050781 46.855469 24.058594 46.796875 24.042969 C 46.613281 23.996094 46.5625 23.820312 46.5 23.027344 C 46.183594 19.128906 45.0625 15.832031 43.015625 12.773438 C 42.660156 12.242188 42.300781 11.765625 42.210938 11.703125 C 42.152344 11.667969 42.054688 11.730469 41.242188 12.359375 C 40.859375 12.65625 40.527344 12.914062 40.503906 12.925781 C 40.4375 12.972656 40.507812 13.101562 40.933594 13.714844 C 41.5 14.523438 42.046875 15.445312 42.097656 15.679688 C 42.140625 15.886719 42.109375 16.070312 41.996094 16.246094 C 41.902344 16.386719 41.640625 16.542969 40.410156 17.195312 C 39.816406 17.515625 39.273438 17.808594 39.210938 17.851562 C 39.074219 17.949219 39.070312 17.917969 39.367188 18.636719 C 40.160156 20.527344 40.53125 22.496094 40.53125 24.769531 C 40.53125 26.21875 40.449219 26.992188 40.136719 28.429688 C 40.042969 28.851562 39.972656 29.203125 39.980469 29.210938 C 40.007812 29.230469 40.71875 29.480469 41.476562 29.730469 C 42.507812 30.078125 42.976562 30.261719 43.117188 30.371094 C 43.195312 30.433594 43.253906 30.535156 43.289062 30.671875 C 43.355469 30.9375 43.304688 31.144531 42.996094 31.921875 C 42.410156 33.398438 41.480469 35.023438 40.433594 36.40625 C 39.695312 37.382812 39.410156 37.609375 39.027344 37.550781 C 38.816406 37.523438 38.714844 37.445312 37.28125 36.238281 C 34.136719 33.585938 33.46875 33.027344 33.445312 33.027344 C 33.429688 33.027344 33.222656 33.210938 32.992188 33.433594 C 32.53125 33.882812 31.910156 34.386719 31.363281 34.757812 L 31.019531 34.996094 L 31.527344 35.894531 C 32.339844 37.339844 32.460938 37.585938 32.511719 37.835938 C 32.570312 38.167969 32.507812 38.375 32.296875 38.527344 C 31.46875 39.128906 29.019531 39.96875 27.417969 40.199219 C 26.855469 40.285156 25.320312 40.367188 24.40625 40.367188 L 23.917969 40.367188 L 23.894531 40.5 C 23.882812 40.578125 23.804688 41.144531 23.726562 41.765625 C 23.488281 43.566406 23.441406 43.742188 23.121094 43.929688 C 22.929688 44.042969 22.554688 44.039062 21.746094 43.917969 C 20.382812 43.703125 19.019531 43.34375 17.761719 42.851562 C 17.101562 42.59375 15.542969 41.824219 14.96875 41.472656 C 13.808594 40.765625 12.503906 39.789062 12.296875 39.476562 C 12.230469 39.371094 12.230469 39.359375 12.335938 39.179688 C 12.488281 38.917969 12.886719 38.460938 12.984375 38.429688 C 13.121094 38.386719 13.371094 38.53125 13.964844 38.996094 C 16.015625 40.59375 18.269531 41.671875 20.703125 42.222656 C 21.472656 42.398438 22.066406 42.484375 22.117188 42.429688 C 22.15625 42.390625 22.316406 41.28125 22.640625 38.761719 C 22.910156 36.730469 22.921875 36.613281 22.902344 36.554688 C 22.886719 36.527344 22.777344 36.488281 22.632812 36.476562 C 22.335938 36.441406 21.71875 36.289062 21.058594 36.070312 C 19.308594 35.511719 17.859375 34.601562 16.421875 33.171875 C 15.347656 32.109375 14.671875 31.179688 14.046875 29.917969 C 13.855469 29.53125 13.695312 29.1875 13.695312 29.15625 C 13.695312 29.113281 13.667969 29.105469 13.601562 29.121094 C 13.140625 29.25 11.171875 29.734375 10.867188 29.792969 C 10.414062 29.882812 10.234375 29.847656 10.027344 29.640625 C 9.828125 29.433594 9.621094 28.695312 9.398438 27.425781 C 9.335938 27.0625 9.269531 26.75 9.25 26.726562 C 9.226562 26.710938 9.042969 26.710938 8.835938 26.730469 C 7.796875 26.835938 7.035156 26.898438 6.542969 26.921875 C 6.019531 26.945312 5.996094 26.941406 5.851562 26.847656 C 5.769531 26.789062 5.660156 26.65625 5.601562 26.539062 L 5.5 26.332031 L 5.5 24.664062 C 5.503906 22.507812 5.585938 21.714844 5.984375 20.015625 C 6.355469 18.4375 6.566406 18.082031 7.101562 18.148438 C 7.203125 18.160156 7.929688 18.359375 8.710938 18.589844 C 9.492188 18.824219 10.136719 19.011719 10.152344 19.011719 C 10.171875 19.011719 10.238281 18.886719 10.300781 18.730469 C 10.753906 17.667969 11.460938 16.429688 12.140625 15.503906 C 12.28125 15.304688 12.402344 15.132812 12.402344 15.125 C 12.402344 15.113281 12.238281 14.964844 12.039062 14.796875 C 11.015625 13.933594 10.273438 13.285156 10.101562 13.097656 C 9.910156 12.898438 9.898438 12.871094 9.898438 12.652344 C 9.898438 12.503906 9.929688 12.359375 9.980469 12.261719 C 10.167969 11.890625 11.789062 10.28125 12.734375 9.523438 C 13.984375 8.523438 15.738281 7.414062 16.074219 7.414062 C 16.203125 7.414062 16.332031 7.566406 16.523438 7.953125 C 16.820312 8.542969 16.789062 8.601562 15.972656 9.074219 C 15.699219 9.234375 15.46875 9.378906 15.460938 9.40625 C 15.441406 9.457031 15.765625 9.933594 16.300781 10.660156 C 16.570312 11.023438 16.703125 11.167969 16.765625 11.167969 C 16.8125 11.167969 17.007812 11.082031 17.203125 10.976562 C 18.460938 10.296875 19.464844 9.894531 20.703125 9.570312 C 22.164062 9.1875 23.488281 9.03125 25.019531 9.046875 L 25.855469 9.058594 L 25.886719 8.808594 C 26.015625 7.90625 26.304688 6.078125 26.339844 5.949219 C 26.386719 5.761719 26.546875 5.558594 26.722656 5.46875 C 26.898438 5.378906 27.363281 5.414062 28.363281 5.582031 C 31.515625 6.109375 34.367188 7.394531 36.828125 9.378906 C 37.453125 9.890625 37.722656 10.167969 37.726562 10.324219 C 37.734375 10.527344 37.710938 10.6875 37.675781 10.765625 C 37.605469 10.890625 37.152344 11.414062 36.335938 12.3125 L 35.539062 13.179688 L 36.234375 13.871094 C 36.960938 14.589844 37.078125 14.742188 37.035156 14.902344 C 37.007812 15.011719 36.4375 15.5625 36.253906 15.65625 C 36.132812 15.71875 36.125 15.714844 35.925781 15.5625 C 35.597656 15.300781 33.953125 13.726562 33.855469 13.578125 C 33.746094 13.417969 33.730469 13.191406 33.816406 12.992188 C 33.882812 12.835938 34.164062 12.503906 35.167969 11.40625 C 35.585938 10.949219 35.925781 10.5625 35.925781 10.542969 C 35.925781 10.523438 35.789062 10.40625 35.628906 10.28125 C 33.925781 9.007812 31.976562 8.023438 30.074219 7.476562 C 29.171875 7.21875 27.738281 6.914062 27.683594 6.96875 C 27.660156 6.996094 27.5625 7.550781 27.414062 8.542969 C 27.273438 9.492188 27.148438 10.132812 27.085938 10.253906 C 27.0625 10.292969 26.984375 10.375 26.914062 10.421875 C 26.785156 10.515625 26.761719 10.515625 25.148438 10.523438 C 23.410156 10.53125 23.132812 10.550781 22.042969 10.757812 C 20.410156 11.0625 18.824219 11.679688 17.429688 12.554688 C 16.839844 12.921875 16.683594 12.984375 16.414062 12.941406 C 16.269531 12.921875 16.183594 12.875 16.085938 12.773438 C 15.96875 12.644531 15.09375 11.492188 14.410156 10.558594 C 14.253906 10.34375 14.171875 10.261719 14.132812 10.285156 C 13.824219 10.457031 11.691406 12.40625 11.691406 12.511719 C 11.691406 12.570312 12.09375 12.921875 14.132812 14.652344 C 14.753906 15.179688 15.371094 15.703125 15.507812 15.820312 C 15.648438 15.9375 15.855469 16.113281 15.972656 16.207031 L 16.191406 16.382812 L 16.597656 16.003906 C 17.136719 15.511719 17.894531 14.925781 17.992188 14.925781 C 18.195312 14.925781 18.785156 15.65625 18.785156 15.910156 C 18.785156 16.054688 18.8125 16.023438 17.921875 16.796875 C 17.734375 16.960938 17.515625 17.171875 17.441406 17.265625 C 17.367188 17.355469 17.140625 17.632812 16.9375 17.871094 C 16.734375 18.109375 16.550781 18.34375 16.53125 18.390625 C 16.507812 18.433594 16.464844 18.46875 16.4375 18.46875 C 16.386719 18.46875 15.90625 18.074219 14.367188 16.761719 C 13.574219 16.089844 13.566406 16.082031 13.484375 16.160156 C 13.347656 16.28125 12.566406 17.480469 12.296875 17.96875 C 12.042969 18.433594 11.777344 19.011719 11.59375 19.492188 C 11.261719 20.351562 11.175781 20.5 10.941406 20.597656 C 10.726562 20.6875 10.347656 20.617188 9.316406 20.308594 C 8.777344 20.140625 8.171875 19.964844 7.96875 19.910156 L 7.605469 19.808594 L 7.546875 19.925781 C 7.460938 20.085938 7.203125 21.273438 7.109375 21.953125 C 7.015625 22.597656 6.949219 23.53125 6.921875 24.652344 L 6.902344 25.394531 L 7.230469 25.394531 C 7.414062 25.394531 7.960938 25.355469 8.445312 25.308594 C 8.933594 25.261719 9.519531 25.21875 9.753906 25.214844 C 10.136719 25.207031 10.1875 25.214844 10.320312 25.304688 C 10.617188 25.507812 10.613281 25.488281 10.816406 26.957031 C 10.867188 27.300781 10.933594 27.722656 10.972656 27.882812 C 11.035156 28.175781 11.042969 28.1875 11.160156 28.1875 C 11.226562 28.1875 11.863281 28.046875 12.582031 27.871094 C 14.019531 27.515625 14.316406 27.480469 14.515625 27.628906 C 14.6875 27.757812 14.800781 27.9375 14.972656 28.386719 C 15.183594 28.933594 15.683594 29.933594 15.949219 30.335938 C 16.585938 31.308594 17.59375 32.445312 18.355469 33.054688 C 19.457031 33.9375 20.980469 34.703125 22.308594 35.050781 C 22.859375 35.191406 23.789062 35.363281 24.019531 35.363281 C 24.152344 35.363281 24.234375 35.390625 24.316406 35.460938 C 24.496094 35.613281 24.488281 35.882812 24.292969 37.4375 C 24.199219 38.175781 24.125 38.820312 24.125 38.871094 L 24.125 38.960938 L 24.96875 38.933594 C 26.699219 38.875 28.003906 38.675781 29.253906 38.277344 C 29.886719 38.078125 30.71875 37.734375 30.742188 37.667969 C 30.769531 37.601562 30.464844 36.984375 30.046875 36.257812 C 29.582031 35.453125 29.292969 34.867188 29.285156 34.738281 C 29.28125 34.664062 29.308594 34.582031 29.339844 34.550781 C 29.375 34.515625 29.664062 34.347656 29.984375 34.167969 C 30.71875 33.765625 31.167969 33.46875 31.671875 33.0625 C 32.742188 32.199219 33.566406 31.214844 34.386719 29.816406 C 34.628906 29.402344 34.675781 29.398438 35.289062 29.703125 C 35.859375 29.996094 36.835938 30.519531 37.730469 31.023438 L 38.429688 31.421875 L 38.429688 31.585938 C 38.429688 31.765625 38.230469 32.210938 38.035156 32.46875 C 37.953125 32.570312 37.890625 32.609375 37.800781 32.609375 C 37.667969 32.609375 37.21875 32.394531 36.105469 31.792969 C 35.707031 31.574219 35.285156 31.351562 35.175781 31.296875 L 34.976562 31.195312 L 34.84375 31.328125 C 34.722656 31.449219 34.46875 31.84375 34.46875 31.90625 C 34.46875 31.933594 35.359375 32.703125 36.742188 33.859375 C 37.214844 34.261719 37.929688 34.863281 38.320312 35.191406 L 39.035156 35.789062 L 39.195312 35.609375 C 39.398438 35.378906 40.078125 34.371094 40.480469 33.695312 C 40.910156 32.980469 41.640625 31.507812 41.640625 31.359375 C 41.640625 31.335938 41.234375 31.1875 40.738281 31.023438 C 39.527344 30.625 38.679688 30.324219 38.5625 30.246094 C 38.441406 30.167969 38.308594 29.882812 38.304688 29.707031 C 38.304688 29.640625 38.386719 29.285156 38.492188 28.925781 C 38.71875 28.121094 38.859375 27.464844 38.960938 26.726562 C 39.070312 25.925781 39.070312 23.40625 38.960938 22.640625 C 38.867188 22.003906 38.683594 21.15625 38.492188 20.5 C 38.289062 19.820312 37.8125 18.636719 37.738281 18.636719 C 37.730469 18.636719 37.546875 18.726562 37.332031 18.839844 C 36.058594 19.523438 35.09375 20.019531 34.957031 20.0625 C 34.734375 20.128906 34.597656 20.070312 34.453125 19.847656 C 33.675781 18.585938 33.417969 18.230469 32.746094 17.496094 C 31.464844 16.101562 29.578125 14.992188 27.667969 14.507812 C 26.738281 14.269531 26.257812 14.207031 25.25 14.1875 C 24.164062 14.160156 23.589844 14.214844 22.472656 14.445312 C 22.085938 14.523438 21.730469 14.578125 21.675781 14.566406 C 21.554688 14.53125 21.449219 14.34375 21.332031 13.917969 C 21.144531 13.25 21.179688 13.21875 22.332031 12.988281 C 23.128906 12.824219 23.886719 12.753906 24.824219 12.753906 C 25.75 12.753906 26.171875 12.789062 27.082031 12.945312 C 27.410156 13 27.699219 13.046875 27.714844 13.046875 C 27.777344 13.046875 27.945312 12.664062 28.265625 11.796875 C 28.800781 10.332031 28.910156 10.078125 29.0625 9.929688 C 29.265625 9.738281 29.460938 9.699219 29.769531 9.777344 C 30.402344 9.9375 32.128906 10.710938 32.441406 10.964844 C 32.652344 11.144531 32.644531 11.277344 32.382812 11.714844 C 32.144531 12.105469 32.023438 12.253906 31.929688 12.253906 C 31.898438 12.253906 31.484375 12.074219 31.019531 11.855469 C 30.484375 11.609375 30.121094 11.460938 30.054688 11.46875 C 29.957031 11.484375 29.921875 11.558594 29.582031 12.484375 C 29.382812 13.035156 29.234375 13.496094 29.246094 13.515625 C 29.261719 13.53125 29.414062 13.601562 29.582031 13.671875 C 30.035156 13.855469 31.003906 14.390625 31.484375 14.71875 C 32.601562 15.480469 33.667969 16.519531 34.679688 17.851562 C 34.890625 18.125 35.0625 18.34375 35.078125 18.34375 C 35.109375 18.34375 36.03125 17.878906 36.511719 17.613281 C 36.773438 17.472656 37.472656 17.101562 38.054688 16.789062 C 39.664062 15.9375 40.234375 15.628906 40.316406 15.570312 C 40.382812 15.527344 40.355469 15.480469 40.070312 15.042969 C 39.898438 14.78125 39.554688 14.304688 39.316406 13.988281 C 38.742188 13.230469 38.679688 13.121094 38.679688 12.847656 C 38.679688 12.644531 38.695312 12.613281 38.859375 12.433594 C 38.957031 12.328125 39.527344 11.851562 40.132812 11.371094 C 40.734375 10.890625 41.226562 10.484375 41.226562 10.476562 C 41.226562 10.4375 40.535156 9.734375 39.769531 8.988281 C 38.796875 8.046875 37.882812 7.304688 36.824219 6.59375 C 33.601562 4.4375 30.230469 3.328125 26.140625 3.074219 C 25.355469 3.027344 23.945312 3.03125 23.894531 3.085938 C 23.878906 3.097656 23.90625 3.746094 23.960938 4.519531 C 24.054688 6.011719 24.046875 6.277344 23.890625 6.519531 C 23.78125 6.6875 23.636719 6.738281 23.097656 6.8125 C 21.953125 6.964844 21.402344 7.058594 20.871094 7.175781 C 19.675781 7.4375 19.449219 7.472656 19.375 7.429688 C 19.292969 7.378906 19.15625 7.019531 19.050781 6.59375 C 18.980469 6.304688 18.980469 6.289062 19.050781 6.210938 C 19.21875 6.027344 20.59375 5.683594 21.910156 5.496094 C 22.21875 5.449219 22.484375 5.402344 22.5 5.382812 C 22.53125 5.351562 22.484375 4.253906 22.421875 3.558594 L 22.390625 3.222656 L 22.242188 3.210938 C 21.855469 3.179688 19.910156 3.558594 18.660156 3.910156 C 15.980469 4.671875 13.40625 6.058594 11.003906 8.042969 C 10.394531 8.546875 8.566406 10.398438 8.082031 11.003906 C 7.617188 11.578125 6.929688 12.492188 6.628906 12.9375 L 6.429688 13.230469 L 6.523438 13.300781 C 6.574219 13.339844 6.808594 13.46875 7.039062 13.589844 C 9.132812 14.6875 9.121094 14.679688 9.160156 14.84375 C 9.1875 14.9375 8.925781 15.492188 8.734375 15.746094 C 8.640625 15.878906 8.578125 15.925781 8.492188 15.925781 C 8.433594 15.925781 7.777344 15.617188 7.03125 15.238281 C 6.28125 14.855469 5.671875 14.550781 5.660156 14.5625 C 5.652344 14.570312 5.5 14.882812 5.316406 15.261719 C 4.300781 17.367188 3.65625 19.605469 3.375 21.992188 C 3.15625 23.878906 3.1875 26.253906 3.460938 28.105469 C 3.558594 28.792969 3.792969 29.941406 3.847656 29.996094 C 3.875 30.023438 4.296875 29.921875 5.214844 29.675781 C 6.875 29.226562 6.882812 29.222656 7.078125 29.277344 C 7.394531 29.363281 7.5 29.542969 7.808594 30.460938 C 8.09375 31.300781 8.402344 32.066406 8.695312 32.65625 C 8.898438 33.066406 8.9375 33.25 8.832031 33.367188 C 8.75 33.460938 8.335938 33.675781 8.015625 33.796875 C 7.832031 33.863281 7.808594 33.863281 7.714844 33.800781 C 7.65625 33.765625 7.558594 33.652344 7.496094 33.546875 C 7.335938 33.265625 6.855469 32.171875 6.605469 31.492188 C 6.484375 31.167969 6.363281 30.898438 6.339844 30.898438 C 6.316406 30.898438 6.152344 30.9375 5.984375 30.988281 C 5.226562 31.191406 4.609375 31.367188 4.425781 31.425781 L 4.230469 31.488281 L 4.402344 31.976562 C 4.644531 32.671875 5.050781 33.640625 5.371094 34.269531 C 6.027344 35.585938 7.210938 37.449219 7.386719 37.449219 C 7.480469 37.449219 7.316406 37.578125 10.777344 34.738281 C 11.429688 34.203125 11.972656 33.757812 11.980469 33.75 C 11.988281 33.742188 11.875 33.550781 11.726562 33.328125 C 11.304688 32.691406 11.214844 32.476562 11.308594 32.335938 C 11.324219 32.308594 11.480469 32.191406 11.660156 32.078125 C 11.972656 31.871094 12.296875 31.753906 12.414062 31.800781 C 12.449219 31.8125 12.660156 32.097656 12.886719 32.425781 C 14.023438 34.109375 15.371094 35.464844 16.984375 36.5625 C 17.894531 37.179688 18.785156 37.640625 19.992188 38.117188 C 20.320312 38.246094 20.550781 38.363281 20.578125 38.40625 C 20.648438 38.535156 20.628906 38.699219 20.488281 39.113281 C 20.347656 39.53125 20.261719 39.660156 20.105469 39.660156 C 19.78125 39.660156 18.207031 39.011719 17.347656 38.523438 C 15.96875 37.746094 14.5625 36.628906 13.328125 35.347656 L 12.898438 34.898438 L 12.703125 35.058594 C 11.3125 36.1875 9.148438 37.992188 8.507812 38.546875 L 8.339844 38.6875 L 8.433594 38.808594 C 8.660156 39.101562 9.570312 40.0625 9.980469 40.441406 C 13.210938 43.441406 16.441406 45.152344 20.367188 45.933594 C 21.933594 46.246094 22.800781 46.328125 24.644531 46.339844 L 25.9375 46.351562 L 25.929688 45.75 C 25.925781 45.414062 25.882812 44.714844 25.835938 44.1875 C 25.761719 43.316406 25.757812 43.226562 25.820312 43.105469 C 25.996094 42.753906 26.167969 42.671875 26.832031 42.589844 C 29.152344 42.328125 31.117188 41.753906 32.988281 40.789062 C 34.230469 40.148438 35.335938 39.433594 35.285156 39.300781 C 35.273438 39.265625 35.042969 38.957031 34.773438 38.613281 C 33.925781 37.527344 33.425781 36.855469 33.425781 36.804688 C 33.425781 36.601562 34.15625 35.988281 34.402344 35.988281 C 34.574219 35.988281 34.695312 36.117188 35.554688 37.21875 C 36.78125 38.800781 36.9375 39.007812 37.042969 39.230469 C 37.128906 39.421875 37.136719 39.46875 37.09375 39.625 C 37.03125 39.867188 36.648438 40.234375 35.957031 40.714844 C 33.464844 42.449219 30.671875 43.550781 27.738281 43.953125 C 27.476562 43.992188 27.363281 44.027344 27.34375 44.070312 C 27.324219 44.132812 27.398438 45.5 27.457031 46 L 27.480469 46.226562 L 27.648438 46.214844 C 28.007812 46.1875 29.394531 45.945312 30.058594 45.789062 C 31.667969 45.414062 33.058594 44.910156 34.570312 44.144531 C 36.558594 43.136719 38.375 41.820312 40.035156 40.179688 C 41.945312 38.292969 43.332031 36.40625 44.414062 34.214844 C 45.128906 32.765625 45.554688 31.613281 45.914062 30.148438 C 46.117188 29.308594 46.292969 28.445312 46.269531 28.421875 C 46.257812 28.414062 45.792969 28.339844 45.230469 28.253906 C 43.277344 27.96875 43.183594 27.945312 43.027344 27.828125 C 42.773438 27.632812 42.71875 27.503906 42.738281 27.105469 C 42.746094 26.90625 42.78125 26.246094 42.8125 25.628906 C 42.894531 24.019531 42.808594 22.746094 42.535156 21.242188 C 42.3125 20.035156 42.308594 20.007812 42.351562 19.929688 C 42.425781 19.785156 43.332031 19.523438 43.550781 19.582031 C 43.671875 19.613281 43.78125 19.914062 43.914062 20.601562 C 44.121094 21.652344 44.226562 22.546875 44.273438 23.601562 C 44.316406 24.535156 44.300781 26.328125 44.246094 26.539062 C 44.222656 26.625 44.257812 26.632812 45.175781 26.761719 C 46.804688 26.996094 47.46875 27.121094 47.570312 27.210938 C 47.71875 27.351562 47.816406 27.582031 47.816406 27.820312 C 47.816406 28.234375 47.53125 29.785156 47.289062 30.691406 C 46.25 34.597656 44.332031 37.914062 41.378906 40.90625 C 38.492188 43.828125 35.230469 45.828125 31.621094 46.890625 C 30.445312 47.238281 28.9375 47.550781 27.773438 47.691406 C 27.023438 47.78125 24.378906 47.816406 23.101562 47.753906 C 20.128906 47.613281 16.78125 46.683594 14.136719 45.261719 C 12.027344 44.125 10.332031 42.84375 8.441406 40.953125 C 5.773438 38.292969 4 35.449219 2.890625 32.066406 C 2.375 30.496094 2.070312 29.035156 1.867188 27.144531 C 1.777344 26.328125 1.742188 23.929688 1.804688 23.046875 C 2.054688 19.601562 2.886719 16.617188 4.375 13.871094 C 6.550781 9.859375 10.011719 6.390625 13.996094 4.242188 C 16.519531 2.878906 19.355469 2.03125 22.453125 1.707031 C 23.316406 1.613281 24.222656 1.601562 26.144531 1.660156 Z M 25.601562 15.675781 C 25.910156 15.824219 26.269531 16.183594 26.417969 16.480469 C 26.785156 17.242188 26.636719 18.105469 26.019531 18.761719 C 25.867188 18.925781 25.75 19.078125 25.761719 19.109375 C 25.792969 19.203125 26.046875 19.339844 26.554688 19.539062 C 27.765625 20 28.285156 20.421875 28.484375 21.089844 C 28.519531 21.195312 28.59375 21.699219 28.652344 22.203125 C 28.882812 24.234375 29.054688 24.910156 29.574219 25.902344 C 29.765625 26.265625 30.15625 26.816406 30.234375 26.839844 C 30.257812 26.847656 30.382812 26.765625 30.511719 26.652344 C 30.644531 26.542969 30.9375 26.332031 31.167969 26.1875 C 31.402344 26.035156 31.589844 25.90625 31.589844 25.894531 C 31.589844 25.882812 31.425781 25.832031 31.226562 25.78125 C 31.023438 25.734375 30.832031 25.679688 30.796875 25.667969 C 30.746094 25.648438 30.734375 25.675781 30.746094 25.820312 C 30.761719 26.046875 30.6875 26.15625 30.503906 26.15625 C 30.414062 26.15625 30.34375 26.128906 30.289062 26.066406 C 30.132812 25.875 30.230469 25.671875 30.5 25.617188 L 30.632812 25.589844 L 30.414062 25.46875 C 29.703125 25.085938 29.070312 24.042969 29.355469 23.730469 C 29.429688 23.644531 29.742188 23.558594 29.96875 23.558594 C 30.039062 23.558594 30.082031 23.542969 30.070312 23.519531 C 30.058594 23.5 30.023438 23.167969 30 22.777344 C 29.957031 22.164062 29.960938 22.054688 30.015625 21.917969 C 30.078125 21.777344 30.101562 21.765625 30.242188 21.765625 C 30.339844 21.765625 30.476562 21.808594 30.589844 21.871094 C 30.691406 21.9375 31.054688 22.132812 31.398438 22.316406 C 32.707031 23.011719 33.097656 23.394531 33.378906 24.238281 C 33.945312 25.949219 33.332031 28.53125 31.90625 30.429688 C 30.875 31.800781 29.441406 32.808594 27.71875 33.359375 C 27.027344 33.585938 26.601562 33.652344 25.667969 33.679688 C 24.652344 33.710938 24.003906 33.65625 23.328125 33.488281 C 20.714844 32.839844 18.613281 31.019531 17.597656 28.535156 C 16.933594 26.90625 16.851562 25.316406 17.28125 22.34375 C 17.40625 21.476562 17.472656 21.246094 17.609375 21.214844 C 17.835938 21.152344 18.347656 21.578125 18.617188 22.046875 C 18.695312 22.191406 18.777344 22.308594 18.789062 22.308594 C 18.800781 22.308594 18.84375 22.207031 18.878906 22.082031 C 18.964844 21.816406 19.03125 21.753906 19.214844 21.757812 C 19.390625 21.761719 19.488281 21.882812 19.65625 22.277344 C 19.859375 22.777344 19.921875 23.074219 19.925781 23.578125 C 19.929688 24.097656 19.875 24.371094 19.6875 24.769531 C 19.539062 25.09375 19.160156 25.480469 18.824219 25.664062 C 18.613281 25.78125 18.558594 25.789062 18.085938 25.800781 C 17.738281 25.816406 17.574219 25.835938 17.574219 25.867188 C 17.585938 26.105469 17.695312 26.78125 17.730469 26.816406 C 17.757812 26.84375 17.839844 26.839844 17.996094 26.796875 C 18.347656 26.699219 18.871094 26.675781 19.296875 26.730469 L 19.675781 26.78125 L 19.820312 26.621094 C 20.003906 26.410156 20.363281 25.851562 20.527344 25.535156 C 20.890625 24.8125 21.152344 23.761719 21.347656 22.222656 C 21.4375 21.546875 21.515625 21.148438 21.59375 20.957031 C 21.746094 20.597656 22.265625 20.121094 22.761719 19.886719 C 22.90625 19.824219 23.269531 19.683594 23.578125 19.570312 C 24.003906 19.421875 24.167969 19.339844 24.277344 19.234375 L 24.417969 19.089844 L 24.089844 18.769531 C 23.859375 18.542969 23.722656 18.371094 23.632812 18.179688 C 23.5 17.921875 23.496094 17.894531 23.496094 17.386719 L 23.496094 16.851562 L 23.664062 16.519531 C 23.859375 16.125 24.167969 15.792969 24.464844 15.648438 C 24.65625 15.558594 24.730469 15.550781 25.039062 15.5625 C 25.308594 15.570312 25.445312 15.597656 25.601562 15.675781 Z M 14.84375 19.488281 C 15.226562 19.664062 15.363281 19.777344 15.363281 19.917969 C 15.363281 19.972656 15.253906 20.300781 15.117188 20.652344 C 14.472656 22.332031 14.304688 23.347656 14.40625 25.085938 C 14.433594 25.597656 14.445312 26.035156 14.429688 26.050781 C 14.386719 26.089844 13.597656 26.121094 13.421875 26.082031 C 13.226562 26.046875 13 25.839844 12.945312 25.652344 C 12.917969 25.570312 12.886719 25.171875 12.875 24.777344 C 12.859375 24.382812 12.84375 24.058594 12.839844 24.058594 C 12.835938 24.058594 12.640625 24.035156 12.398438 24 C 12.160156 23.96875 11.515625 23.886719 10.964844 23.828125 C 10.394531 23.765625 9.917969 23.691406 9.847656 23.660156 C 9.664062 23.5625 9.640625 23.480469 9.691406 23.070312 C 9.75 22.589844 9.800781 22.417969 9.898438 22.328125 C 9.996094 22.238281 9.941406 22.238281 11.796875 22.453125 C 12.683594 22.558594 13.011719 22.582031 13.035156 22.542969 C 13.054688 22.519531 13.078125 22.402344 13.089844 22.285156 C 13.15625 21.792969 13.625 20.34375 13.917969 19.726562 C 14.144531 19.238281 14.246094 19.210938 14.84375 19.488281 Z M 29.875 20.832031 C 29.925781 20.894531 29.960938 20.964844 29.960938 20.992188 C 29.960938 21.023438 29.925781 21.09375 29.875 21.15625 C 29.703125 21.371094 29.328125 21.261719 29.328125 20.992188 C 29.328125 20.726562 29.703125 20.613281 29.875 20.832031 Z M 19.222656 20.910156 C 19.34375 21.027344 19.351562 21.121094 19.257812 21.253906 C 19.195312 21.347656 18.984375 21.378906 18.882812 21.3125 C 18.804688 21.261719 18.742188 21.105469 18.773438 21.027344 C 18.855469 20.792969 19.054688 20.738281 19.222656 20.910156 Z M 36.101562 21.742188 C 36.335938 21.78125 36.527344 22.019531 36.613281 22.378906 C 36.734375 22.910156 36.769531 23.445312 36.769531 24.644531 C 36.769531 25.84375 36.734375 26.417969 36.617188 27.007812 C 36.5 27.578125 36.402344 27.628906 35.734375 27.480469 C 35.519531 27.429688 35.34375 27.386719 35.34375 27.382812 C 35.34375 27.378906 35.390625 27.121094 35.449219 26.8125 C 35.699219 25.464844 35.679688 23.917969 35.40625 22.5625 C 35.324219 22.164062 35.269531 21.828125 35.28125 21.816406 C 35.320312 21.777344 35.777344 21.691406 35.863281 21.707031 C 35.910156 21.710938 36.015625 21.726562 36.101562 21.742188 Z M 20.550781 21.914062 C 20.710938 22.070312 20.570312 22.390625 20.347656 22.390625 C 20.289062 22.390625 20.207031 22.351562 20.160156 22.308594 C 19.988281 22.136719 20.117188 21.847656 20.363281 21.847656 C 20.433594 21.847656 20.519531 21.878906 20.550781 21.914062 Z M 29.679688 22.542969 C 29.839844 22.691406 29.703125 23.015625 29.480469 23.015625 C 29.25 23.015625 29.074219 22.703125 29.210938 22.535156 C 29.28125 22.453125 29.578125 22.457031 29.679688 22.542969 Z M 20.636719 23.523438 C 20.773438 23.585938 20.882812 23.75 20.847656 23.851562 C 20.835938 23.894531 20.765625 23.972656 20.699219 24.019531 C 20.589844 24.097656 20.558594 24.105469 20.449219 24.058594 C 20.382812 24.03125 20.292969 23.945312 20.257812 23.878906 C 20.195312 23.753906 20.195312 23.75 20.34375 23.613281 C 20.515625 23.453125 20.5 23.457031 20.636719 23.523438 Z M 20.09375 25.273438 C 20.285156 25.421875 20.214844 25.652344 19.960938 25.726562 C 19.835938 25.761719 19.804688 25.753906 19.714844 25.660156 C 19.628906 25.578125 19.613281 25.527344 19.636719 25.421875 C 19.679688 25.183594 19.894531 25.113281 20.09375 25.273438 Z M 18.410156 26.019531 C 18.621094 26.132812 18.597656 26.421875 18.367188 26.519531 C 18.234375 26.574219 18.105469 26.527344 18.035156 26.394531 C 17.964844 26.273438 17.984375 26.191406 18.097656 26.082031 C 18.203125 25.96875 18.289062 25.953125 18.410156 26.019531 Z M 27.9375 35.265625 C 28.03125 35.574219 28.097656 35.972656 28.070312 36.089844 C 28.03125 36.238281 27.878906 36.304688 27.289062 36.421875 C 26.265625 36.625 25.824219 36.613281 25.601562 36.386719 C 25.453125 36.242188 25.34375 35.933594 25.324219 35.613281 C 25.3125 35.425781 25.3125 35.425781 25.457031 35.417969 C 26.046875 35.375 27.28125 35.1875 27.46875 35.117188 C 27.519531 35.089844 27.636719 35.074219 27.71875 35.074219 C 27.863281 35.070312 27.871094 35.078125 27.9375 35.265625 Z M 27.9375 35.265625 " fill-opacity="1" fill-rule="nonzero"/></g><path fill="#ffffff" d="M 24.6875 16.195312 C 24.511719 16.285156 24.308594 16.527344 24.175781 16.796875 C 24.085938 16.992188 24.070312 17.089844 24.070312 17.386719 C 24.070312 17.796875 24.136719 17.980469 24.386719 18.230469 C 25.097656 18.945312 26.03125 18.410156 26.011719 17.296875 C 26.003906 16.917969 25.941406 16.746094 25.699219 16.484375 C 25.40625 16.167969 24.988281 16.046875 24.6875 16.195312 Z M 24.6875 16.195312 " fill-opacity="1" fill-rule="nonzero"/><path fill="#ffffff" d="M 24.933594 19.3125 C 24.894531 19.386719 24.789062 19.542969 24.699219 19.648438 C 24.605469 19.761719 24.539062 19.863281 24.558594 19.875 C 24.609375 19.929688 25.035156 19.964844 25.300781 19.941406 C 25.695312 19.910156 25.726562 19.875 25.515625 19.6875 C 25.421875 19.605469 25.296875 19.453125 25.234375 19.355469 C 25.101562 19.144531 25.023438 19.132812 24.933594 19.3125 Z M 24.933594 19.3125 " fill-opacity="1" fill-rule="nonzero"/><path fill="#ffffff" d="M 23.539062 20.203125 C 22.867188 20.433594 22.28125 20.847656 22.140625 21.191406 C 22.105469 21.289062 22.007812 21.816406 21.929688 22.359375 C 21.707031 23.9375 21.519531 24.722656 21.1875 25.519531 C 21.105469 25.703125 21.058594 25.851562 21.078125 25.851562 C 21.144531 25.851562 21.375 25.550781 21.5 25.304688 C 21.753906 24.792969 22.070312 23.8125 22.179688 23.183594 C 22.210938 22.988281 22.25 22.582031 22.261719 22.285156 C 22.304688 21.484375 22.316406 21.398438 22.4375 21.324219 C 22.519531 21.265625 22.558594 21.265625 22.660156 21.304688 C 22.925781 21.414062 22.929688 21.4375 22.875 22.195312 C 22.800781 23.300781 22.664062 23.929688 22.28125 24.984375 C 22.167969 25.304688 22.078125 25.578125 22.097656 25.589844 C 22.109375 25.601562 22.195312 25.578125 22.296875 25.535156 C 22.433594 25.480469 22.570312 25.464844 22.878906 25.46875 L 23.285156 25.472656 L 23.535156 25.285156 C 23.90625 25.003906 24.269531 24.496094 24.414062 24.042969 C 24.445312 23.949219 24.5 23.726562 24.535156 23.542969 C 24.59375 23.246094 24.617188 23.199219 24.710938 23.167969 C 24.851562 23.117188 25.027344 23.160156 25.082031 23.265625 C 25.148438 23.394531 25.058594 24.019531 24.914062 24.386719 C 24.769531 24.769531 24.546875 25.113281 24.226562 25.464844 L 23.992188 25.722656 L 24.144531 25.753906 C 24.417969 25.800781 24.878906 25.742188 25.179688 25.621094 C 25.40625 25.53125 25.546875 25.429688 25.875 25.117188 C 26.316406 24.695312 26.425781 24.652344 26.585938 24.808594 C 26.628906 24.855469 26.667969 24.933594 26.667969 24.984375 C 26.667969 25.089844 26.46875 25.417969 26.3125 25.558594 C 26.253906 25.613281 26.207031 25.671875 26.207031 25.695312 C 26.207031 25.765625 26.757812 25.722656 27.171875 25.621094 C 27.40625 25.570312 27.605469 25.515625 27.613281 25.5 C 27.625 25.488281 27.558594 25.25 27.464844 24.96875 C 27.109375 23.890625 26.835938 22.449219 26.835938 21.675781 C 26.835938 21.46875 26.847656 21.425781 26.945312 21.351562 C 27.070312 21.25 27.175781 21.265625 27.328125 21.402344 C 27.398438 21.46875 27.417969 21.53125 27.417969 21.707031 C 27.417969 22.816406 28.109375 25.453125 28.511719 25.882812 C 28.621094 26 28.816406 26.125 28.953125 26.164062 L 29.050781 26.195312 L 28.941406 25.972656 C 28.503906 25.113281 28.273438 24.136719 28.066406 22.28125 C 27.976562 21.476562 27.945312 21.292969 27.851562 21.109375 C 27.714844 20.820312 27.460938 20.605469 26.960938 20.351562 L 26.550781 20.136719 L 26.226562 20.289062 C 25.457031 20.636719 24.734375 20.632812 24.027344 20.28125 C 23.867188 20.199219 23.738281 20.136719 23.734375 20.136719 C 23.730469 20.140625 23.644531 20.171875 23.539062 20.203125 Z M 23.539062 20.203125 " fill-opacity="1" fill-rule="nonzero"/><path fill="#ffffff" d="M 17.890625 22.230469 C 17.878906 22.308594 17.828125 22.660156 17.78125 23.015625 C 17.738281 23.371094 17.691406 23.738281 17.679688 23.828125 L 17.652344 23.996094 L 17.867188 23.726562 C 18.226562 23.261719 18.324219 23.09375 18.324219 22.945312 C 18.324219 22.785156 18.085938 22.234375 17.980469 22.148438 C 17.921875 22.097656 17.914062 22.109375 17.890625 22.230469 Z M 17.890625 22.230469 " fill-opacity="1" fill-rule="nonzero"/><path fill="#ffffff" d="M 30.589844 22.800781 C 30.589844 22.914062 30.613281 23.144531 30.648438 23.316406 C 30.808594 24.164062 31.171875 24.648438 31.828125 24.894531 C 32.078125 24.984375 32.910156 25.125 32.957031 25.085938 C 33 25.039062 32.882812 24.554688 32.753906 24.238281 C 32.601562 23.886719 32.386719 23.625 32.03125 23.375 C 31.761719 23.183594 30.839844 22.667969 30.683594 22.621094 C 30.59375 22.59375 30.589844 22.601562 30.589844 22.800781 Z M 30.589844 22.800781 " fill-opacity="1" fill-rule="nonzero"/><path fill="#ffffff" d="M 18.960938 23.210938 C 18.839844 23.390625 18.558594 23.785156 18.332031 24.085938 C 17.863281 24.730469 17.675781 25.054688 17.710938 25.160156 C 17.738281 25.226562 17.789062 25.234375 18.066406 25.21875 C 18.609375 25.191406 18.949219 24.953125 19.207031 24.417969 C 19.316406 24.179688 19.328125 24.128906 19.328125 23.632812 C 19.328125 23.136719 19.289062 22.890625 19.214844 22.890625 C 19.191406 22.890625 19.082031 23.035156 18.960938 23.210938 Z M 18.960938 23.210938 " fill-opacity="1" fill-rule="nonzero"/><path fill="#ffffff" d="M 29.988281 24.222656 C 29.957031 24.261719 30.15625 24.539062 30.320312 24.6875 C 30.441406 24.800781 30.773438 25.019531 30.820312 25.019531 C 30.835938 25.019531 30.773438 24.929688 30.679688 24.816406 C 30.59375 24.710938 30.464844 24.539062 30.402344 24.433594 C 30.339844 24.328125 30.261719 24.234375 30.238281 24.21875 C 30.175781 24.171875 30.011719 24.175781 29.988281 24.222656 Z M 29.988281 24.222656 " fill-opacity="1" fill-rule="nonzero"/><path fill="#ffffff" d="M 23.03125 26.140625 C 23.257812 26.335938 23.65625 26.519531 23.847656 26.519531 C 24.035156 26.515625 24.273438 26.414062 24.164062 26.382812 C 24.132812 26.375 23.832031 26.285156 23.496094 26.195312 L 22.894531 26.023438 Z M 23.03125 26.140625 " fill-opacity="1" fill-rule="nonzero"/><path fill="#ffffff" d="M 20.976562 26.605469 C 19.921875 27.296875 19.453125 27.832031 19.382812 28.417969 C 19.332031 28.871094 19.636719 29.328125 20.082031 29.457031 C 20.644531 29.628906 21.378906 29.496094 22.226562 29.085938 C 23.054688 28.679688 24.414062 27.835938 24.414062 27.726562 C 24.414062 27.644531 24.222656 27.378906 24.070312 27.234375 L 23.957031 27.132812 L 23.40625 27.183594 C 22.261719 27.289062 21.671875 27.515625 20.917969 28.140625 C 20.496094 28.492188 20.441406 28.519531 20.292969 28.410156 C 20.222656 28.355469 20.175781 28.28125 20.167969 28.195312 C 20.132812 27.824219 21.359375 26.988281 22.285156 26.746094 C 22.4375 26.707031 22.574219 26.660156 22.59375 26.644531 C 22.664062 26.582031 21.917969 26.144531 21.746094 26.144531 C 21.710938 26.144531 21.367188 26.351562 20.976562 26.605469 Z M 20.976562 26.605469 " fill-opacity="1" fill-rule="nonzero"/><path fill="#ffffff" d="M 27.023438 26.257812 L 26.648438 26.367188 L 25.996094 26.289062 C 25.640625 26.25 25.292969 26.226562 25.222656 26.246094 C 25.078125 26.28125 24.679688 26.683594 24.640625 26.828125 C 24.621094 26.910156 24.648438 26.984375 24.765625 27.136719 C 24.996094 27.449219 24.996094 27.449219 25.226562 27.300781 C 25.34375 27.230469 25.894531 26.9375 26.453125 26.65625 C 27.019531 26.375 27.460938 26.144531 27.433594 26.148438 C 27.414062 26.148438 27.230469 26.199219 27.023438 26.257812 Z M 27.023438 26.257812 " fill-opacity="1" fill-rule="nonzero"/><path fill="#ffffff" d="M 32.476562 26.269531 C 31.929688 26.410156 31.28125 26.761719 30.902344 27.109375 L 30.714844 27.28125 L 30.964844 27.550781 C 31.101562 27.695312 31.242188 27.863281 31.28125 27.917969 L 31.347656 28.019531 L 31.535156 27.890625 C 31.773438 27.730469 32.082031 27.617188 32.414062 27.578125 C 32.597656 27.558594 32.6875 27.527344 32.714844 27.480469 C 32.761719 27.394531 32.964844 26.40625 32.964844 26.273438 C 32.964844 26.164062 32.882812 26.160156 32.476562 26.269531 Z M 32.476562 26.269531 " fill-opacity="1" fill-rule="nonzero"/><path fill="#ffffff" d="M 27.648438 26.742188 C 27.351562 26.863281 27.109375 26.972656 27.113281 27 C 27.121094 27.046875 27.125 27.046875 27.773438 27.199219 C 28.648438 27.414062 29.328125 27.742188 29.808594 28.183594 C 30.066406 28.425781 30.191406 28.617188 30.144531 28.699219 C 30.078125 28.816406 29.941406 28.9375 29.878906 28.9375 C 29.839844 28.9375 29.660156 28.816406 29.46875 28.671875 C 28.683594 28.050781 28.089844 27.8125 26.738281 27.585938 L 26.082031 27.476562 L 25.832031 27.625 C 25.695312 27.707031 25.574219 27.792969 25.5625 27.8125 C 25.464844 27.972656 27.558594 29.09375 28.773438 29.535156 C 29.640625 29.847656 29.765625 29.878906 30.175781 29.875 C 30.488281 29.867188 30.5625 29.851562 30.753906 29.75 C 31.035156 29.597656 31.105469 29.445312 31.078125 29.078125 C 31.015625 28.304688 30.257812 27.539062 28.789062 26.757812 C 28.542969 26.625 28.3125 26.519531 28.269531 26.519531 C 28.222656 26.523438 27.949219 26.621094 27.648438 26.742188 Z M 27.648438 26.742188 " fill-opacity="1" fill-rule="nonzero"/><path fill="#ffffff" d="M 18.304688 27.339844 C 18.101562 27.363281 17.867188 27.4375 17.867188 27.480469 C 17.867188 27.5625 18.089844 28.226562 18.203125 28.472656 L 18.320312 28.734375 L 18.542969 28.722656 L 18.757812 28.710938 L 18.808594 28.375 C 18.867188 27.996094 18.9375 27.769531 19.097656 27.5 L 19.210938 27.3125 L 18.816406 27.316406 C 18.605469 27.320312 18.375 27.332031 18.304688 27.339844 Z M 18.304688 27.339844 " fill-opacity="1" fill-rule="nonzero"/><path fill="#ffffff" d="M 32.191406 28.222656 C 32.074219 28.261719 31.898438 28.359375 31.800781 28.4375 L 31.621094 28.574219 L 31.65625 28.851562 C 31.707031 29.242188 31.683594 29.503906 31.589844 29.722656 C 31.40625 30.136719 31.621094 29.890625 31.945312 29.3125 C 32.214844 28.835938 32.507812 28.222656 32.480469 28.179688 C 32.453125 28.132812 32.4375 28.136719 32.191406 28.222656 Z M 32.191406 28.222656 " fill-opacity="1" fill-rule="nonzero"/><path fill="#ffffff" d="M 24.226562 28.609375 C 23.859375 28.839844 23.542969 29.042969 23.523438 29.0625 C 23.5 29.085938 23.554688 29.210938 23.652344 29.363281 C 23.742188 29.511719 23.867188 29.726562 23.929688 29.84375 C 23.988281 29.964844 24.050781 30.066406 24.066406 30.066406 C 24.078125 30.066406 24.230469 29.949219 24.410156 29.800781 C 24.867188 29.429688 25.046875 29.3125 25.53125 29.066406 L 25.957031 28.855469 L 25.464844 28.523438 C 25.191406 28.339844 24.953125 28.1875 24.933594 28.191406 C 24.910156 28.191406 24.59375 28.382812 24.226562 28.609375 Z M 24.226562 28.609375 " fill-opacity="1" fill-rule="nonzero"/><path fill="#ffffff" d="M 18.652344 29.292969 C 18.617188 29.332031 18.757812 29.566406 19.070312 29.976562 C 19.398438 30.410156 20.160156 31.195312 20.558594 31.5 C 21.125 31.9375 21.667969 32.261719 21.746094 32.214844 C 21.769531 32.199219 21.789062 31.992188 21.789062 31.75 C 21.789062 31.144531 21.664062 30.78125 21.300781 30.324219 C 21.15625 30.148438 21.152344 30.148438 20.878906 30.148438 C 20.050781 30.140625 19.542969 29.960938 19.167969 29.539062 C 19.019531 29.371094 18.925781 29.304688 18.820312 29.289062 C 18.742188 29.277344 18.667969 29.277344 18.652344 29.292969 Z M 18.652344 29.292969 " fill-opacity="1" fill-rule="nonzero"/><path fill="#ffffff" d="M 26.230469 29.414062 C 26.023438 29.488281 25.769531 29.59375 25.667969 29.648438 C 24.960938 30.011719 24.265625 30.691406 23.839844 31.445312 C 23.699219 31.695312 23.433594 32.441406 23.390625 32.71875 L 23.363281 32.894531 L 23.648438 32.957031 C 23.988281 33.03125 24.410156 33.109375 24.480469 33.109375 C 24.511719 33.109375 24.597656 32.972656 24.683594 32.804688 C 25.117188 31.90625 25.714844 31.308594 26.597656 30.902344 C 27.152344 30.648438 27.402344 30.59375 28.042969 30.597656 C 28.519531 30.601562 28.667969 30.625 28.984375 30.710938 C 29.390625 30.828125 29.777344 31 30.105469 31.195312 L 30.308594 31.324219 L 30.660156 30.972656 C 31.230469 30.410156 31.226562 30.351562 30.597656 30.433594 C 29.777344 30.535156 28.863281 30.289062 27.261719 29.546875 C 26.933594 29.398438 26.652344 29.273438 26.632812 29.273438 C 26.617188 29.277344 26.4375 29.339844 26.230469 29.414062 Z M 26.230469 29.414062 " fill-opacity="1" fill-rule="nonzero"/><path fill="#ffffff" d="M 22.34375 29.675781 L 21.789062 29.953125 L 21.875 30.082031 C 22.316406 30.742188 22.5 31.578125 22.355469 32.265625 L 22.300781 32.535156 L 22.492188 32.617188 C 22.617188 32.671875 22.703125 32.683594 22.742188 32.664062 C 22.777344 32.644531 22.839844 32.492188 22.875 32.335938 C 22.976562 31.921875 23.125 31.546875 23.390625 31.035156 C 23.617188 30.597656 23.617188 30.59375 23.554688 30.445312 C 23.390625 30.042969 22.992188 29.394531 22.921875 29.402344 C 22.90625 29.402344 22.640625 29.527344 22.34375 29.675781 Z M 22.34375 29.675781 " fill-opacity="1" fill-rule="nonzero"/><path fill="#ffffff" d="M 27.375 31.25 C 26.832031 31.378906 26.316406 31.671875 25.882812 32.101562 C 25.632812 32.347656 25.207031 32.949219 25.207031 33.050781 C 25.207031 33.148438 25.410156 33.167969 25.929688 33.113281 C 26.675781 33.035156 27.292969 32.90625 27.898438 32.695312 C 28.445312 32.503906 29.753906 31.804688 29.753906 31.699219 C 29.753906 31.640625 29.390625 31.460938 29.023438 31.335938 C 28.742188 31.238281 28.609375 31.21875 28.148438 31.207031 C 27.800781 31.199219 27.523438 31.214844 27.375 31.25 Z M 27.375 31.25 " fill-opacity="1" fill-rule="nonzero"/><g clip-path="url(#a3c5025f8a)"><g clip-path="url(#100910bfba)"><path fill="#ffffff" d="M 15.667969 15.457031 L 33.753906 15.457031 L 33.753906 34.109375 L 15.667969 34.109375 Z M 15.667969 15.457031 " fill-opacity="1" fill-rule="nonzero"/></g></g><g fill="#022759" fill-opacity="1"><g transform="translate(55.122616, 21.919465)"><g><path d="M 7.734375 0.40625 C 5.910156 0.40625 4.335938 -0.222656 3.015625 -1.484375 C 1.703125 -2.753906 1.046875 -4.4375 1.046875 -6.53125 C 1.046875 -8.601562 1.703125 -10.3125 3.015625 -11.65625 C 4.328125 -13.007812 6.023438 -13.6875 8.109375 -13.6875 C 10.023438 -13.6875 11.617188 -13.039062 12.890625 -11.75 C 14.160156 -10.457031 14.796875 -8.8125 14.796875 -6.8125 C 14.796875 -4.675781 14.148438 -2.9375 12.859375 -1.59375 C 11.566406 -0.257812 9.859375 0.40625 7.734375 0.40625 Z M 8.609375 -1.109375 C 9.453125 -1.109375 10.15625 -1.507812 10.71875 -2.3125 C 11.28125 -3.125 11.5625 -4.226562 11.5625 -5.625 C 11.5625 -6.707031 11.394531 -7.734375 11.0625 -8.703125 C 10.738281 -9.679688 10.25 -10.492188 9.59375 -11.140625 C 8.945312 -11.785156 8.203125 -12.109375 7.359375 -12.109375 C 6.515625 -12.109375 5.816406 -11.703125 5.265625 -10.890625 C 4.710938 -10.078125 4.4375 -9 4.4375 -7.65625 C 4.4375 -6.570312 4.597656 -5.535156 4.921875 -4.546875 C 5.253906 -3.554688 5.742188 -2.734375 6.390625 -2.078125 C 7.046875 -1.429688 7.785156 -1.109375 8.609375 -1.109375 Z M 8.609375 -1.109375 "/></g></g></g><g fill="#022759" fill-opacity="1"><g transform="translate(70.966589, 21.919465)"><g><path d="M 8.328125 -10.28125 C 8.929688 -10.28125 9.453125 -10.175781 9.890625 -9.96875 C 10.328125 -9.757812 10.65625 -9.484375 10.875 -9.140625 C 11.09375 -8.796875 11.253906 -8.445312 11.359375 -8.09375 C 11.460938 -7.75 11.515625 -7.394531 11.515625 -7.03125 L 11.515625 0 L 8.59375 0 L 8.59375 -5.890625 C 8.59375 -7.390625 8.03125 -8.140625 6.90625 -8.140625 C 6.195312 -8.140625 5.335938 -7.578125 4.328125 -6.453125 L 4.328125 0 L 1.40625 0 L 1.40625 -9.328125 L 4.328125 -10.28125 L 4.328125 -7.984375 C 5.796875 -9.515625 7.128906 -10.28125 8.328125 -10.28125 Z M 8.328125 -10.28125 "/></g></g></g><g fill="#022759" fill-opacity="1"><g transform="translate(83.867534, 21.919465)"><g><path d="M 6.328125 -10.28125 C 6.796875 -10.28125 7.234375 -10.226562 7.640625 -10.125 C 8.054688 -10.03125 8.414062 -9.898438 8.71875 -9.734375 C 9.03125 -9.578125 9.3125 -9.390625 9.5625 -9.171875 C 9.820312 -8.953125 10.039062 -8.722656 10.21875 -8.484375 C 10.40625 -8.242188 10.566406 -8.003906 10.703125 -7.765625 C 10.847656 -7.535156 10.960938 -7.3125 11.046875 -7.09375 C 11.128906 -6.875 11.191406 -6.679688 11.234375 -6.515625 C 11.285156 -6.347656 11.316406 -6.21875 11.328125 -6.125 L 11.375 -5.984375 L 4.125 -3.953125 C 4.34375 -3.140625 4.710938 -2.503906 5.234375 -2.046875 C 5.765625 -1.597656 6.40625 -1.375 7.15625 -1.375 C 7.40625 -1.375 7.65625 -1.410156 7.90625 -1.484375 C 8.15625 -1.554688 8.378906 -1.648438 8.578125 -1.765625 C 8.785156 -1.878906 8.976562 -2.003906 9.15625 -2.140625 C 9.34375 -2.273438 9.503906 -2.410156 9.640625 -2.546875 C 9.773438 -2.691406 9.890625 -2.820312 9.984375 -2.9375 C 10.085938 -3.050781 10.164062 -3.144531 10.21875 -3.21875 L 10.296875 -3.328125 L 10.984375 -2.03125 C 10.941406 -1.96875 10.875 -1.878906 10.78125 -1.765625 C 10.6875 -1.660156 10.488281 -1.46875 10.1875 -1.1875 C 9.882812 -0.914062 9.5625 -0.671875 9.21875 -0.453125 C 8.875 -0.242188 8.425781 -0.0507812 7.875 0.125 C 7.320312 0.300781 6.757812 0.390625 6.1875 0.390625 C 4.65625 0.390625 3.378906 -0.0976562 2.359375 -1.078125 C 1.335938 -2.066406 0.828125 -3.378906 0.828125 -5.015625 C 0.828125 -6.503906 1.335938 -7.753906 2.359375 -8.765625 C 3.378906 -9.773438 4.703125 -10.28125 6.328125 -10.28125 Z M 3.953125 -5.140625 L 8.328125 -6.390625 C 8.304688 -6.453125 8.28125 -6.539062 8.25 -6.65625 C 8.21875 -6.769531 8.140625 -6.972656 8.015625 -7.265625 C 7.890625 -7.566406 7.742188 -7.828125 7.578125 -8.046875 C 7.421875 -8.273438 7.195312 -8.476562 6.90625 -8.65625 C 6.625 -8.832031 6.316406 -8.921875 5.984375 -8.921875 C 5.421875 -8.921875 4.9375 -8.640625 4.53125 -8.078125 C 4.132812 -7.523438 3.9375 -6.707031 3.9375 -5.625 C 3.9375 -5.40625 3.941406 -5.242188 3.953125 -5.140625 Z M 3.953125 -5.140625 "/></g></g></g><g fill="#022759" fill-opacity="1"><g transform="translate(95.740437, 21.919465)"><g/></g></g><g fill="#022759" fill-opacity="1"><g transform="translate(100.175139, 21.919465)"><g><path d="M 4.59375 -13.296875 L 4.59375 -1.6875 C 5.757812 -1.707031 6.863281 -1.789062 7.90625 -1.9375 C 8.945312 -2.09375 9.695312 -2.238281 10.15625 -2.375 L 10.828125 -2.59375 L 10.828125 0 L 1.53125 0 L 1.53125 -13.296875 Z M 4.59375 -13.296875 "/></g></g></g><g fill="#022759" fill-opacity="1"><g transform="translate(111.261886, 21.919465)"><g><path d="M 4.890625 -13.21875 L 2.828125 -11.140625 L 0.765625 -13.21875 L 2.828125 -15.28125 Z M 4.3125 0 L 1.390625 0 L 1.390625 -9.328125 L 4.3125 -10.28125 Z M 4.3125 0 "/></g></g></g><g fill="#022759" fill-opacity="1"><g transform="translate(116.946367, 21.919465)"><g><path d="M 4.875 -11.6875 L 4.875 -10.078125 L 7.921875 -10.078125 L 7.921875 -8.6875 L 4.875 -8.6875 L 4.875 0 L 1.9375 0 L 1.9375 -8.6875 L 0.4375 -8.6875 L 0.4375 -10.078125 L 1.9375 -10.078125 L 1.9375 -10.78125 C 1.9375 -11.976562 2.351562 -12.925781 3.1875 -13.625 C 4.019531 -14.320312 5.101562 -14.671875 6.4375 -14.671875 C 6.882812 -14.671875 7.332031 -14.613281 7.78125 -14.5 C 8.226562 -14.394531 8.550781 -14.289062 8.75 -14.1875 L 9.0625 -14.046875 L 7.5625 -12.296875 C 7.519531 -12.378906 7.453125 -12.476562 7.359375 -12.59375 C 7.273438 -12.707031 7.09375 -12.859375 6.8125 -13.046875 C 6.539062 -13.242188 6.265625 -13.34375 5.984375 -13.34375 C 5.648438 -13.34375 5.378906 -13.203125 5.171875 -12.921875 C 4.972656 -12.640625 4.875 -12.226562 4.875 -11.6875 Z M 4.875 -11.6875 "/></g></g></g><g fill="#022759" fill-opacity="1"><g transform="translate(124.888507, 21.919465)"><g><path d="M 6.328125 -10.28125 C 6.796875 -10.28125 7.234375 -10.226562 7.640625 -10.125 C 8.054688 -10.03125 8.414062 -9.898438 8.71875 -9.734375 C 9.03125 -9.578125 9.3125 -9.390625 9.5625 -9.171875 C 9.820312 -8.953125 10.039062 -8.722656 10.21875 -8.484375 C 10.40625 -8.242188 10.566406 -8.003906 10.703125 -7.765625 C 10.847656 -7.535156 10.960938 -7.3125 11.046875 -7.09375 C 11.128906 -6.875 11.191406 -6.679688 11.234375 -6.515625 C 11.285156 -6.347656 11.316406 -6.21875 11.328125 -6.125 L 11.375 -5.984375 L 4.125 -3.953125 C 4.34375 -3.140625 4.710938 -2.503906 5.234375 -2.046875 C 5.765625 -1.597656 6.40625 -1.375 7.15625 -1.375 C 7.40625 -1.375 7.65625 -1.410156 7.90625 -1.484375 C 8.15625 -1.554688 8.378906 -1.648438 8.578125 -1.765625 C 8.785156 -1.878906 8.976562 -2.003906 9.15625 -2.140625 C 9.34375 -2.273438 9.503906 -2.410156 9.640625 -2.546875 C 9.773438 -2.691406 9.890625 -2.820312 9.984375 -2.9375 C 10.085938 -3.050781 10.164062 -3.144531 10.21875 -3.21875 L 10.296875 -3.328125 L 10.984375 -2.03125 C 10.941406 -1.96875 10.875 -1.878906 10.78125 -1.765625 C 10.6875 -1.660156 10.488281 -1.46875 10.1875 -1.1875 C 9.882812 -0.914062 9.5625 -0.671875 9.21875 -0.453125 C 8.875 -0.242188 8.425781 -0.0507812 7.875 0.125 C 7.320312 0.300781 6.757812 0.390625 6.1875 0.390625 C 4.65625 0.390625 3.378906 -0.0976562 2.359375 -1.078125 C 1.335938 -2.066406 0.828125 -3.378906 0.828125 -5.015625 C 0.828125 -6.503906 1.335938 -7.753906 2.359375 -8.765625 C 3.378906 -9.773438 4.703125 -10.28125 6.328125 -10.28125 Z M 3.953125 -5.140625 L 8.328125 -6.390625 C 8.304688 -6.453125 8.28125 -6.539062 8.25 -6.65625 C 8.21875 -6.769531 8.140625 -6.972656 8.015625 -7.265625 C 7.890625 -7.566406 7.742188 -7.828125 7.578125 -8.046875 C 7.421875 -8.273438 7.195312 -8.476562 6.90625 -8.65625 C 6.625 -8.832031 6.316406 -8.921875 5.984375 -8.921875 C 5.421875 -8.921875 4.9375 -8.640625 4.53125 -8.078125 C 4.132812 -7.523438 3.9375 -6.707031 3.9375 -5.625 C 3.9375 -5.40625 3.941406 -5.242188 3.953125 -5.140625 Z M 3.953125 -5.140625 "/></g></g></g><g fill="#002169" fill-opacity="1"><g transform="translate(56.470434, 40.544581)"><g><path d="M 15.6875 -12.078125 L 17.859375 -12.078125 L 13.3125 0 L 11.234375 0 L 8.703125 -6.984375 L 6.21875 0 L 4.140625 0 L -0.21875 -12.078125 L 2.84375 -12.078125 L 5.890625 -3.015625 L 8.03125 -8.8125 L 6.859375 -12.078125 L 9.921875 -12.078125 L 13.015625 -3.015625 L 13.78125 -5.203125 C 14.320312 -6.671875 14.75 -7.976562 15.0625 -9.125 C 15.382812 -10.269531 15.570312 -11.046875 15.625 -11.453125 Z M 15.6875 -12.078125 "/></g></g></g><g fill="#002169" fill-opacity="1"><g transform="translate(73.815318, 40.544581)"><g><path d="M 5.75 -9.328125 C 6.175781 -9.328125 6.570312 -9.28125 6.9375 -9.1875 C 7.3125 -9.101562 7.640625 -8.988281 7.921875 -8.84375 C 8.203125 -8.695312 8.457031 -8.523438 8.6875 -8.328125 C 8.914062 -8.128906 9.113281 -7.921875 9.28125 -7.703125 C 9.445312 -7.484375 9.59375 -7.265625 9.71875 -7.046875 C 9.851562 -6.835938 9.957031 -6.632812 10.03125 -6.4375 C 10.101562 -6.238281 10.160156 -6.0625 10.203125 -5.90625 C 10.242188 -5.757812 10.269531 -5.644531 10.28125 -5.5625 L 10.3125 -5.4375 L 3.75 -3.59375 C 3.945312 -2.851562 4.28125 -2.273438 4.75 -1.859375 C 5.226562 -1.453125 5.8125 -1.25 6.5 -1.25 C 6.726562 -1.25 6.953125 -1.28125 7.171875 -1.34375 C 7.398438 -1.414062 7.601562 -1.5 7.78125 -1.59375 C 7.96875 -1.695312 8.144531 -1.8125 8.3125 -1.9375 C 8.476562 -2.0625 8.617188 -2.1875 8.734375 -2.3125 C 8.859375 -2.4375 8.96875 -2.550781 9.0625 -2.65625 C 9.15625 -2.757812 9.226562 -2.847656 9.28125 -2.921875 L 9.34375 -3.015625 L 9.96875 -1.84375 C 9.9375 -1.78125 9.875 -1.703125 9.78125 -1.609375 C 9.695312 -1.515625 9.519531 -1.34375 9.25 -1.09375 C 8.976562 -0.84375 8.6875 -0.617188 8.375 -0.421875 C 8.0625 -0.222656 7.65625 -0.046875 7.15625 0.109375 C 6.65625 0.265625 6.140625 0.34375 5.609375 0.34375 C 4.222656 0.34375 3.066406 -0.0976562 2.140625 -0.984375 C 1.210938 -1.878906 0.75 -3.070312 0.75 -4.5625 C 0.75 -5.914062 1.210938 -7.046875 2.140625 -7.953125 C 3.066406 -8.867188 4.269531 -9.328125 5.75 -9.328125 Z M 3.59375 -4.671875 L 7.5625 -5.796875 C 7.539062 -5.859375 7.515625 -5.941406 7.484375 -6.046875 C 7.460938 -6.148438 7.390625 -6.332031 7.265625 -6.59375 C 7.148438 -6.863281 7.019531 -7.097656 6.875 -7.296875 C 6.726562 -7.503906 6.523438 -7.691406 6.265625 -7.859375 C 6.015625 -8.023438 5.738281 -8.109375 5.4375 -8.109375 C 4.925781 -8.109375 4.484375 -7.851562 4.109375 -7.34375 C 3.742188 -6.84375 3.5625 -6.097656 3.5625 -5.109375 C 3.5625 -4.910156 3.570312 -4.765625 3.59375 -4.671875 Z M 3.59375 -4.671875 "/></g></g></g><g fill="#002169" fill-opacity="1"><g transform="translate(84.591833, 40.544581)"><g><path d="M 3.96875 0 L 1.3125 0 L 1.3125 -12.328125 L 3.96875 -13.1875 Z M 3.96875 0 "/></g></g></g><g fill="#002169" fill-opacity="1"><g transform="translate(89.897759, 40.544581)"><g><path d="M 3.96875 0 L 1.3125 0 L 1.3125 -12.328125 L 3.96875 -13.1875 Z M 3.96875 0 "/></g></g></g><g fill="#002169" fill-opacity="1"><g transform="translate(95.203682, 40.544581)"><g><path d="M 7.5625 -9.328125 C 8.101562 -9.328125 8.570312 -9.234375 8.96875 -9.046875 C 9.363281 -8.859375 9.660156 -8.609375 9.859375 -8.296875 C 10.066406 -7.984375 10.21875 -7.664062 10.3125 -7.34375 C 10.40625 -7.03125 10.453125 -6.710938 10.453125 -6.390625 L 10.453125 0 L 7.796875 0 L 7.796875 -5.34375 C 7.796875 -6.707031 7.289062 -7.390625 6.28125 -7.390625 C 5.632812 -7.390625 4.851562 -6.878906 3.9375 -5.859375 L 3.9375 0 L 1.28125 0 L 1.28125 -8.46875 L 3.9375 -9.328125 L 3.9375 -7.25 C 5.257812 -8.632812 6.46875 -9.328125 7.5625 -9.328125 Z M 7.5625 -9.328125 "/></g></g></g><g fill="#002169" fill-opacity="1"><g transform="translate(106.913308, 40.544581)"><g><path d="M 5.75 -9.328125 C 6.175781 -9.328125 6.570312 -9.28125 6.9375 -9.1875 C 7.3125 -9.101562 7.640625 -8.988281 7.921875 -8.84375 C 8.203125 -8.695312 8.457031 -8.523438 8.6875 -8.328125 C 8.914062 -8.128906 9.113281 -7.921875 9.28125 -7.703125 C 9.445312 -7.484375 9.59375 -7.265625 9.71875 -7.046875 C 9.851562 -6.835938 9.957031 -6.632812 10.03125 -6.4375 C 10.101562 -6.238281 10.160156 -6.0625 10.203125 -5.90625 C 10.242188 -5.757812 10.269531 -5.644531 10.28125 -5.5625 L 10.3125 -5.4375 L 3.75 -3.59375 C 3.945312 -2.851562 4.28125 -2.273438 4.75 -1.859375 C 5.226562 -1.453125 5.8125 -1.25 6.5 -1.25 C 6.726562 -1.25 6.953125 -1.28125 7.171875 -1.34375 C 7.398438 -1.414062 7.601562 -1.5 7.78125 -1.59375 C 7.96875 -1.695312 8.144531 -1.8125 8.3125 -1.9375 C 8.476562 -2.0625 8.617188 -2.1875 8.734375 -2.3125 C 8.859375 -2.4375 8.96875 -2.550781 9.0625 -2.65625 C 9.15625 -2.757812 9.226562 -2.847656 9.28125 -2.921875 L 9.34375 -3.015625 L 9.96875 -1.84375 C 9.9375 -1.78125 9.875 -1.703125 9.78125 -1.609375 C 9.695312 -1.515625 9.519531 -1.34375 9.25 -1.09375 C 8.976562 -0.84375 8.6875 -0.617188 8.375 -0.421875 C 8.0625 -0.222656 7.65625 -0.046875 7.15625 0.109375 C 6.65625 0.265625 6.140625 0.34375 5.609375 0.34375 C 4.222656 0.34375 3.066406 -0.0976562 2.140625 -0.984375 C 1.210938 -1.878906 0.75 -3.070312 0.75 -4.5625 C 0.75 -5.914062 1.210938 -7.046875 2.140625 -7.953125 C 3.066406 -8.867188 4.269531 -9.328125 5.75 -9.328125 Z M 3.59375 -4.671875 L 7.5625 -5.796875 C 7.539062 -5.859375 7.515625 -5.941406 7.484375 -6.046875 C 7.460938 -6.148438 7.390625 -6.332031 7.265625 -6.59375 C 7.148438 -6.863281 7.019531 -7.097656 6.875 -7.296875 C 6.726562 -7.503906 6.523438 -7.691406 6.265625 -7.859375 C 6.015625 -8.023438 5.738281 -8.109375 5.4375 -8.109375 C 4.925781 -8.109375 4.484375 -7.851562 4.109375 -7.34375 C 3.742188 -6.84375 3.5625 -6.097656 3.5625 -5.109375 C 3.5625 -4.910156 3.570312 -4.765625 3.59375 -4.671875 Z M 3.59375 -4.671875 "/></g></g></g><g fill="#002169" fill-opacity="1"><g transform="translate(117.689825, 40.544581)"><g><path d="M 4.859375 0.359375 C 4.140625 0.359375 3.429688 0.285156 2.734375 0.140625 C 2.035156 -0.00390625 1.515625 -0.148438 1.171875 -0.296875 L 0.671875 -0.5 L 1.75 -2.71875 C 1.800781 -2.675781 1.863281 -2.609375 1.9375 -2.515625 C 2.019531 -2.429688 2.191406 -2.28125 2.453125 -2.0625 C 2.710938 -1.84375 2.972656 -1.648438 3.234375 -1.484375 C 3.503906 -1.328125 3.832031 -1.179688 4.21875 -1.046875 C 4.601562 -0.910156 4.984375 -0.84375 5.359375 -0.84375 C 5.773438 -0.84375 6.101562 -0.929688 6.34375 -1.109375 C 6.582031 -1.296875 6.703125 -1.519531 6.703125 -1.78125 C 6.703125 -2.144531 6.503906 -2.46875 6.109375 -2.75 C 5.722656 -3.03125 5.25 -3.269531 4.6875 -3.46875 C 4.125 -3.675781 3.554688 -3.894531 2.984375 -4.125 C 2.421875 -4.363281 1.941406 -4.675781 1.546875 -5.0625 C 1.160156 -5.457031 0.96875 -5.914062 0.96875 -6.4375 C 0.96875 -6.757812 1.035156 -7.070312 1.171875 -7.375 C 1.304688 -7.6875 1.519531 -7.992188 1.8125 -8.296875 C 2.101562 -8.609375 2.53125 -8.859375 3.09375 -9.046875 C 3.65625 -9.234375 4.3125 -9.328125 5.0625 -9.328125 C 5.695312 -9.328125 6.332031 -9.269531 6.96875 -9.15625 C 7.601562 -9.039062 8.085938 -8.925781 8.421875 -8.8125 L 8.890625 -8.640625 L 7.890625 -6.453125 C 7.847656 -6.503906 7.789062 -6.566406 7.71875 -6.640625 C 7.65625 -6.710938 7.515625 -6.847656 7.296875 -7.046875 C 7.078125 -7.242188 6.847656 -7.414062 6.609375 -7.5625 C 6.367188 -7.707031 6.0625 -7.835938 5.6875 -7.953125 C 5.3125 -8.078125 4.9375 -8.140625 4.5625 -8.140625 C 4.15625 -8.140625 3.847656 -8.050781 3.640625 -7.875 C 3.429688 -7.707031 3.328125 -7.507812 3.328125 -7.28125 C 3.328125 -6.945312 3.519531 -6.648438 3.90625 -6.390625 C 4.300781 -6.140625 4.78125 -5.914062 5.34375 -5.71875 C 5.90625 -5.519531 6.46875 -5.296875 7.03125 -5.046875 C 7.59375 -4.804688 8.066406 -4.476562 8.453125 -4.0625 C 8.835938 -3.644531 9.03125 -3.15625 9.03125 -2.59375 C 9.03125 -1.664062 8.625 -0.941406 7.8125 -0.421875 C 7 0.0976562 6.015625 0.359375 4.859375 0.359375 Z M 4.859375 0.359375 "/></g></g></g><g fill="#002169" fill-opacity="1"><g transform="translate(127.478339, 40.544581)"><g><path d="M 4.859375 0.359375 C 4.140625 0.359375 3.429688 0.285156 2.734375 0.140625 C 2.035156 -0.00390625 1.515625 -0.148438 1.171875 -0.296875 L 0.671875 -0.5 L 1.75 -2.71875 C 1.800781 -2.675781 1.863281 -2.609375 1.9375 -2.515625 C 2.019531 -2.429688 2.191406 -2.28125 2.453125 -2.0625 C 2.710938 -1.84375 2.972656 -1.648438 3.234375 -1.484375 C 3.503906 -1.328125 3.832031 -1.179688 4.21875 -1.046875 C 4.601562 -0.910156 4.984375 -0.84375 5.359375 -0.84375 C 5.773438 -0.84375 6.101562 -0.929688 6.34375 -1.109375 C 6.582031 -1.296875 6.703125 -1.519531 6.703125 -1.78125 C 6.703125 -2.144531 6.503906 -2.46875 6.109375 -2.75 C 5.722656 -3.03125 5.25 -3.269531 4.6875 -3.46875 C 4.125 -3.675781 3.554688 -3.894531 2.984375 -4.125 C 2.421875 -4.363281 1.941406 -4.675781 1.546875 -5.0625 C 1.160156 -5.457031 0.96875 -5.914062 0.96875 -6.4375 C 0.96875 -6.757812 1.035156 -7.070312 1.171875 -7.375 C 1.304688 -7.6875 1.519531 -7.992188 1.8125 -8.296875 C 2.101562 -8.609375 2.53125 -8.859375 3.09375 -9.046875 C 3.65625 -9.234375 4.3125 -9.328125 5.0625 -9.328125 C 5.695312 -9.328125 6.332031 -9.269531 6.96875 -9.15625 C 7.601562 -9.039062 8.085938 -8.925781 8.421875 -8.8125 L 8.890625 -8.640625 L 7.890625 -6.453125 C 7.847656 -6.503906 7.789062 -6.566406 7.71875 -6.640625 C 7.65625 -6.710938 7.515625 -6.847656 7.296875 -7.046875 C 7.078125 -7.242188 6.847656 -7.414062 6.609375 -7.5625 C 6.367188 -7.707031 6.0625 -7.835938 5.6875 -7.953125 C 5.3125 -8.078125 4.9375 -8.140625 4.5625 -8.140625 C 4.15625 -8.140625 3.847656 -8.050781 3.640625 -7.875 C 3.429688 -7.707031 3.328125 -7.507812 3.328125 -7.28125 C 3.328125 -6.945312 3.519531 -6.648438 3.90625 -6.390625 C 4.300781 -6.140625 4.78125 -5.914062 5.34375 -5.71875 C 5.90625 -5.519531 6.46875 -5.296875 7.03125 -5.046875 C 7.59375 -4.804688 8.066406 -4.476562 8.453125 -4.0625 C 8.835938 -3.644531 9.03125 -3.15625 9.03125 -2.59375 C 9.03125 -1.664062 8.625 -0.941406 7.8125 -0.421875 C 7 0.0976562 6.015625 0.359375 4.859375 0.359375 Z M 4.859375 0.359375 "/></g></g></g></svg>