<svg width="1920" height="709" viewBox="0 0 1920 709" fill="none" xmlns="http://www.w3.org/2000/svg">
<path d="M115.8 315C75 315 39.9 300.9 10.5 272.7C-18.9 244.5 -33.6 207 -33.6 160.2C-33.6 114 -19.05 75.9 10.05 45.9C39.45 15.6 77.4 0.449991 123.9 0.449991C166.8 0.449991 202.35 14.85 230.55 43.65C259.05 72.45 273.3 109.2 273.3 153.9C273.3 201.6 258.9 240.45 230.1 270.45C201.3 300.15 163.2 315 115.8 315ZM135.15 281.25C154.05 281.25 169.8 272.25 182.4 254.25C195 236.25 201.3 211.65 201.3 180.45C201.3 156.15 197.55 133.2 190.05 111.6C182.85 89.7 171.9 71.55 157.2 57.15C142.8 42.75 126.15 35.55 107.25 35.55C88.35 35.55 72.75 44.7 60.45 63C48.15 81 42 105 42 135C42 159.3 45.6 182.55 52.8 204.75C60.3 226.65 71.25 244.95 85.65 259.65C100.35 274.05 116.85 281.25 135.15 281.25ZM548.76 8.99999H600.51C597.51 42.6 596.01 141.6 596.01 306L540.66 305.55L377.31 113.85C377.61 154.95 378.21 191.55 379.11 223.65C380.31 255.45 381.36 277.2 382.26 288.9L383.61 306H333.66C335.76 280.8 336.81 247.95 336.81 207.45V8.99999H391.71L555.51 201.6C555.21 159.6 554.46 122.55 553.26 90.45C552.06 58.35 551.01 36.75 550.11 25.65L548.76 8.99999ZM876.307 8.99999V60.75C850.207 52.35 804.307 47.7 738.607 46.8V129.6C761.107 129.6 781.357 129.3 799.357 128.7C817.357 128.1 829.957 127.65 837.157 127.35C844.357 126.75 847.957 126.3 847.957 126V171.45C825.157 169.05 788.707 167.85 738.607 167.85V268.2C767.707 267.9 793.657 266.55 816.457 264.15C839.557 261.75 855.307 259.5 863.707 257.4L876.307 254.25V306H670.207V8.99999H876.307ZM1094.57 8.99999V268.2C1120.67 267.9 1145.27 266.1 1168.37 262.8C1191.77 259.2 1208.57 255.9 1218.77 252.9L1233.62 247.95V306H1026.17V8.99999H1094.57ZM1344.24 306H1275.84V8.99999H1344.24V306ZM1620.74 8.99999V61.2C1595.24 52.5 1549.19 47.7 1482.59 46.8V138.6C1505.09 138.6 1525.34 138.3 1543.34 137.7C1561.64 137.1 1574.39 136.65 1581.59 136.35C1588.79 135.75 1592.39 135.3 1592.39 135V180.45C1569.59 178.05 1532.99 176.85 1482.59 176.85V306H1414.19V8.99999H1620.74ZM1868.59 8.99999V60.75C1842.49 52.35 1796.59 47.7 1730.89 46.8V129.6C1753.39 129.6 1773.64 129.3 1791.64 128.7C1809.64 128.1 1822.24 127.65 1829.44 127.35C1836.64 126.75 1840.24 126.3 1840.24 126V171.45C1817.44 169.05 1780.99 167.85 1730.89 167.85V268.2C1759.99 267.9 1785.94 266.55 1808.74 264.15C1831.84 261.75 1847.59 259.5 1855.99 257.4L1868.59 254.25V306H1662.49V8.99999H1868.59Z" fill="#022759" fill-opacity="0.05"/>
<path d="M169.65 342H223.2L111.6 639H60.3L-1.8 467.1L-63 639H-114.3L-221.4 342H-146.25L-71.1 564.75L-18.45 422.1L-47.25 342H27.9L103.95 564.75L122.85 511.2C136.35 474.9 147 442.65 154.8 414.45C162.6 386.25 167.1 367.2 168.3 357.3L169.65 342ZM450.559 342V393.75C424.459 385.35 378.559 380.7 312.859 379.8V462.6C335.359 462.6 355.609 462.3 373.609 461.7C391.609 461.1 404.209 460.65 411.409 460.35C418.609 459.75 422.209 459.3 422.209 459V504.45C399.409 502.05 362.959 500.85 312.859 500.85V601.2C341.959 600.9 367.909 599.55 390.709 597.15C413.809 594.75 429.559 592.5 437.959 590.4L450.559 587.25V639H244.459V342H450.559ZM569.95 342V601.2C596.05 600.9 620.65 599.1 643.75 595.8C667.15 592.2 683.95 588.9 694.15 585.9L709 580.95V639H501.55V342H569.95ZM817.362 342V601.2C843.462 600.9 868.062 599.1 891.162 595.8C914.562 592.2 931.362 588.9 941.562 585.9L956.412 580.95V639H748.962V342H817.362ZM1214.17 342H1265.92C1262.92 375.6 1261.42 474.6 1261.42 639L1206.07 638.55L1042.72 446.85C1043.02 487.95 1043.62 524.55 1044.52 556.65C1045.72 588.45 1046.77 610.2 1047.67 621.9L1049.02 639H999.074C1001.17 613.8 1002.22 580.95 1002.22 540.45V342H1057.12L1220.92 534.6C1220.62 492.6 1219.87 455.55 1218.67 423.45C1217.47 391.35 1216.42 369.75 1215.52 358.65L1214.17 342ZM1541.72 342V393.75C1515.62 385.35 1469.72 380.7 1404.02 379.8V462.6C1426.52 462.6 1446.77 462.3 1464.77 461.7C1482.77 461.1 1495.37 460.65 1502.57 460.35C1509.77 459.75 1513.37 459.3 1513.37 459V504.45C1490.57 502.05 1454.12 500.85 1404.02 500.85V601.2C1433.12 600.9 1459.07 599.55 1481.87 597.15C1504.97 594.75 1520.72 592.5 1529.12 590.4L1541.72 587.25V639H1335.62V342H1541.72ZM1702.51 648C1680.31 648 1658.86 645.45 1638.16 640.35C1617.46 635.55 1602.31 630.75 1592.71 625.95L1578.76 618.75L1612.96 548.55C1614.16 550.35 1615.96 552.75 1618.36 555.75C1621.06 558.45 1626.31 563.55 1634.11 571.05C1641.91 578.25 1649.71 584.7 1657.51 590.4C1665.61 596.1 1675.36 601.35 1686.76 606.15C1698.16 610.65 1709.26 612.9 1720.06 612.9C1733.56 612.9 1744.81 609.9 1753.81 603.9C1762.81 597.6 1767.31 589.05 1767.31 578.25C1767.31 567.45 1761.01 557.55 1748.41 548.55C1736.11 539.55 1721.11 531.6 1703.41 524.7C1685.71 517.5 1668.01 509.85 1650.31 501.75C1632.61 493.65 1617.46 482.85 1604.86 469.35C1592.56 455.55 1586.41 439.8 1586.41 422.1C1586.41 395.7 1597.06 374.4 1618.36 358.2C1639.96 341.7 1670.71 333.45 1710.61 333.45C1727.71 333.45 1745.41 335.55 1763.71 339.75C1782.01 343.65 1795.96 347.55 1805.56 351.45L1819.96 357.3L1788.46 422.1C1787.56 420.6 1786.06 418.65 1783.96 416.25C1782.16 413.85 1778.11 409.5 1771.81 403.2C1765.51 396.9 1758.91 391.35 1752.01 386.55C1745.11 381.45 1736.41 376.95 1725.91 373.05C1715.71 369.15 1705.36 367.2 1694.86 367.2C1681.06 367.2 1669.96 370.35 1661.56 376.65C1653.16 382.95 1648.96 390.6 1648.96 399.6C1648.96 410.1 1654.96 419.7 1666.96 428.4C1679.26 437.1 1694.11 445.05 1711.51 452.25C1728.91 459.45 1746.31 467.25 1763.71 475.65C1781.11 484.05 1795.81 495.15 1807.81 508.95C1820.11 522.75 1826.26 538.65 1826.26 556.65C1826.26 582.15 1815.31 603.75 1793.41 621.45C1771.81 639.15 1741.51 648 1702.51 648ZM1990.79 648C1968.59 648 1947.14 645.45 1926.44 640.35C1905.74 635.55 1890.59 630.75 1880.99 625.95L1867.04 618.75L1901.24 548.55C1902.44 550.35 1904.24 552.75 1906.64 555.75C1909.34 558.45 1914.59 563.55 1922.39 571.05C1930.19 578.25 1937.99 584.7 1945.79 590.4C1953.89 596.1 1963.64 601.35 1975.04 606.15C1986.44 610.65 1997.54 612.9 2008.34 612.9C2021.84 612.9 2033.09 609.9 2042.09 603.9C2051.09 597.6 2055.59 589.05 2055.59 578.25C2055.59 567.45 2049.29 557.55 2036.69 548.55C2024.39 539.55 2009.39 531.6 1991.69 524.7C1973.99 517.5 1956.29 509.85 1938.59 501.75C1920.89 493.65 1905.74 482.85 1893.14 469.35C1880.84 455.55 1874.69 439.8 1874.69 422.1C1874.69 395.7 1885.34 374.4 1906.64 358.2C1928.24 341.7 1958.99 333.45 1998.89 333.45C2015.99 333.45 2033.69 335.55 2051.99 339.75C2070.29 343.65 2084.24 347.55 2093.84 351.45L2108.24 357.3L2076.74 422.1C2075.84 420.6 2074.34 418.65 2072.24 416.25C2070.44 413.85 2066.39 409.5 2060.09 403.2C2053.79 396.9 2047.19 391.35 2040.29 386.55C2033.39 381.45 2024.69 376.95 2014.19 373.05C2003.99 369.15 1993.64 367.2 1983.14 367.2C1969.34 367.2 1958.24 370.35 1949.84 376.65C1941.44 382.95 1937.24 390.6 1937.24 399.6C1937.24 410.1 1943.24 419.7 1955.24 428.4C1967.54 437.1 1982.39 445.05 1999.79 452.25C2017.19 459.45 2034.59 467.25 2051.99 475.65C2069.39 484.05 2084.09 495.15 2096.09 508.95C2108.39 522.75 2114.54 538.65 2114.54 556.65C2114.54 582.15 2103.59 603.75 2081.69 621.45C2060.09 639.15 2029.79 648 1990.79 648Z" fill="#022759" fill-opacity="0.05"/>
</svg>
