<svg xmlns="http://www.w3.org/2000/svg" xmlns:xlink="http://www.w3.org/1999/xlink" width="500" zoomAndPan="magnify" viewBox="0 0 375 374.999991" height="500" preserveAspectRatio="xMidYMid meet" version="1.0"><defs><clipPath id="851eb8e286"><path d="M 16.875 16.875 L 358.125 16.875 L 358.125 358.125 L 16.875 358.125 Z M 16.875 16.875 " clip-rule="nonzero"/></clipPath><clipPath id="2fd828cce9"><path d="M 187.5 16.875 C 93.265625 16.875 16.875 93.265625 16.875 187.5 C 16.875 281.734375 93.265625 358.125 187.5 358.125 C 281.734375 358.125 358.125 281.734375 358.125 187.5 C 358.125 93.265625 281.734375 16.875 187.5 16.875 Z M 187.5 16.875 " clip-rule="nonzero"/></clipPath><clipPath id="07c4cf2182"><path d="M 53.433594 55.476562 L 321.5625 55.476562 L 321.5625 319.523438 L 53.433594 319.523438 Z M 53.433594 55.476562 " clip-rule="nonzero"/></clipPath><clipPath id="a1df16b99b"><path d="M 128.433594 55.476562 L 246.566406 55.476562 C 287.988281 55.476562 321.566406 89.054688 321.566406 130.476562 L 321.566406 244.523438 C 321.566406 285.945312 287.988281 319.523438 246.566406 319.523438 L 128.433594 319.523438 C 87.011719 319.523438 53.433594 285.945312 53.433594 244.523438 L 53.433594 130.476562 C 53.433594 89.054688 87.011719 55.476562 128.433594 55.476562 Z M 128.433594 55.476562 " clip-rule="nonzero"/></clipPath><linearGradient x1="0.991968" gradientTransform="matrix(1.031427, 0, 0, 1.031427, 53.430453, 55.477359)" y1="-0.988032" x2="258.971002" gradientUnits="userSpaceOnUse" y2="256.989982" id="5f4dab138b"><stop stop-opacity="1" stop-color="rgb(2.69928%, 14.900208%, 31.799316%)" offset="0"/><stop stop-opacity="1" stop-color="rgb(2.731323%, 15.097046%, 32.217407%)" offset="0.00390625"/><stop stop-opacity="1" stop-color="rgb(2.764893%, 15.29541%, 32.637024%)" offset="0.0078125"/><stop stop-opacity="1" stop-color="rgb(2.796936%, 15.493774%, 33.055115%)" offset="0.0117188"/><stop stop-opacity="1" stop-color="rgb(2.830505%, 15.692139%, 33.474731%)" offset="0.015625"/><stop stop-opacity="1" stop-color="rgb(2.862549%, 15.890503%, 33.892822%)" offset="0.0195312"/><stop stop-opacity="1" stop-color="rgb(2.896118%, 16.088867%, 34.312439%)" offset="0.0234375"/><stop stop-opacity="1" stop-color="rgb(2.928162%, 16.287231%, 34.73053%)" offset="0.0273438"/><stop stop-opacity="1" stop-color="rgb(2.961731%, 16.485596%, 35.150146%)" offset="0.03125"/><stop stop-opacity="1" stop-color="rgb(2.993774%, 16.68396%, 35.568237%)" offset="0.0351563"/><stop stop-opacity="1" stop-color="rgb(3.027344%, 16.882324%, 35.987854%)" offset="0.0390625"/><stop stop-opacity="1" stop-color="rgb(3.059387%, 17.080688%, 36.405945%)" offset="0.0429688"/><stop stop-opacity="1" stop-color="rgb(3.092957%, 17.279053%, 36.825562%)" offset="0.046875"/><stop stop-opacity="1" stop-color="rgb(3.125%, 17.477417%, 37.243652%)" offset="0.0507813"/><stop stop-opacity="1" stop-color="rgb(3.158569%, 17.675781%, 37.663269%)" offset="0.0546875"/><stop stop-opacity="1" stop-color="rgb(3.190613%, 17.87262%, 38.08136%)" offset="0.0585938"/><stop stop-opacity="1" stop-color="rgb(3.224182%, 18.070984%, 38.500977%)" offset="0.0625"/><stop stop-opacity="1" stop-color="rgb(3.256226%, 18.269348%, 38.919067%)" offset="0.0664063"/><stop stop-opacity="1" stop-color="rgb(3.289795%, 18.467712%, 39.338684%)" offset="0.0703125"/><stop stop-opacity="1" stop-color="rgb(3.323364%, 18.666077%, 39.756775%)" offset="0.0742188"/><stop stop-opacity="1" stop-color="rgb(3.356934%, 18.864441%, 40.174866%)" offset="0.078125"/><stop stop-opacity="1" stop-color="rgb(3.388977%, 19.062805%, 40.592957%)" offset="0.0820313"/><stop stop-opacity="1" stop-color="rgb(3.422546%, 19.261169%, 41.012573%)" offset="0.0859375"/><stop stop-opacity="1" stop-color="rgb(3.45459%, 19.459534%, 41.430664%)" offset="0.0898438"/><stop stop-opacity="1" stop-color="rgb(3.488159%, 19.657898%, 41.850281%)" offset="0.09375"/><stop stop-opacity="1" stop-color="rgb(3.520203%, 19.856262%, 42.268372%)" offset="0.0976563"/><stop stop-opacity="1" stop-color="rgb(3.553772%, 20.054626%, 42.687988%)" offset="0.101563"/><stop stop-opacity="1" stop-color="rgb(3.585815%, 20.251465%, 43.106079%)" offset="0.105469"/><stop stop-opacity="1" stop-color="rgb(3.619385%, 20.449829%, 43.525696%)" offset="0.109375"/><stop stop-opacity="1" stop-color="rgb(3.651428%, 20.648193%, 43.943787%)" offset="0.113281"/><stop stop-opacity="1" stop-color="rgb(3.684998%, 20.846558%, 44.363403%)" offset="0.117188"/><stop stop-opacity="1" stop-color="rgb(3.717041%, 21.044922%, 44.781494%)" offset="0.121094"/><stop stop-opacity="1" stop-color="rgb(3.75061%, 21.243286%, 45.201111%)" offset="0.125"/><stop stop-opacity="1" stop-color="rgb(3.782654%, 21.44165%, 45.619202%)" offset="0.128906"/><stop stop-opacity="1" stop-color="rgb(3.816223%, 21.640015%, 46.038818%)" offset="0.132813"/><stop stop-opacity="1" stop-color="rgb(3.848267%, 21.838379%, 46.456909%)" offset="0.136719"/><stop stop-opacity="1" stop-color="rgb(3.881836%, 22.036743%, 46.876526%)" offset="0.140625"/><stop stop-opacity="1" stop-color="rgb(3.913879%, 22.235107%, 47.294617%)" offset="0.144531"/><stop stop-opacity="1" stop-color="rgb(3.947449%, 22.433472%, 47.714233%)" offset="0.148438"/><stop stop-opacity="1" stop-color="rgb(3.979492%, 22.63031%, 48.132324%)" offset="0.152344"/><stop stop-opacity="1" stop-color="rgb(4.013062%, 22.828674%, 48.550415%)" offset="0.15625"/><stop stop-opacity="1" stop-color="rgb(4.045105%, 23.027039%, 48.968506%)" offset="0.160156"/><stop stop-opacity="1" stop-color="rgb(4.078674%, 23.225403%, 49.388123%)" offset="0.164063"/><stop stop-opacity="1" stop-color="rgb(4.110718%, 23.423767%, 49.806213%)" offset="0.167969"/><stop stop-opacity="1" stop-color="rgb(4.144287%, 23.622131%, 50.22583%)" offset="0.171875"/><stop stop-opacity="1" stop-color="rgb(4.176331%, 23.820496%, 50.643921%)" offset="0.175781"/><stop stop-opacity="1" stop-color="rgb(4.2099%, 24.01886%, 51.063538%)" offset="0.179688"/><stop stop-opacity="1" stop-color="rgb(4.241943%, 24.217224%, 51.481628%)" offset="0.183594"/><stop stop-opacity="1" stop-color="rgb(4.275513%, 24.415588%, 51.901245%)" offset="0.1875"/><stop stop-opacity="1" stop-color="rgb(4.307556%, 24.613953%, 52.319336%)" offset="0.191406"/><stop stop-opacity="1" stop-color="rgb(4.341125%, 24.812317%, 52.738953%)" offset="0.195313"/><stop stop-opacity="1" stop-color="rgb(4.373169%, 25.010681%, 53.157043%)" offset="0.199219"/><stop stop-opacity="1" stop-color="rgb(4.406738%, 25.209045%, 53.57666%)" offset="0.203125"/><stop stop-opacity="1" stop-color="rgb(4.438782%, 25.405884%, 53.994751%)" offset="0.207031"/><stop stop-opacity="1" stop-color="rgb(4.472351%, 25.604248%, 54.414368%)" offset="0.210938"/><stop stop-opacity="1" stop-color="rgb(4.504395%, 25.802612%, 54.832458%)" offset="0.214844"/><stop stop-opacity="1" stop-color="rgb(4.537964%, 26.000977%, 55.252075%)" offset="0.21875"/><stop stop-opacity="1" stop-color="rgb(4.570007%, 26.199341%, 55.670166%)" offset="0.222656"/><stop stop-opacity="1" stop-color="rgb(4.603577%, 26.397705%, 56.088257%)" offset="0.226563"/><stop stop-opacity="1" stop-color="rgb(4.637146%, 26.596069%, 56.506348%)" offset="0.230469"/><stop stop-opacity="1" stop-color="rgb(4.670715%, 26.794434%, 56.925964%)" offset="0.234375"/><stop stop-opacity="1" stop-color="rgb(4.702759%, 26.992798%, 57.344055%)" offset="0.238281"/><stop stop-opacity="1" stop-color="rgb(4.736328%, 27.191162%, 57.763672%)" offset="0.242188"/><stop stop-opacity="1" stop-color="rgb(4.768372%, 27.389526%, 58.181763%)" offset="0.246094"/><stop stop-opacity="1" stop-color="rgb(4.801941%, 27.587891%, 58.601379%)" offset="0.25"/><stop stop-opacity="1" stop-color="rgb(4.833984%, 27.784729%, 59.01947%)" offset="0.253906"/><stop stop-opacity="1" stop-color="rgb(4.867554%, 27.983093%, 59.439087%)" offset="0.257813"/><stop stop-opacity="1" stop-color="rgb(4.899597%, 28.181458%, 59.857178%)" offset="0.261719"/><stop stop-opacity="1" stop-color="rgb(4.933167%, 28.379822%, 60.276794%)" offset="0.265625"/><stop stop-opacity="1" stop-color="rgb(4.96521%, 28.578186%, 60.694885%)" offset="0.269531"/><stop stop-opacity="1" stop-color="rgb(4.998779%, 28.77655%, 61.114502%)" offset="0.273438"/><stop stop-opacity="1" stop-color="rgb(5.030823%, 28.974915%, 61.532593%)" offset="0.277344"/><stop stop-opacity="1" stop-color="rgb(5.064392%, 29.173279%, 61.952209%)" offset="0.28125"/><stop stop-opacity="1" stop-color="rgb(5.096436%, 29.371643%, 62.3703%)" offset="0.285156"/><stop stop-opacity="1" stop-color="rgb(5.130005%, 29.570007%, 62.789917%)" offset="0.289062"/><stop stop-opacity="1" stop-color="rgb(5.162048%, 29.768372%, 63.208008%)" offset="0.292969"/><stop stop-opacity="1" stop-color="rgb(5.195618%, 29.966736%, 63.627625%)" offset="0.296875"/><stop stop-opacity="1" stop-color="rgb(5.227661%, 30.163574%, 64.045715%)" offset="0.300781"/><stop stop-opacity="1" stop-color="rgb(5.26123%, 30.361938%, 64.463806%)" offset="0.304688"/><stop stop-opacity="1" stop-color="rgb(5.293274%, 30.560303%, 64.881897%)" offset="0.308594"/><stop stop-opacity="1" stop-color="rgb(5.326843%, 30.758667%, 65.301514%)" offset="0.3125"/><stop stop-opacity="1" stop-color="rgb(5.358887%, 30.957031%, 65.719604%)" offset="0.316406"/><stop stop-opacity="1" stop-color="rgb(5.392456%, 31.155396%, 66.139221%)" offset="0.320313"/><stop stop-opacity="1" stop-color="rgb(5.4245%, 31.35376%, 66.557312%)" offset="0.324219"/><stop stop-opacity="1" stop-color="rgb(5.458069%, 31.552124%, 66.976929%)" offset="0.328125"/><stop stop-opacity="1" stop-color="rgb(5.693054%, 31.938171%, 66.976929%)" offset="0.332031"/><stop stop-opacity="1" stop-color="rgb(5.92804%, 32.324219%, 66.976929%)" offset="0.335938"/><stop stop-opacity="1" stop-color="rgb(6.495667%, 33.021545%, 66.282654%)" offset="0.339844"/><stop stop-opacity="1" stop-color="rgb(7.064819%, 33.718872%, 65.589905%)" offset="0.34375"/><stop stop-opacity="1" stop-color="rgb(7.632446%, 34.414673%, 64.89563%)" offset="0.347656"/><stop stop-opacity="1" stop-color="rgb(8.201599%, 35.112%, 64.202881%)" offset="0.351563"/><stop stop-opacity="1" stop-color="rgb(8.769226%, 35.809326%, 63.508606%)" offset="0.355469"/><stop stop-opacity="1" stop-color="rgb(9.338379%, 36.506653%, 62.815857%)" offset="0.359375"/><stop stop-opacity="1" stop-color="rgb(9.906006%, 37.203979%, 62.121582%)" offset="0.363281"/><stop stop-opacity="1" stop-color="rgb(10.475159%, 37.901306%, 61.428833%)" offset="0.367188"/><stop stop-opacity="1" stop-color="rgb(11.042786%, 38.597107%, 60.734558%)" offset="0.371094"/><stop stop-opacity="1" stop-color="rgb(11.611938%, 39.294434%, 60.041809%)" offset="0.375"/><stop stop-opacity="1" stop-color="rgb(12.179565%, 39.99176%, 59.347534%)" offset="0.378906"/><stop stop-opacity="1" stop-color="rgb(12.748718%, 40.689087%, 58.654785%)" offset="0.382813"/><stop stop-opacity="1" stop-color="rgb(13.316345%, 41.384888%, 57.96051%)" offset="0.386719"/><stop stop-opacity="1" stop-color="rgb(13.885498%, 42.082214%, 57.267761%)" offset="0.390625"/><stop stop-opacity="1" stop-color="rgb(14.453125%, 42.779541%, 56.573486%)" offset="0.394531"/><stop stop-opacity="1" stop-color="rgb(15.022278%, 43.476868%, 55.880737%)" offset="0.398438"/><stop stop-opacity="1" stop-color="rgb(15.589905%, 44.174194%, 55.186462%)" offset="0.402344"/><stop stop-opacity="1" stop-color="rgb(16.159058%, 44.871521%, 54.493713%)" offset="0.40625"/><stop stop-opacity="1" stop-color="rgb(16.726685%, 45.567322%, 53.799438%)" offset="0.410156"/><stop stop-opacity="1" stop-color="rgb(17.295837%, 46.264648%, 53.106689%)" offset="0.414063"/><stop stop-opacity="1" stop-color="rgb(17.863464%, 46.961975%, 52.412415%)" offset="0.417969"/><stop stop-opacity="1" stop-color="rgb(18.432617%, 47.659302%, 51.719666%)" offset="0.421875"/><stop stop-opacity="1" stop-color="rgb(19.000244%, 48.356628%, 51.025391%)" offset="0.425781"/><stop stop-opacity="1" stop-color="rgb(19.569397%, 49.053955%, 50.332642%)" offset="0.429688"/><stop stop-opacity="1" stop-color="rgb(20.137024%, 49.749756%, 49.638367%)" offset="0.433594"/><stop stop-opacity="1" stop-color="rgb(20.706177%, 50.447083%, 48.945618%)" offset="0.4375"/><stop stop-opacity="1" stop-color="rgb(21.273804%, 51.144409%, 48.251343%)" offset="0.441406"/><stop stop-opacity="1" stop-color="rgb(21.842957%, 51.841736%, 47.558594%)" offset="0.445313"/><stop stop-opacity="1" stop-color="rgb(22.410583%, 52.537537%, 46.864319%)" offset="0.449219"/><stop stop-opacity="1" stop-color="rgb(22.979736%, 53.234863%, 46.17157%)" offset="0.453125"/><stop stop-opacity="1" stop-color="rgb(23.547363%, 53.93219%, 45.477295%)" offset="0.457031"/><stop stop-opacity="1" stop-color="rgb(24.116516%, 54.629517%, 44.784546%)" offset="0.460938"/><stop stop-opacity="1" stop-color="rgb(24.684143%, 55.326843%, 44.090271%)" offset="0.464844"/><stop stop-opacity="1" stop-color="rgb(25.253296%, 56.02417%, 43.397522%)" offset="0.46875"/><stop stop-opacity="1" stop-color="rgb(25.820923%, 56.719971%, 42.703247%)" offset="0.472656"/><stop stop-opacity="1" stop-color="rgb(26.390076%, 57.417297%, 42.010498%)" offset="0.476563"/><stop stop-opacity="1" stop-color="rgb(26.957703%, 58.114624%, 41.316223%)" offset="0.480469"/><stop stop-opacity="1" stop-color="rgb(27.526855%, 58.811951%, 40.621948%)" offset="0.484375"/><stop stop-opacity="1" stop-color="rgb(28.094482%, 59.507751%, 39.927673%)" offset="0.488281"/><stop stop-opacity="1" stop-color="rgb(28.663635%, 60.205078%, 39.234924%)" offset="0.492188"/><stop stop-opacity="1" stop-color="rgb(29.231262%, 60.902405%, 38.540649%)" offset="0.496094"/><stop stop-opacity="1" stop-color="rgb(29.800415%, 61.599731%, 37.8479%)" offset="0.5"/><stop stop-opacity="1" stop-color="rgb(30.368042%, 62.297058%, 37.153625%)" offset="0.503906"/><stop stop-opacity="1" stop-color="rgb(30.937195%, 62.994385%, 36.460876%)" offset="0.507813"/><stop stop-opacity="1" stop-color="rgb(31.504822%, 63.690186%, 35.766602%)" offset="0.511719"/><stop stop-opacity="1" stop-color="rgb(32.073975%, 64.387512%, 35.073853%)" offset="0.515625"/><stop stop-opacity="1" stop-color="rgb(32.641602%, 65.084839%, 34.379578%)" offset="0.519531"/><stop stop-opacity="1" stop-color="rgb(33.210754%, 65.782166%, 33.686829%)" offset="0.523438"/><stop stop-opacity="1" stop-color="rgb(33.778381%, 66.479492%, 32.992554%)" offset="0.527344"/><stop stop-opacity="1" stop-color="rgb(34.347534%, 67.176819%, 32.299805%)" offset="0.53125"/><stop stop-opacity="1" stop-color="rgb(34.915161%, 67.87262%, 31.60553%)" offset="0.535156"/><stop stop-opacity="1" stop-color="rgb(35.484314%, 68.569946%, 30.912781%)" offset="0.539062"/><stop stop-opacity="1" stop-color="rgb(36.051941%, 69.267273%, 30.218506%)" offset="0.542969"/><stop stop-opacity="1" stop-color="rgb(36.621094%, 69.9646%, 29.525757%)" offset="0.546875"/><stop stop-opacity="1" stop-color="rgb(37.188721%, 70.6604%, 28.831482%)" offset="0.550781"/><stop stop-opacity="1" stop-color="rgb(37.757874%, 71.357727%, 28.138733%)" offset="0.554688"/><stop stop-opacity="1" stop-color="rgb(38.3255%, 72.055054%, 27.444458%)" offset="0.558594"/><stop stop-opacity="1" stop-color="rgb(38.894653%, 72.75238%, 26.751709%)" offset="0.5625"/><stop stop-opacity="1" stop-color="rgb(39.46228%, 73.449707%, 26.057434%)" offset="0.566406"/><stop stop-opacity="1" stop-color="rgb(40.031433%, 74.147034%, 25.364685%)" offset="0.570312"/><stop stop-opacity="1" stop-color="rgb(40.59906%, 74.842834%, 24.67041%)" offset="0.574219"/><stop stop-opacity="1" stop-color="rgb(41.168213%, 75.540161%, 23.977661%)" offset="0.578125"/><stop stop-opacity="1" stop-color="rgb(41.73584%, 76.237488%, 23.283386%)" offset="0.582031"/><stop stop-opacity="1" stop-color="rgb(42.304993%, 76.934814%, 22.590637%)" offset="0.585937"/><stop stop-opacity="1" stop-color="rgb(42.87262%, 77.632141%, 21.896362%)" offset="0.589844"/><stop stop-opacity="1" stop-color="rgb(43.441772%, 78.329468%, 21.203613%)" offset="0.59375"/><stop stop-opacity="1" stop-color="rgb(44.009399%, 79.025269%, 20.509338%)" offset="0.597656"/><stop stop-opacity="1" stop-color="rgb(44.578552%, 79.722595%, 19.816589%)" offset="0.601562"/><stop stop-opacity="1" stop-color="rgb(45.146179%, 80.419922%, 19.122314%)" offset="0.605469"/><stop stop-opacity="1" stop-color="rgb(45.715332%, 81.117249%, 18.429565%)" offset="0.609375"/><stop stop-opacity="1" stop-color="rgb(46.282959%, 81.813049%, 17.735291%)" offset="0.613281"/><stop stop-opacity="1" stop-color="rgb(46.852112%, 82.510376%, 17.042542%)" offset="0.617188"/><stop stop-opacity="1" stop-color="rgb(47.419739%, 83.207703%, 16.348267%)" offset="0.621094"/><stop stop-opacity="1" stop-color="rgb(47.988892%, 83.905029%, 15.655518%)" offset="0.625"/><stop stop-opacity="1" stop-color="rgb(48.556519%, 84.602356%, 14.961243%)" offset="0.628906"/><stop stop-opacity="1" stop-color="rgb(49.125671%, 85.299683%, 14.268494%)" offset="0.632812"/><stop stop-opacity="1" stop-color="rgb(49.693298%, 85.995483%, 13.574219%)" offset="0.636719"/><stop stop-opacity="1" stop-color="rgb(50.262451%, 86.69281%, 12.88147%)" offset="0.640625"/><stop stop-opacity="1" stop-color="rgb(50.830078%, 87.390137%, 12.187195%)" offset="0.644531"/><stop stop-opacity="1" stop-color="rgb(51.399231%, 88.087463%, 11.494446%)" offset="0.648438"/><stop stop-opacity="1" stop-color="rgb(51.966858%, 88.78479%, 10.800171%)" offset="0.652344"/><stop stop-opacity="1" stop-color="rgb(52.536011%, 89.482117%, 10.107422%)" offset="0.65625"/><stop stop-opacity="1" stop-color="rgb(53.103638%, 90.177917%, 9.413147%)" offset="0.660156"/><stop stop-opacity="1" stop-color="rgb(53.672791%, 90.875244%, 8.720398%)" offset="0.664062"/><stop stop-opacity="1" stop-color="rgb(53.965759%, 91.200256%, 8.563232%)" offset="0.667969"/><stop stop-opacity="1" stop-color="rgb(54.260254%, 91.525269%, 8.407593%)" offset="0.671875"/><stop stop-opacity="1" stop-color="rgb(54.388428%, 91.625977%, 8.573914%)" offset="0.679687"/><stop stop-opacity="1" stop-color="rgb(54.646301%, 91.827393%, 8.906555%)" offset="0.6875"/><stop stop-opacity="1" stop-color="rgb(54.904175%, 92.028809%, 9.239197%)" offset="0.695312"/><stop stop-opacity="1" stop-color="rgb(55.163574%, 92.23175%, 9.573364%)" offset="0.703125"/><stop stop-opacity="1" stop-color="rgb(55.421448%, 92.433167%, 9.906006%)" offset="0.710937"/><stop stop-opacity="1" stop-color="rgb(55.679321%, 92.634583%, 10.238647%)" offset="0.71875"/><stop stop-opacity="1" stop-color="rgb(55.937195%, 92.835999%, 10.572815%)" offset="0.726562"/><stop stop-opacity="1" stop-color="rgb(56.195068%, 93.03894%, 10.905457%)" offset="0.734375"/><stop stop-opacity="1" stop-color="rgb(56.452942%, 93.240356%, 11.238098%)" offset="0.742188"/><stop stop-opacity="1" stop-color="rgb(56.710815%, 93.441772%, 11.572266%)" offset="0.75"/><stop stop-opacity="1" stop-color="rgb(56.968689%, 93.643188%, 11.904907%)" offset="0.757812"/><stop stop-opacity="1" stop-color="rgb(57.228088%, 93.844604%, 12.237549%)" offset="0.765625"/><stop stop-opacity="1" stop-color="rgb(57.485962%, 94.047546%, 12.571716%)" offset="0.773438"/><stop stop-opacity="1" stop-color="rgb(57.743835%, 94.248962%, 12.904358%)" offset="0.78125"/><stop stop-opacity="1" stop-color="rgb(58.001709%, 94.450378%, 13.237%)" offset="0.789062"/><stop stop-opacity="1" stop-color="rgb(58.259583%, 94.651794%, 13.571167%)" offset="0.796875"/><stop stop-opacity="1" stop-color="rgb(58.517456%, 94.854736%, 13.903809%)" offset="0.804687"/><stop stop-opacity="1" stop-color="rgb(58.77533%, 95.056152%, 14.23645%)" offset="0.8125"/><stop stop-opacity="1" stop-color="rgb(59.033203%, 95.257568%, 14.570618%)" offset="0.820312"/><stop stop-opacity="1" stop-color="rgb(59.292603%, 95.458984%, 14.903259%)" offset="0.828125"/><stop stop-opacity="1" stop-color="rgb(59.550476%, 95.661926%, 15.235901%)" offset="0.835938"/><stop stop-opacity="1" stop-color="rgb(59.80835%, 95.863342%, 15.570068%)" offset="0.84375"/><stop stop-opacity="1" stop-color="rgb(60.066223%, 96.064758%, 15.90271%)" offset="0.851562"/><stop stop-opacity="1" stop-color="rgb(60.324097%, 96.266174%, 16.235352%)" offset="0.859375"/><stop stop-opacity="1" stop-color="rgb(60.58197%, 96.46759%, 16.569519%)" offset="0.867188"/><stop stop-opacity="1" stop-color="rgb(60.839844%, 96.670532%, 16.902161%)" offset="0.875"/><stop stop-opacity="1" stop-color="rgb(61.099243%, 96.871948%, 17.234802%)" offset="0.882812"/><stop stop-opacity="1" stop-color="rgb(61.357117%, 97.073364%, 17.56897%)" offset="0.890625"/><stop stop-opacity="1" stop-color="rgb(61.61499%, 97.27478%, 17.901611%)" offset="0.898438"/><stop stop-opacity="1" stop-color="rgb(61.872864%, 97.477722%, 18.234253%)" offset="0.90625"/><stop stop-opacity="1" stop-color="rgb(62.130737%, 97.679138%, 18.56842%)" offset="0.914062"/><stop stop-opacity="1" stop-color="rgb(62.388611%, 97.880554%, 18.901062%)" offset="0.921875"/><stop stop-opacity="1" stop-color="rgb(62.646484%, 98.08197%, 19.233704%)" offset="0.929687"/><stop stop-opacity="1" stop-color="rgb(62.904358%, 98.283386%, 19.567871%)" offset="0.9375"/><stop stop-opacity="1" stop-color="rgb(63.163757%, 98.486328%, 19.900513%)" offset="0.945313"/><stop stop-opacity="1" stop-color="rgb(63.421631%, 98.687744%, 20.233154%)" offset="0.953125"/><stop stop-opacity="1" stop-color="rgb(63.679504%, 98.88916%, 20.567322%)" offset="0.960938"/><stop stop-opacity="1" stop-color="rgb(63.937378%, 99.090576%, 20.899963%)" offset="0.96875"/><stop stop-opacity="1" stop-color="rgb(64.195251%, 99.293518%, 21.232605%)" offset="0.976562"/><stop stop-opacity="1" stop-color="rgb(64.453125%, 99.494934%, 21.566772%)" offset="0.984375"/><stop stop-opacity="1" stop-color="rgb(64.710999%, 99.69635%, 21.899414%)" offset="0.992188"/><stop stop-opacity="1" stop-color="rgb(64.968872%, 99.897766%, 22.232056%)" offset="1"/></linearGradient><clipPath id="44deab71e8"><path d="M 49.917969 53.863281 L 325.167969 53.863281 L 325.167969 320.863281 L 49.917969 320.863281 Z M 49.917969 53.863281 " clip-rule="nonzero"/></clipPath><clipPath id="c1cba6bb01"><path d="M 49.917969 128.863281 L 49.917969 246.136719 C 49.917969 287.558594 83.496094 321.136719 124.917969 321.136719 L 250.082031 321.136719 C 291.503906 321.136719 325.082031 287.558594 325.082031 246.136719 L 325.082031 128.863281 C 325.082031 87.441406 291.503906 53.863281 250.082031 53.863281 L 124.917969 53.863281 C 83.496094 53.863281 49.917969 87.441406 49.917969 128.863281 Z M 49.917969 128.863281 " clip-rule="nonzero"/></clipPath><clipPath id="8fd8e9387b"><path d="M 181 138 L 193 138 L 193 153 L 181 153 Z M 181 138 " clip-rule="nonzero"/></clipPath><clipPath id="a5280f54da"><path d="M 49.917969 128.863281 L 49.917969 246.136719 C 49.917969 287.558594 83.496094 321.136719 124.917969 321.136719 L 250.082031 321.136719 C 291.503906 321.136719 325.082031 287.558594 325.082031 246.136719 L 325.082031 128.863281 C 325.082031 87.441406 291.503906 53.863281 250.082031 53.863281 L 124.917969 53.863281 C 83.496094 53.863281 49.917969 87.441406 49.917969 128.863281 Z M 49.917969 128.863281 " clip-rule="nonzero"/></clipPath><clipPath id="c68ac4457a"><path d="M 184 156 L 191 156 L 191 161 L 184 161 Z M 184 156 " clip-rule="nonzero"/></clipPath><clipPath id="880b3ede9b"><path d="M 49.917969 128.863281 L 49.917969 246.136719 C 49.917969 287.558594 83.496094 321.136719 124.917969 321.136719 L 250.082031 321.136719 C 291.503906 321.136719 325.082031 287.558594 325.082031 246.136719 L 325.082031 128.863281 C 325.082031 87.441406 291.503906 53.863281 250.082031 53.863281 L 124.917969 53.863281 C 83.496094 53.863281 49.917969 87.441406 49.917969 128.863281 Z M 49.917969 128.863281 " clip-rule="nonzero"/></clipPath><clipPath id="7795b37849"><path d="M 164 161 L 210 161 L 210 196 L 164 196 Z M 164 161 " clip-rule="nonzero"/></clipPath><clipPath id="522b3f9855"><path d="M 49.917969 128.863281 L 49.917969 246.136719 C 49.917969 287.558594 83.496094 321.136719 124.917969 321.136719 L 250.082031 321.136719 C 291.503906 321.136719 325.082031 287.558594 325.082031 246.136719 L 325.082031 128.863281 C 325.082031 87.441406 291.503906 53.863281 250.082031 53.863281 L 124.917969 53.863281 C 83.496094 53.863281 49.917969 87.441406 49.917969 128.863281 Z M 49.917969 128.863281 " clip-rule="nonzero"/></clipPath><clipPath id="7f9a989991"><path d="M 145 172 L 150 172 L 150 184 L 145 184 Z M 145 172 " clip-rule="nonzero"/></clipPath><clipPath id="7ff655aff3"><path d="M 49.917969 128.863281 L 49.917969 246.136719 C 49.917969 287.558594 83.496094 321.136719 124.917969 321.136719 L 250.082031 321.136719 C 291.503906 321.136719 325.082031 287.558594 325.082031 246.136719 L 325.082031 128.863281 C 325.082031 87.441406 291.503906 53.863281 250.082031 53.863281 L 124.917969 53.863281 C 83.496094 53.863281 49.917969 87.441406 49.917969 128.863281 Z M 49.917969 128.863281 " clip-rule="nonzero"/></clipPath><clipPath id="4ac3149500"><path d="M 218 175 L 232 175 L 232 190 L 218 190 Z M 218 175 " clip-rule="nonzero"/></clipPath><clipPath id="bc94e0db0e"><path d="M 49.917969 128.863281 L 49.917969 246.136719 C 49.917969 287.558594 83.496094 321.136719 124.917969 321.136719 L 250.082031 321.136719 C 291.503906 321.136719 325.082031 287.558594 325.082031 246.136719 L 325.082031 128.863281 C 325.082031 87.441406 291.503906 53.863281 250.082031 53.863281 L 124.917969 53.863281 C 83.496094 53.863281 49.917969 87.441406 49.917969 128.863281 Z M 49.917969 128.863281 " clip-rule="nonzero"/></clipPath><clipPath id="53c8f64f52"><path d="M 145 177 L 155 177 L 155 191 L 145 191 Z M 145 177 " clip-rule="nonzero"/></clipPath><clipPath id="3e7f1ec26f"><path d="M 49.917969 128.863281 L 49.917969 246.136719 C 49.917969 287.558594 83.496094 321.136719 124.917969 321.136719 L 250.082031 321.136719 C 291.503906 321.136719 325.082031 287.558594 325.082031 246.136719 L 325.082031 128.863281 C 325.082031 87.441406 291.503906 53.863281 250.082031 53.863281 L 124.917969 53.863281 C 83.496094 53.863281 49.917969 87.441406 49.917969 128.863281 Z M 49.917969 128.863281 " clip-rule="nonzero"/></clipPath><clipPath id="900a0265ea"><path d="M 215 184 L 220 184 L 220 190 L 215 190 Z M 215 184 " clip-rule="nonzero"/></clipPath><clipPath id="4716f25093"><path d="M 49.917969 128.863281 L 49.917969 246.136719 C 49.917969 287.558594 83.496094 321.136719 124.917969 321.136719 L 250.082031 321.136719 C 291.503906 321.136719 325.082031 287.558594 325.082031 246.136719 L 325.082031 128.863281 C 325.082031 87.441406 291.503906 53.863281 250.082031 53.863281 L 124.917969 53.863281 C 83.496094 53.863281 49.917969 87.441406 49.917969 128.863281 Z M 49.917969 128.863281 " clip-rule="nonzero"/></clipPath><clipPath id="af8b0933fa"><path d="M 174 194 L 183 194 L 183 198 L 174 198 Z M 174 194 " clip-rule="nonzero"/></clipPath><clipPath id="8c9167c788"><path d="M 49.917969 128.863281 L 49.917969 246.136719 C 49.917969 287.558594 83.496094 321.136719 124.917969 321.136719 L 250.082031 321.136719 C 291.503906 321.136719 325.082031 287.558594 325.082031 246.136719 L 325.082031 128.863281 C 325.082031 87.441406 291.503906 53.863281 250.082031 53.863281 L 124.917969 53.863281 C 83.496094 53.863281 49.917969 87.441406 49.917969 128.863281 Z M 49.917969 128.863281 " clip-rule="nonzero"/></clipPath><clipPath id="e90126c1f3"><path d="M 155 195 L 184 195 L 184 215 L 155 215 Z M 155 195 " clip-rule="nonzero"/></clipPath><clipPath id="28fa1d429a"><path d="M 49.917969 128.863281 L 49.917969 246.136719 C 49.917969 287.558594 83.496094 321.136719 124.917969 321.136719 L 250.082031 321.136719 C 291.503906 321.136719 325.082031 287.558594 325.082031 246.136719 L 325.082031 128.863281 C 325.082031 87.441406 291.503906 53.863281 250.082031 53.863281 L 124.917969 53.863281 C 83.496094 53.863281 49.917969 87.441406 49.917969 128.863281 Z M 49.917969 128.863281 " clip-rule="nonzero"/></clipPath><clipPath id="b11284ca4b"><path d="M 184 195 L 201 195 L 201 203 L 184 203 Z M 184 195 " clip-rule="nonzero"/></clipPath><clipPath id="43ece8101a"><path d="M 49.917969 128.863281 L 49.917969 246.136719 C 49.917969 287.558594 83.496094 321.136719 124.917969 321.136719 L 250.082031 321.136719 C 291.503906 321.136719 325.082031 287.558594 325.082031 246.136719 L 325.082031 128.863281 C 325.082031 87.441406 291.503906 53.863281 250.082031 53.863281 L 124.917969 53.863281 C 83.496094 53.863281 49.917969 87.441406 49.917969 128.863281 Z M 49.917969 128.863281 " clip-rule="nonzero"/></clipPath><clipPath id="429056d235"><path d="M 219 195 L 232 195 L 232 207 L 219 207 Z M 219 195 " clip-rule="nonzero"/></clipPath><clipPath id="36c529893e"><path d="M 49.917969 128.863281 L 49.917969 246.136719 C 49.917969 287.558594 83.496094 321.136719 124.917969 321.136719 L 250.082031 321.136719 C 291.503906 321.136719 325.082031 287.558594 325.082031 246.136719 L 325.082031 128.863281 C 325.082031 87.441406 291.503906 53.863281 250.082031 53.863281 L 124.917969 53.863281 C 83.496094 53.863281 49.917969 87.441406 49.917969 128.863281 Z M 49.917969 128.863281 " clip-rule="nonzero"/></clipPath><clipPath id="0bb2a746f6"><path d="M 190 197 L 222 197 L 222 217 L 190 217 Z M 190 197 " clip-rule="nonzero"/></clipPath><clipPath id="b5842d88df"><path d="M 49.917969 128.863281 L 49.917969 246.136719 C 49.917969 287.558594 83.496094 321.136719 124.917969 321.136719 L 250.082031 321.136719 C 291.503906 321.136719 325.082031 287.558594 325.082031 246.136719 L 325.082031 128.863281 C 325.082031 87.441406 291.503906 53.863281 250.082031 53.863281 L 124.917969 53.863281 C 83.496094 53.863281 49.917969 87.441406 49.917969 128.863281 Z M 49.917969 128.863281 " clip-rule="nonzero"/></clipPath><clipPath id="9f809a0c0f"><path d="M 146 202 L 155 202 L 155 211 L 146 211 Z M 146 202 " clip-rule="nonzero"/></clipPath><clipPath id="fcc446d1a6"><path d="M 49.917969 128.863281 L 49.917969 246.136719 C 49.917969 287.558594 83.496094 321.136719 124.917969 321.136719 L 250.082031 321.136719 C 291.503906 321.136719 325.082031 287.558594 325.082031 246.136719 L 325.082031 128.863281 C 325.082031 87.441406 291.503906 53.863281 250.082031 53.863281 L 124.917969 53.863281 C 83.496094 53.863281 49.917969 87.441406 49.917969 128.863281 Z M 49.917969 128.863281 " clip-rule="nonzero"/></clipPath><clipPath id="f23148aa28"><path d="M 223 206 L 230 206 L 230 218 L 223 218 Z M 223 206 " clip-rule="nonzero"/></clipPath><clipPath id="1cb2e43bc8"><path d="M 49.917969 128.863281 L 49.917969 246.136719 C 49.917969 287.558594 83.496094 321.136719 124.917969 321.136719 L 250.082031 321.136719 C 291.503906 321.136719 325.082031 287.558594 325.082031 246.136719 L 325.082031 128.863281 C 325.082031 87.441406 291.503906 53.863281 250.082031 53.863281 L 124.917969 53.863281 C 83.496094 53.863281 49.917969 87.441406 49.917969 128.863281 Z M 49.917969 128.863281 " clip-rule="nonzero"/></clipPath><clipPath id="655345777b"><path d="M 178 207 L 193 207 L 193 218 L 178 218 Z M 178 207 " clip-rule="nonzero"/></clipPath><clipPath id="9dcf5ac2be"><path d="M 49.917969 128.863281 L 49.917969 246.136719 C 49.917969 287.558594 83.496094 321.136719 124.917969 321.136719 L 250.082031 321.136719 C 291.503906 321.136719 325.082031 287.558594 325.082031 246.136719 L 325.082031 128.863281 C 325.082031 87.441406 291.503906 53.863281 250.082031 53.863281 L 124.917969 53.863281 C 83.496094 53.863281 49.917969 87.441406 49.917969 128.863281 Z M 49.917969 128.863281 " clip-rule="nonzero"/></clipPath><clipPath id="9fdc9ee392"><path d="M 150 213 L 169 213 L 169 230 L 150 230 Z M 150 213 " clip-rule="nonzero"/></clipPath><clipPath id="38146da69c"><path d="M 49.917969 128.863281 L 49.917969 246.136719 C 49.917969 287.558594 83.496094 321.136719 124.917969 321.136719 L 250.082031 321.136719 C 291.503906 321.136719 325.082031 287.558594 325.082031 246.136719 L 325.082031 128.863281 C 325.082031 87.441406 291.503906 53.863281 250.082031 53.863281 L 124.917969 53.863281 C 83.496094 53.863281 49.917969 87.441406 49.917969 128.863281 Z M 49.917969 128.863281 " clip-rule="nonzero"/></clipPath><clipPath id="ec66e1a00b"><path d="M 177 213 L 222 213 L 222 236 L 177 236 Z M 177 213 " clip-rule="nonzero"/></clipPath><clipPath id="f1cd3d8ad8"><path d="M 49.917969 128.863281 L 49.917969 246.136719 C 49.917969 287.558594 83.496094 321.136719 124.917969 321.136719 L 250.082031 321.136719 C 291.503906 321.136719 325.082031 287.558594 325.082031 246.136719 L 325.082031 128.863281 C 325.082031 87.441406 291.503906 53.863281 250.082031 53.863281 L 124.917969 53.863281 C 83.496094 53.863281 49.917969 87.441406 49.917969 128.863281 Z M 49.917969 128.863281 " clip-rule="nonzero"/></clipPath><clipPath id="c9629a266f"><path d="M 168 214 L 179 214 L 179 233 L 168 233 Z M 168 214 " clip-rule="nonzero"/></clipPath><clipPath id="fb90d9e643"><path d="M 49.917969 128.863281 L 49.917969 246.136719 C 49.917969 287.558594 83.496094 321.136719 124.917969 321.136719 L 250.082031 321.136719 C 291.503906 321.136719 325.082031 287.558594 325.082031 246.136719 L 325.082031 128.863281 C 325.082031 87.441406 291.503906 53.863281 250.082031 53.863281 L 124.917969 53.863281 C 83.496094 53.863281 49.917969 87.441406 49.917969 128.863281 Z M 49.917969 128.863281 " clip-rule="nonzero"/></clipPath><clipPath id="077dc1b6fa"><path d="M 188 224 L 214 224 L 214 236 L 188 236 Z M 188 224 " clip-rule="nonzero"/></clipPath><clipPath id="f69b16fd75"><path d="M 49.917969 128.863281 L 49.917969 246.136719 C 49.917969 287.558594 83.496094 321.136719 124.917969 321.136719 L 250.082031 321.136719 C 291.503906 321.136719 325.082031 287.558594 325.082031 246.136719 L 325.082031 128.863281 C 325.082031 87.441406 291.503906 53.863281 250.082031 53.863281 L 124.917969 53.863281 C 83.496094 53.863281 49.917969 87.441406 49.917969 128.863281 Z M 49.917969 128.863281 " clip-rule="nonzero"/></clipPath><clipPath id="cfea83a7f7"><path d="M 135.480469 133.796875 L 239.519531 133.796875 L 239.519531 241.492188 L 135.480469 241.492188 Z M 135.480469 133.796875 " clip-rule="nonzero"/></clipPath><clipPath id="d21d4f7995"><path d="M 187.5 133.796875 C 158.769531 133.796875 135.480469 157.839844 135.480469 187.5 C 135.480469 217.160156 158.769531 241.203125 187.5 241.203125 C 216.230469 241.203125 239.519531 217.160156 239.519531 187.5 C 239.519531 157.839844 216.230469 133.796875 187.5 133.796875 Z M 187.5 133.796875 " clip-rule="nonzero"/></clipPath></defs><g clip-path="url(#851eb8e286)"><g clip-path="url(#2fd828cce9)"><path fill="#ffffff" d="M 16.875 16.875 L 358.125 16.875 L 358.125 358.125 L 16.875 358.125 Z M 16.875 16.875 " fill-opacity="1" fill-rule="nonzero"/></g></g><g clip-path="url(#07c4cf2182)"><g clip-path="url(#a1df16b99b)"><path fill="url(#5f4dab138b)" d="M 53.433594 55.476562 L 53.433594 319.523438 L 321.5625 319.523438 L 321.5625 55.476562 Z M 53.433594 55.476562 " fill-rule="nonzero"/></g></g><g clip-path="url(#44deab71e8)"><g clip-path="url(#c1cba6bb01)"><path fill="#ffffff" d="M 1.371094 163.328125 L 1.371094 347.96875 L 370.652344 347.96875 L 370.652344 -21.3125 L 1.371094 -21.3125 Z M 193.335938 56.890625 C 202.195312 57.175781 206.28125 57.625 213.535156 59.160156 C 224.949219 61.570312 234.1875 64.6875 243.660156 69.292969 C 259.5625 77.042969 274.632812 89 287.015625 103.671875 C 301.238281 120.515625 310.332031 139.230469 314.65625 160.445312 C 316.476562 169.421875 317.609375 181.710938 316.714844 182.9375 C 316.453125 183.292969 315.863281 183.410156 313.640625 183.597656 C 312.128906 183.71875 310.640625 183.765625 310.308594 183.671875 C 309.269531 183.410156 308.988281 182.417969 308.632812 177.929688 C 306.835938 155.839844 300.480469 137.171875 288.882812 119.832031 C 286.871094 116.832031 284.839844 114.136719 284.320312 113.785156 C 283.992188 113.570312 283.445312 113.925781 278.839844 117.492188 C 276.667969 119.171875 274.800781 120.636719 274.65625 120.707031 C 274.28125 120.964844 274.679688 121.699219 277.089844 125.171875 C 280.304688 129.753906 283.398438 134.976562 283.683594 136.300781 C 283.941406 137.480469 283.753906 138.519531 283.117188 139.511719 C 282.574219 140.316406 281.109375 141.191406 274.136719 144.898438 C 270.757812 146.695312 267.6875 148.371094 267.332031 148.609375 C 266.554688 149.152344 266.53125 148.988281 268.230469 153.050781 C 272.71875 163.753906 274.824219 174.90625 274.824219 187.78125 C 274.824219 196.003906 274.351562 200.375 272.578125 208.523438 C 272.058594 210.910156 271.65625 212.894531 271.703125 212.945312 C 271.847656 213.0625 275.886719 214.480469 280.164062 215.898438 C 286.023438 217.859375 288.667969 218.898438 289.472656 219.511719 C 289.898438 219.867188 290.226562 220.457031 290.441406 221.210938 C 290.820312 222.726562 290.535156 223.90625 288.785156 228.300781 C 285.457031 236.664062 280.1875 245.878906 274.257812 253.699219 C 270.074219 259.226562 268.46875 260.527344 266.292969 260.195312 C 265.113281 260.03125 264.523438 259.582031 256.417969 252.753906 C 238.605469 237.726562 234.824219 234.5625 234.683594 234.5625 C 234.585938 234.5625 233.429688 235.601562 232.105469 236.878906 C 229.507812 239.40625 225.988281 242.265625 222.890625 244.367188 L 220.929688 245.714844 L 223.8125 250.816406 C 228.421875 258.992188 229.105469 260.386719 229.390625 261.804688 C 229.71875 263.691406 229.367188 264.851562 228.183594 265.726562 C 223.484375 269.128906 209.613281 273.875 200.542969 275.199219 C 197.351562 275.671875 188.65625 276.144531 183.484375 276.144531 L 180.71875 276.144531 L 180.578125 276.898438 C 180.507812 277.324219 180.082031 280.539062 179.632812 284.058594 C 178.285156 294.265625 178.027344 295.257812 176.207031 296.320312 C 175.121094 296.960938 172.992188 296.933594 168.410156 296.25 C 160.683594 295.046875 152.957031 292.988281 145.847656 290.203125 C 142.113281 288.761719 133.277344 284.390625 130.015625 282.40625 C 123.449219 278.390625 116.054688 272.859375 114.894531 271.089844 C 114.519531 270.496094 114.519531 270.425781 115.109375 269.410156 C 115.984375 267.921875 118.226562 265.347656 118.792969 265.15625 C 119.550781 264.921875 120.96875 265.75 124.347656 268.371094 C 135.945312 277.421875 148.730469 283.539062 162.503906 286.65625 C 166.875 287.648438 170.230469 288.121094 170.511719 287.816406 C 170.726562 287.601562 171.648438 281.320312 173.488281 267.046875 C 175 255.542969 175.074219 254.878906 174.953125 254.550781 C 174.882812 254.382812 174.246094 254.171875 173.441406 254.101562 C 171.765625 253.910156 168.269531 253.039062 164.511719 251.808594 C 154.613281 248.644531 146.390625 243.492188 138.261719 235.386719 C 132.167969 229.363281 128.339844 224.09375 124.796875 216.960938 C 123.707031 214.761719 122.8125 212.824219 122.8125 212.636719 C 122.8125 212.398438 122.644531 212.351562 122.292969 212.449219 C 119.667969 213.179688 108.515625 215.921875 106.792969 216.25 C 104.21875 216.746094 103.199219 216.558594 102.042969 215.378906 C 100.910156 214.21875 99.726562 210.039062 98.476562 202.832031 C 98.121094 200.777344 97.742188 199.003906 97.625 198.886719 C 97.507812 198.792969 96.46875 198.792969 95.285156 198.910156 C 89.402344 199.5 85.078125 199.855469 82.292969 199.972656 C 79.339844 200.113281 79.195312 200.089844 78.394531 199.570312 C 77.921875 199.238281 77.304688 198.484375 76.976562 197.824219 L 76.386719 196.640625 L 76.386719 187.191406 C 76.410156 174.976562 76.882812 170.488281 79.125 160.871094 C 81.226562 151.917969 82.433594 149.90625 85.457031 150.285156 C 86.046875 150.355469 90.160156 151.492188 94.578125 152.789062 C 98.996094 154.113281 102.65625 155.175781 102.753906 155.175781 C 102.847656 155.175781 103.222656 154.46875 103.578125 153.59375 C 106.152344 147.570312 110.148438 140.550781 114 135.308594 C 114.800781 134.171875 115.488281 133.203125 115.488281 133.15625 C 115.488281 133.085938 114.566406 132.257812 113.429688 131.3125 C 107.644531 126.421875 103.4375 122.738281 102.445312 121.675781 C 101.382812 120.539062 101.3125 120.398438 101.3125 119.148438 C 101.3125 118.320312 101.476562 117.492188 101.757812 116.949219 C 102.824219 114.847656 112.011719 105.726562 117.375 101.425781 C 124.441406 95.78125 134.386719 89.496094 136.277344 89.496094 C 137.011719 89.496094 137.742188 90.347656 138.828125 92.542969 C 140.507812 95.875 140.339844 96.207031 135.710938 98.898438 C 134.152344 99.796875 132.851562 100.625 132.804688 100.765625 C 132.710938 101.046875 134.53125 103.765625 137.578125 107.875 C 139.089844 109.933594 139.84375 110.757812 140.199219 110.757812 C 140.460938 110.757812 141.570312 110.261719 142.679688 109.671875 C 149.816406 105.820312 155.484375 103.53125 162.503906 101.710938 C 170.773438 99.535156 178.285156 98.640625 186.957031 98.734375 L 191.683594 98.804688 L 191.871094 97.386719 C 192.601562 92.285156 194.234375 81.910156 194.421875 81.179688 C 194.707031 80.117188 195.605469 78.980469 196.597656 78.460938 C 197.589844 77.964844 200.234375 78.15625 205.90625 79.101562 C 223.742188 82.101562 239.902344 89.378906 253.84375 100.625 C 257.386719 103.503906 258.898438 105.089844 258.921875 105.964844 C 258.96875 107.121094 258.851562 108.019531 258.640625 108.46875 C 258.238281 109.175781 255.6875 112.152344 251.054688 117.234375 L 246.542969 122.148438 L 250.488281 126.070312 C 254.597656 130.132812 255.261719 130.984375 255.023438 131.90625 C 254.859375 132.519531 251.621094 135.636719 250.582031 136.179688 C 249.898438 136.535156 249.851562 136.511719 248.738281 135.636719 C 246.875 134.148438 237.566406 125.242188 236.996094 124.390625 C 236.382812 123.492188 236.289062 122.21875 236.785156 121.082031 C 237.164062 120.1875 238.746094 118.320312 244.441406 112.105469 C 246.800781 109.507812 248.738281 107.308594 248.738281 107.214844 C 248.738281 107.097656 247.960938 106.433594 247.039062 105.726562 C 237.398438 98.519531 226.367188 92.945312 215.59375 89.851562 C 210.464844 88.386719 202.359375 86.660156 202.054688 86.96875 C 201.914062 87.109375 201.367188 90.25 200.519531 95.875 C 199.714844 101.261719 199.007812 104.875 198.652344 105.5625 C 198.535156 105.796875 198.085938 106.246094 197.683594 106.53125 C 196.949219 107.050781 196.832031 107.050781 187.6875 107.097656 C 177.835938 107.144531 176.277344 107.261719 170.085938 108.421875 C 160.847656 110.144531 151.871094 113.640625 143.957031 118.601562 C 140.625 120.683594 139.726562 121.035156 138.214844 120.800781 C 137.386719 120.683594 136.914062 120.421875 136.347656 119.832031 C 135.6875 119.121094 130.726562 112.578125 126.851562 107.285156 C 125.976562 106.082031 125.503906 105.609375 125.292969 105.75 C 123.542969 106.71875 111.46875 117.753906 111.46875 118.367188 C 111.46875 118.699219 113.738281 120.683594 125.292969 130.488281 C 128.8125 133.464844 132.308594 136.441406 133.089844 137.101562 C 133.867188 137.765625 135.050781 138.757812 135.710938 139.300781 L 136.941406 140.292969 L 139.253906 138.140625 C 142.300781 135.355469 146.601562 132.023438 147.144531 132.023438 C 148.304688 132.023438 151.636719 136.179688 151.636719 137.597656 C 151.636719 138.425781 151.800781 138.261719 146.746094 142.632812 C 145.679688 143.550781 144.453125 144.757812 144.027344 145.277344 C 143.601562 145.796875 142.328125 147.355469 141.167969 148.726562 C 140.035156 150.074219 138.996094 151.398438 138.875 151.65625 C 138.734375 151.894531 138.5 152.105469 138.332031 152.105469 C 138.050781 152.105469 135.332031 149.859375 126.613281 142.441406 C 122.125 138.636719 122.078125 138.589844 121.605469 139.015625 C 120.851562 139.703125 116.40625 146.507812 114.894531 149.269531 C 113.453125 151.894531 111.941406 155.175781 110.902344 157.894531 C 109.035156 162.761719 108.539062 163.613281 107.21875 164.15625 C 105.988281 164.675781 103.839844 164.273438 98.003906 162.523438 C 94.957031 161.578125 91.53125 160.585938 90.371094 160.257812 L 88.316406 159.691406 L 87.984375 160.351562 C 87.488281 161.273438 86.046875 167.980469 85.503906 171.832031 C 84.984375 175.496094 84.605469 180.789062 84.441406 187.121094 L 84.324219 191.324219 L 86.191406 191.324219 C 87.230469 191.324219 90.324219 191.113281 93.066406 190.851562 C 95.828125 190.570312 99.160156 190.332031 100.484375 190.308594 C 102.65625 190.261719 102.941406 190.308594 103.695312 190.828125 C 105.375 191.964844 105.351562 191.867188 106.507812 200.183594 C 106.792969 202.121094 107.171875 204.507812 107.382812 205.429688 C 107.738281 207.085938 107.785156 207.15625 108.445312 207.15625 C 108.824219 207.15625 112.4375 206.351562 116.503906 205.359375 C 124.652344 203.351562 126.332031 203.136719 127.464844 203.988281 C 128.433594 204.722656 129.070312 205.738281 130.039062 208.289062 C 131.246094 211.382812 134.082031 217.03125 135.570312 219.324219 C 139.183594 224.828125 144.902344 231.277344 149.203125 234.726562 C 155.4375 239.710938 164.085938 244.058594 171.597656 246.019531 C 174.71875 246.824219 179.988281 247.792969 181.285156 247.792969 C 182.042969 247.792969 182.515625 247.957031 182.964844 248.359375 C 183.980469 249.210938 183.957031 250.746094 182.84375 259.535156 C 182.300781 263.714844 181.878906 267.378906 181.878906 267.664062 L 181.878906 268.183594 L 186.671875 268.015625 C 196.476562 267.6875 203.847656 266.550781 210.9375 264.308594 C 214.527344 263.171875 219.230469 261.234375 219.371094 260.859375 C 219.515625 260.480469 217.789062 256.984375 215.425781 252.871094 C 212.804688 248.3125 211.148438 244.980469 211.125 244.25 C 211.101562 243.847656 211.246094 243.375 211.433594 243.183594 C 211.621094 242.996094 213.253906 242.050781 215.070312 241.035156 C 219.230469 238.742188 221.78125 237.066406 224.640625 234.773438 C 230.6875 229.882812 235.367188 224.308594 240.023438 216.371094 C 241.390625 214.03125 241.652344 214.007812 245.125 215.730469 C 248.363281 217.386719 253.890625 220.363281 258.945312 223.222656 L 262.914062 225.464844 L 262.914062 226.410156 C 262.914062 227.425781 261.78125 229.929688 260.671875 231.394531 C 260.222656 231.988281 259.867188 232.199219 259.347656 232.199219 C 258.59375 232.199219 256.0625 230.96875 249.753906 227.566406 C 247.488281 226.339844 245.101562 225.0625 244.488281 224.757812 L 243.351562 224.191406 L 242.597656 224.945312 C 241.910156 225.632812 240.46875 227.851562 240.46875 228.207031 C 240.46875 228.371094 245.527344 232.71875 253.347656 239.285156 C 256.039062 241.554688 260.082031 244.957031 262.300781 246.824219 L 266.339844 250.203125 L 267.238281 249.1875 C 268.398438 247.886719 272.25 242.167969 274.539062 238.34375 C 276.972656 234.300781 281.109375 225.960938 281.109375 225.109375 C 281.109375 224.992188 278.792969 224.140625 275.980469 223.222656 C 269.128906 220.953125 264.332031 219.25 263.671875 218.804688 C 262.988281 218.378906 262.230469 216.746094 262.207031 215.753906 C 262.207031 215.378906 262.679688 213.367188 263.269531 211.335938 C 264.546875 206.777344 265.347656 203.066406 265.917969 198.886719 C 266.53125 194.347656 266.53125 180.078125 265.917969 175.730469 C 265.394531 172.117188 264.355469 167.320312 263.269531 163.613281 C 262.113281 159.761719 259.417969 153.050781 258.992188 153.050781 C 258.945312 153.050781 257.90625 153.570312 256.703125 154.207031 C 249.472656 158.082031 244.015625 160.894531 243.234375 161.128906 C 241.984375 161.507812 241.203125 161.179688 240.398438 159.902344 C 235.980469 152.765625 234.515625 150.757812 230.710938 146.601562 C 223.460938 138.6875 212.78125 132.402344 201.960938 129.660156 C 196.691406 128.3125 193.972656 127.960938 188.257812 127.839844 C 182.113281 127.699219 178.851562 128.007812 172.519531 129.304688 C 170.347656 129.753906 168.316406 130.0625 168.007812 129.992188 C 167.324219 129.800781 166.730469 128.738281 166.070312 126.328125 C 165.007812 122.546875 165.195312 122.359375 171.742188 121.058594 C 176.253906 120.140625 180.53125 119.738281 185.847656 119.738281 C 191.089844 119.738281 193.476562 119.925781 198.628906 120.824219 C 200.496094 121.132812 202.125 121.390625 202.21875 121.390625 C 202.574219 121.390625 203.519531 119.21875 205.339844 114.304688 C 208.363281 106.011719 209 104.570312 209.851562 103.742188 C 211.007812 102.65625 212.117188 102.417969 213.867188 102.867188 C 217.433594 103.789062 227.214844 108.160156 228.988281 109.601562 C 230.191406 110.617188 230.144531 111.375 228.65625 113.855469 C 227.3125 116.050781 226.625 116.902344 226.105469 116.902344 C 225.917969 116.902344 223.578125 115.886719 220.929688 114.632812 C 217.90625 113.238281 215.851562 112.414062 215.472656 112.460938 C 214.929688 112.53125 214.71875 112.957031 212.804688 118.203125 C 211.667969 121.320312 210.820312 123.941406 210.890625 124.039062 C 210.984375 124.132812 211.835938 124.535156 212.804688 124.933594 C 215.355469 125.972656 220.859375 129 223.578125 130.867188 C 229.910156 135.164062 235.933594 141.070312 241.675781 148.609375 C 242.855469 150.144531 243.847656 151.398438 243.921875 151.398438 C 244.109375 151.398438 249.332031 148.75 252.046875 147.261719 C 253.535156 146.457031 257.480469 144.355469 260.789062 142.582031 C 269.910156 137.765625 273.144531 136.015625 273.59375 135.683594 C 273.972656 135.449219 273.832031 135.164062 272.199219 132.707031 C 271.230469 131.21875 269.292969 128.527344 267.925781 126.730469 C 264.6875 122.429688 264.332031 121.816406 264.332031 120.257812 C 264.332031 119.121094 264.425781 118.933594 265.347656 117.917969 C 265.890625 117.328125 269.128906 114.609375 272.554688 111.894531 C 275.957031 109.175781 278.746094 106.882812 278.746094 106.835938 C 278.746094 106.601562 274.847656 102.632812 270.5 98.402344 C 264.996094 93.0625 259.820312 88.859375 253.820312 84.839844 C 235.554688 72.625 216.464844 66.339844 193.3125 64.898438 C 188.847656 64.640625 180.859375 64.664062 180.578125 64.972656 C 180.484375 65.042969 180.648438 68.703125 180.957031 73.097656 C 181.5 81.535156 181.453125 83.046875 180.554688 84.414062 C 179.941406 85.359375 179.113281 85.667969 176.066406 86.070312 C 169.589844 86.945312 166.472656 87.464844 163.449219 88.125 C 156.691406 89.613281 155.390625 89.824219 154.988281 89.566406 C 154.515625 89.28125 153.738281 87.25 153.148438 84.839844 C 152.746094 83.210938 152.746094 83.117188 153.148438 82.667969 C 154.09375 81.628906 161.890625 79.691406 169.332031 78.628906 C 171.078125 78.367188 172.589844 78.082031 172.6875 77.988281 C 172.851562 77.800781 172.589844 71.585938 172.238281 67.640625 L 172.070312 65.75 L 171.222656 65.679688 C 169.023438 65.492188 158.015625 67.640625 150.925781 69.648438 C 135.757812 73.949219 121.179688 81.816406 107.570312 93.039062 C 104.121094 95.898438 93.75 106.386719 91.007812 109.8125 C 88.386719 113.074219 84.488281 118.25 82.789062 120.777344 L 81.652344 122.429688 L 82.195312 122.832031 C 82.480469 123.042969 83.804688 123.777344 85.101562 124.460938 C 96.964844 130.675781 96.894531 130.628906 97.128906 131.574219 C 97.269531 132.09375 95.804688 135.234375 94.71875 136.675781 C 94.175781 137.433594 93.820312 137.691406 93.347656 137.691406 C 93.019531 137.691406 89.285156 135.945312 85.054688 133.792969 C 80.828125 131.644531 77.355469 129.921875 77.304688 129.96875 C 77.257812 130.015625 76.386719 131.785156 75.34375 133.9375 C 69.605469 145.867188 65.941406 158.53125 64.359375 172.070312 C 63.105469 182.75 63.296875 196.191406 64.832031 206.683594 C 65.398438 210.582031 66.722656 217.078125 67.027344 217.386719 C 67.195312 217.550781 69.582031 216.984375 74.777344 215.589844 C 84.183594 213.039062 84.230469 213.015625 85.339844 213.320312 C 87.109375 213.816406 87.726562 214.832031 89.472656 220.03125 C 91.082031 224.78125 92.828125 229.128906 94.484375 232.457031 C 95.640625 234.796875 95.851562 235.835938 95.261719 236.5 C 94.789062 237.019531 92.449219 238.246094 90.632812 238.933594 C 89.59375 239.3125 89.472656 239.3125 88.929688 238.957031 C 88.601562 238.742188 88.054688 238.105469 87.703125 237.515625 C 86.78125 235.910156 84.0625 229.71875 82.644531 225.867188 C 81.960938 224.023438 81.277344 222.511719 81.15625 222.511719 C 81.015625 222.511719 80.09375 222.726562 79.125 223.007812 C 74.847656 224.167969 71.351562 225.160156 70.3125 225.488281 L 69.203125 225.84375 L 70.171875 228.609375 C 71.542969 232.554688 73.855469 238.035156 75.652344 241.601562 C 79.386719 249.066406 86.070312 259.605469 87.085938 259.605469 C 87.609375 259.605469 86.6875 260.339844 106.273438 244.25 C 109.980469 241.222656 113.054688 238.695312 113.101562 238.648438 C 113.148438 238.625 112.507812 237.539062 111.660156 236.261719 C 109.273438 232.671875 108.753906 231.441406 109.296875 230.640625 C 109.390625 230.496094 110.265625 229.835938 111.28125 229.199219 C 113.054688 228.015625 114.894531 227.355469 115.558594 227.617188 C 115.746094 227.6875 116.953125 229.292969 118.226562 231.160156 C 124.675781 240.703125 132.308594 248.382812 141.453125 254.597656 C 146.601562 258.09375 151.636719 260.691406 158.488281 263.386719 C 160.328125 264.117188 161.652344 264.78125 161.792969 265.039062 C 162.195312 265.773438 162.078125 266.695312 161.296875 269.03125 C 160.496094 271.394531 160 272.128906 159.125 272.128906 C 157.28125 272.128906 148.375 268.464844 143.507812 265.703125 C 135.6875 261.28125 127.726562 254.976562 120.730469 247.699219 L 118.296875 245.171875 L 117.1875 246.066406 C 109.320312 252.46875 97.058594 262.675781 93.417969 265.820312 L 92.472656 266.621094 L 93.019531 267.308594 C 94.292969 268.960938 99.445312 274.417969 101.757812 276.570312 C 120.070312 293.558594 138.355469 303.242188 160.613281 307.660156 C 169.472656 309.433594 174.386719 309.90625 184.832031 309.976562 L 192.15625 310.046875 L 192.105469 306.621094 C 192.082031 304.730469 191.847656 300.761719 191.585938 297.785156 C 191.164062 292.847656 191.136719 292.328125 191.492188 291.644531 C 192.484375 289.660156 193.453125 289.1875 197.210938 288.738281 C 210.371094 287.25 221.5 283.988281 232.082031 278.53125 C 239.125 274.890625 245.386719 270.851562 245.101562 270.097656 C 245.03125 269.90625 243.730469 268.160156 242.195312 266.199219 C 237.398438 260.054688 234.5625 256.25 234.5625 255.96875 C 234.5625 254.808594 238.699219 251.335938 240.09375 251.335938 C 241.085938 251.335938 241.769531 252.070312 246.636719 258.304688 C 253.582031 267.261719 254.457031 268.441406 255.046875 269.695312 C 255.542969 270.78125 255.589844 271.039062 255.355469 271.9375 C 255 273.308594 252.828125 275.386719 248.90625 278.105469 C 234.800781 287.933594 218.96875 294.171875 202.359375 296.464844 C 200.871094 296.675781 200.234375 296.863281 200.117188 297.125 C 200 297.480469 200.421875 305.203125 200.753906 308.039062 L 200.894531 309.339844 L 201.839844 309.269531 C 203.875 309.101562 211.742188 307.734375 215.496094 306.859375 C 224.617188 304.730469 232.484375 301.875 241.0625 297.527344 C 252.308594 291.832031 262.609375 284.367188 272.011719 275.082031 C 282.832031 264.402344 290.675781 253.699219 296.820312 241.296875 C 300.859375 233.074219 303.269531 226.550781 305.300781 218.257812 C 306.460938 213.511719 307.453125 208.621094 307.308594 208.476562 C 307.261719 208.429688 304.617188 208.003906 301.425781 207.53125 C 290.371094 205.902344 289.851562 205.785156 288.953125 205.125 C 287.511719 204.011719 287.203125 203.28125 287.320312 201.011719 C 287.367188 199.902344 287.558594 196.144531 287.746094 192.648438 C 288.195312 183.550781 287.722656 176.324219 286.164062 167.816406 C 284.910156 160.964844 284.886719 160.824219 285.125 160.375 C 285.550781 159.546875 290.675781 158.082031 291.929688 158.414062 C 292.613281 158.578125 293.226562 160.28125 293.984375 164.179688 C 295.140625 170.132812 295.757812 175.210938 296.015625 181.164062 C 296.253906 186.457031 296.15625 196.617188 295.851562 197.824219 C 295.734375 198.296875 295.921875 198.34375 301.121094 199.074219 C 310.359375 200.398438 314.113281 201.105469 314.679688 201.625 C 315.53125 202.40625 316.074219 203.730469 316.074219 205.074219 C 316.074219 207.414062 314.46875 216.203125 313.097656 221.332031 C 307.214844 243.46875 296.347656 262.25 279.621094 279.191406 C 263.269531 295.753906 244.792969 307.070312 224.355469 313.097656 C 217.695312 315.058594 209.140625 316.828125 202.550781 317.632812 C 198.296875 318.128906 183.316406 318.339844 176.089844 317.988281 C 159.242188 317.183594 140.292969 311.914062 125.316406 303.859375 C 113.359375 297.429688 103.769531 290.179688 93.042969 279.453125 C 77.945312 264.402344 67.902344 248.289062 61.617188 229.128906 C 58.6875 220.21875 56.964844 211.953125 55.804688 201.25 C 55.308594 196.617188 55.097656 183.03125 55.453125 178.023438 C 56.871094 158.507812 61.59375 141.617188 70.03125 126.070312 C 82.339844 103.339844 101.949219 83.683594 124.511719 71.515625 C 138.804688 63.789062 154.871094 58.992188 172.425781 57.152344 C 177.316406 56.632812 182.445312 56.558594 193.335938 56.890625 Z M 190.242188 136.277344 C 191.988281 137.125 194.042969 139.15625 194.871094 140.835938 C 196.949219 145.160156 196.125 150.050781 192.628906 153.757812 C 191.753906 154.679688 191.089844 155.554688 191.164062 155.71875 C 191.328125 156.261719 192.769531 157.042969 195.652344 158.152344 C 202.503906 160.777344 205.457031 163.164062 206.589844 166.941406 C 206.777344 167.558594 207.203125 170.390625 207.535156 173.25 C 208.835938 184.757812 209.804688 188.585938 212.757812 194.207031 C 213.84375 196.261719 216.039062 199.382812 216.488281 199.523438 C 216.632812 199.570312 217.339844 199.097656 218.074219 198.460938 C 218.804688 197.847656 220.484375 196.640625 221.78125 195.8125 C 223.105469 194.964844 224.167969 194.230469 224.167969 194.160156 C 224.167969 194.089844 223.246094 193.804688 222.113281 193.523438 C 220.957031 193.261719 219.867188 192.957031 219.679688 192.882812 C 219.394531 192.765625 219.324219 192.933594 219.394531 193.734375 C 219.492188 195.035156 219.066406 195.648438 218.027344 195.648438 C 217.503906 195.648438 217.105469 195.484375 216.796875 195.128906 C 215.921875 194.042969 216.464844 192.910156 218 192.601562 L 218.757812 192.4375 L 217.503906 191.75 C 213.488281 189.578125 209.898438 183.671875 211.503906 181.898438 C 211.929688 181.425781 213.703125 180.929688 214.976562 180.929688 C 215.378906 180.929688 215.640625 180.835938 215.566406 180.71875 C 215.496094 180.597656 215.308594 178.707031 215.167969 176.511719 C 214.929688 173.039062 214.953125 172.425781 215.261719 171.644531 C 215.617188 170.839844 215.734375 170.769531 216.535156 170.769531 C 217.082031 170.769531 217.859375 171.03125 218.496094 171.382812 C 219.089844 171.738281 221.144531 172.847656 223.082031 173.890625 C 230.5 177.835938 232.722656 180.007812 234.304688 184.78125 C 237.515625 194.46875 234.042969 209.09375 225.964844 219.84375 C 220.128906 227.617188 212 233.332031 202.242188 236.453125 C 198.320312 237.726562 195.910156 238.105469 190.617188 238.269531 C 184.878906 238.4375 181.191406 238.128906 177.363281 237.183594 C 162.574219 233.5 150.667969 223.199219 144.925781 209.117188 C 141.144531 199.902344 140.695312 190.898438 143.128906 174.054688 C 143.839844 169.140625 144.214844 167.839844 144.972656 167.652344 C 146.273438 167.296875 149.15625 169.707031 150.691406 172.375 C 151.140625 173.179688 151.585938 173.839844 151.660156 173.839844 C 151.730469 173.839844 151.964844 173.273438 152.179688 172.566406 C 152.652344 171.054688 153.027344 170.699219 154.070312 170.722656 C 155.0625 170.746094 155.628906 171.433594 156.574219 173.675781 C 157.730469 176.511719 158.085938 178.1875 158.109375 181.046875 C 158.132812 183.976562 157.824219 185.535156 156.761719 187.78125 C 155.910156 189.625 153.761719 191.820312 151.871094 192.859375 C 150.667969 193.523438 150.359375 193.570312 147.691406 193.640625 C 145.703125 193.710938 144.785156 193.828125 144.785156 194.019531 C 144.855469 195.367188 145.46875 199.191406 145.65625 199.382812 C 145.824219 199.546875 146.296875 199.523438 147.167969 199.265625 C 149.15625 198.71875 152.132812 198.578125 154.542969 198.910156 L 156.691406 199.191406 L 157.496094 198.269531 C 158.535156 197.089844 160.589844 193.925781 161.511719 192.128906 C 163.566406 188.042969 165.054688 182.085938 166.164062 173.371094 C 166.660156 169.542969 167.109375 167.273438 167.558594 166.1875 C 168.410156 164.15625 171.363281 161.460938 174.175781 160.136719 C 174.976562 159.785156 177.035156 158.980469 178.78125 158.34375 C 181.191406 157.492188 182.136719 157.042969 182.75 156.429688 L 183.554688 155.625 L 181.6875 153.804688 C 180.386719 152.53125 179.609375 151.539062 179.089844 150.476562 C 178.355469 149.011719 178.332031 148.84375 178.332031 145.960938 L 178.332031 142.9375 L 179.277344 141.070312 C 180.386719 138.828125 182.136719 136.9375 183.8125 136.132812 C 184.902344 135.613281 185.328125 135.566406 187.074219 135.636719 C 188.585938 135.683594 189.367188 135.851562 190.242188 136.277344 Z M 129.308594 157.871094 C 131.480469 158.863281 132.261719 159.523438 132.261719 160.304688 C 132.261719 160.609375 131.648438 162.476562 130.867188 164.460938 C 127.207031 173.984375 126.261719 179.75 126.828125 189.578125 C 126.992188 192.484375 127.0625 194.964844 126.96875 195.058594 C 126.734375 195.269531 122.265625 195.4375 121.25 195.222656 C 120.164062 195.035156 118.867188 193.851562 118.558594 192.789062 C 118.417969 192.316406 118.226562 190.074219 118.15625 187.828125 C 118.085938 185.609375 117.992188 183.765625 117.96875 183.765625 C 117.945312 183.765625 116.832031 183.625 115.464844 183.433594 C 114.117188 183.246094 110.453125 182.796875 107.335938 182.464844 C 104.121094 182.109375 101.40625 181.6875 101.027344 181.496094 C 99.988281 180.953125 99.847656 180.480469 100.128906 178.164062 C 100.460938 175.449219 100.742188 174.480469 101.3125 173.960938 C 101.855469 173.464844 101.546875 173.464844 112.0625 174.667969 C 117.070312 175.257812 118.9375 175.402344 119.078125 175.1875 C 119.171875 175.046875 119.3125 174.386719 119.386719 173.722656 C 119.761719 170.9375 122.410156 162.714844 124.0625 159.21875 C 125.363281 156.453125 125.929688 156.3125 129.308594 157.871094 Z M 214.457031 165.476562 C 214.742188 165.832031 214.953125 166.234375 214.953125 166.398438 C 214.953125 166.566406 214.742188 166.964844 214.457031 167.320312 C 213.488281 168.550781 211.363281 167.910156 211.363281 166.398438 C 211.363281 164.886719 213.488281 164.25 214.457031 165.476562 Z M 154.117188 165.925781 C 154.800781 166.589844 154.847656 167.132812 154.328125 167.886719 C 153.972656 168.40625 152.769531 168.597656 152.203125 168.21875 C 151.753906 167.910156 151.398438 167.039062 151.5625 166.589844 C 152.035156 165.265625 153.171875 164.957031 154.117188 165.925781 Z M 249.730469 170.652344 C 251.054688 170.863281 252.140625 172.210938 252.613281 174.242188 C 253.300781 177.265625 253.511719 180.292969 253.511719 187.074219 C 253.511719 193.875 253.300781 197.136719 252.636719 200.46875 C 251.976562 203.707031 251.433594 203.988281 247.652344 203.136719 C 246.425781 202.855469 245.433594 202.617188 245.433594 202.59375 C 245.433594 202.570312 245.691406 201.105469 246.023438 199.359375 C 247.441406 191.726562 247.347656 182.960938 245.785156 175.28125 C 245.3125 173.039062 245.007812 171.125 245.078125 171.054688 C 245.289062 170.839844 247.890625 170.34375 248.386719 170.441406 C 248.644531 170.464844 249.234375 170.558594 249.730469 170.652344 Z M 161.652344 171.621094 C 162.550781 172.496094 161.746094 174.3125 160.496094 174.3125 C 160.164062 174.3125 159.691406 174.101562 159.433594 173.839844 C 158.464844 172.875 159.195312 171.242188 160.589844 171.242188 C 160.96875 171.242188 161.464844 171.410156 161.652344 171.621094 Z M 213.347656 175.1875 C 214.269531 176.015625 213.488281 177.859375 212.214844 177.859375 C 210.914062 177.859375 209.921875 176.085938 210.703125 175.140625 C 211.101562 174.667969 212.78125 174.691406 213.347656 175.1875 Z M 162.125 180.742188 C 162.90625 181.09375 163.519531 182.015625 163.332031 182.582031 C 163.257812 182.84375 162.859375 183.269531 162.480469 183.550781 C 161.867188 183.976562 161.675781 184.023438 161.0625 183.765625 C 160.683594 183.597656 160.1875 183.125 159.976562 182.75 C 159.621094 182.039062 159.621094 182.015625 160.472656 181.238281 C 161.441406 180.339844 161.34375 180.363281 162.125 180.742188 Z M 159.054688 190.640625 C 160.140625 191.492188 159.738281 192.789062 158.296875 193.214844 C 157.589844 193.40625 157.421875 193.355469 156.902344 192.835938 C 156.429688 192.363281 156.335938 192.082031 156.453125 191.492188 C 156.714844 190.144531 157.917969 189.742188 159.054688 190.640625 Z M 149.507812 194.871094 C 150.714844 195.507812 150.570312 197.160156 149.273438 197.703125 C 148.515625 198.011719 147.785156 197.75 147.382812 196.996094 C 147.003906 196.308594 147.097656 195.839844 147.738281 195.222656 C 148.351562 194.585938 148.824219 194.492188 149.507812 194.871094 Z M 203.472656 247.25 C 204.015625 248.996094 204.394531 251.242188 204.226562 251.902344 C 204.015625 252.753906 203.140625 253.132812 199.808594 253.792969 C 194.019531 254.953125 191.515625 254.878906 190.242188 253.605469 C 189.414062 252.777344 188.800781 251.03125 188.679688 249.210938 C 188.609375 248.148438 188.609375 248.148438 189.4375 248.101562 C 192.769531 247.863281 199.761719 246.800781 200.824219 246.398438 C 201.109375 246.257812 201.769531 246.164062 202.242188 246.164062 C 203.070312 246.136719 203.117188 246.1875 203.472656 247.25 Z M 203.472656 247.25 " fill-opacity="1" fill-rule="nonzero"/></g></g><g clip-path="url(#8fd8e9387b)"><g clip-path="url(#a5280f54da)"><path fill="#ffffff" d="M 185.066406 139.230469 C 184.074219 139.726562 182.917969 141.09375 182.183594 142.632812 C 181.664062 143.742188 181.570312 144.285156 181.570312 145.960938 C 181.570312 148.300781 181.949219 149.339844 183.367188 150.757812 C 187.40625 154.796875 192.675781 151.773438 192.578125 145.464844 C 192.53125 143.316406 192.179688 142.347656 190.808594 140.859375 C 189.152344 139.0625 186.769531 138.378906 185.066406 139.230469 Z M 185.066406 139.230469 " fill-opacity="1" fill-rule="nonzero"/></g></g><g clip-path="url(#c68ac4457a)"><g clip-path="url(#880b3ede9b)"><path fill="#ffffff" d="M 186.460938 156.878906 C 186.246094 157.304688 185.65625 158.175781 185.136719 158.792969 C 184.617188 159.429688 184.238281 159.996094 184.335938 160.066406 C 184.640625 160.375 187.050781 160.585938 188.539062 160.445312 C 190.785156 160.257812 190.949219 160.066406 189.769531 159.003906 C 189.226562 158.53125 188.515625 157.679688 188.160156 157.113281 C 187.429688 155.933594 186.980469 155.863281 186.460938 156.878906 Z M 186.460938 156.878906 " fill-opacity="1" fill-rule="nonzero"/></g></g><g clip-path="url(#7795b37849)"><g clip-path="url(#522b3f9855)"><path fill="#ffffff" d="M 178.570312 161.933594 C 174.765625 163.234375 171.433594 165.574219 170.65625 167.535156 C 170.441406 168.078125 169.898438 171.054688 169.449219 174.148438 C 168.195312 183.078125 167.132812 187.519531 165.242188 192.035156 C 164.796875 193.074219 164.511719 193.925781 164.628906 193.925781 C 165.007812 193.925781 166.308594 192.222656 167.015625 190.828125 C 168.457031 187.921875 170.253906 182.371094 170.867188 178.804688 C 171.054688 177.691406 171.269531 175.402344 171.339844 173.722656 C 171.574219 169.1875 171.648438 168.691406 172.332031 168.265625 C 172.804688 167.933594 173.015625 167.933594 173.585938 168.171875 C 175.097656 168.785156 175.121094 168.925781 174.8125 173.203125 C 174.386719 179.464844 173.609375 183.03125 171.433594 189.011719 C 170.796875 190.828125 170.300781 192.363281 170.394531 192.4375 C 170.464844 192.507812 170.960938 192.363281 171.527344 192.128906 C 172.308594 191.820312 173.089844 191.726562 174.835938 191.75 L 177.128906 191.773438 L 178.546875 190.710938 C 180.648438 189.128906 182.703125 186.246094 183.53125 183.671875 C 183.695312 183.152344 184.003906 181.875 184.214844 180.835938 C 184.546875 179.15625 184.664062 178.898438 185.207031 178.707031 C 186.011719 178.425781 187.003906 178.683594 187.3125 179.277344 C 187.6875 180.007812 187.167969 183.550781 186.367188 185.632812 C 185.539062 187.78125 184.285156 189.742188 182.46875 191.726562 L 181.144531 193.191406 L 181.996094 193.355469 C 183.554688 193.640625 186.152344 193.308594 187.855469 192.625 C 189.152344 192.105469 189.933594 191.539062 191.800781 189.765625 C 194.304688 187.378906 194.917969 187.121094 195.816406 188.019531 C 196.078125 188.277344 196.289062 188.726562 196.289062 189.011719 C 196.289062 189.601562 195.15625 191.46875 194.28125 192.269531 C 193.949219 192.578125 193.691406 192.910156 193.691406 193.027344 C 193.691406 193.429688 196.808594 193.191406 199.148438 192.625 C 200.472656 192.316406 201.605469 192.011719 201.652344 191.941406 C 201.722656 191.867188 201.34375 190.523438 200.800781 188.914062 C 198.792969 182.820312 197.234375 174.644531 197.234375 170.273438 C 197.234375 169.09375 197.304688 168.855469 197.871094 168.429688 C 198.582031 167.863281 199.171875 167.933594 200.023438 168.714844 C 200.421875 169.09375 200.542969 169.445312 200.542969 170.441406 C 200.542969 176.722656 204.464844 191.65625 206.730469 194.089844 C 207.347656 194.75 208.457031 195.460938 209.238281 195.695312 L 209.78125 195.863281 L 209.164062 194.609375 C 206.683594 189.742188 205.386719 184.214844 204.203125 173.699219 C 203.707031 169.140625 203.519531 168.101562 203 167.0625 C 202.21875 165.429688 200.777344 164.203125 197.941406 162.761719 L 195.628906 161.554688 L 193.785156 162.40625 C 189.4375 164.390625 185.351562 164.367188 181.332031 162.359375 C 180.4375 161.910156 179.703125 161.554688 179.679688 161.554688 C 179.65625 161.578125 179.160156 161.746094 178.570312 161.933594 Z M 178.570312 161.933594 " fill-opacity="1" fill-rule="nonzero"/></g></g><g clip-path="url(#7f9a989991)"><g clip-path="url(#7ff655aff3)"><path fill="#ffffff" d="M 146.578125 173.417969 C 146.507812 173.839844 146.226562 175.851562 145.964844 177.859375 C 145.703125 179.867188 145.445312 181.945312 145.375 182.464844 L 145.230469 183.410156 L 146.4375 181.875 C 148.46875 179.253906 149.035156 178.308594 149.035156 177.457031 C 149.035156 176.558594 147.691406 173.441406 147.074219 172.945312 C 146.746094 172.660156 146.695312 172.730469 146.578125 173.417969 Z M 146.578125 173.417969 " fill-opacity="1" fill-rule="nonzero"/></g></g><g clip-path="url(#4ac3149500)"><g clip-path="url(#bc94e0db0e)"><path fill="#ffffff" d="M 218.496094 176.628906 C 218.496094 177.292969 218.640625 178.589844 218.828125 179.558594 C 219.75 184.355469 221.804688 187.097656 225.515625 188.488281 C 226.933594 189.011719 231.65625 189.8125 231.917969 189.578125 C 232.152344 189.316406 231.492188 186.578125 230.761719 184.78125 C 229.910156 182.796875 228.679688 181.308594 226.671875 179.890625 C 225.136719 178.804688 219.914062 175.898438 219.042969 175.613281 C 218.523438 175.472656 218.496094 175.519531 218.496094 176.628906 Z M 218.496094 176.628906 " fill-opacity="1" fill-rule="nonzero"/></g></g><g clip-path="url(#53c8f64f52)"><g clip-path="url(#3e7f1ec26f)"><path fill="#ffffff" d="M 152.628906 178.96875 C 151.941406 179.984375 150.359375 182.207031 149.082031 183.929688 C 146.414062 187.570312 145.351562 189.410156 145.5625 190.003906 C 145.703125 190.378906 145.988281 190.425781 147.570312 190.332031 C 150.644531 190.191406 152.582031 188.820312 154.019531 185.796875 C 154.660156 184.449219 154.707031 184.167969 154.707031 181.355469 C 154.707031 178.542969 154.492188 177.148438 154.070312 177.148438 C 153.949219 177.148438 153.3125 177.976562 152.628906 178.96875 Z M 152.628906 178.96875 " fill-opacity="1" fill-rule="nonzero"/></g></g><g clip-path="url(#900a0265ea)"><g clip-path="url(#4716f25093)"><path fill="#ffffff" d="M 215.097656 184.6875 C 214.929688 184.921875 216.039062 186.480469 216.984375 187.332031 C 217.671875 187.96875 219.539062 189.199219 219.820312 189.199219 C 219.890625 189.199219 219.539062 188.703125 219.019531 188.066406 C 218.523438 187.449219 217.789062 186.480469 217.433594 185.890625 C 217.082031 185.300781 216.65625 184.757812 216.511719 184.664062 C 216.160156 184.402344 215.238281 184.425781 215.097656 184.6875 Z M 215.097656 184.6875 " fill-opacity="1" fill-rule="nonzero"/></g></g><g clip-path="url(#af8b0933fa)"><g clip-path="url(#8c9167c788)"><path fill="#ffffff" d="M 175.6875 195.554688 C 176.984375 196.664062 179.230469 197.703125 180.316406 197.703125 C 181.378906 197.679688 182.726562 197.113281 182.113281 196.925781 C 181.925781 196.878906 180.222656 196.382812 178.332031 195.863281 L 174.90625 194.894531 Z M 175.6875 195.554688 " fill-opacity="1" fill-rule="nonzero"/></g></g><g clip-path="url(#e90126c1f3)"><g clip-path="url(#28fa1d429a)"><path fill="#ffffff" d="M 164.0625 198.199219 C 158.085938 202.097656 155.414062 205.148438 155.039062 208.453125 C 154.730469 211.03125 156.453125 213.605469 158.984375 214.335938 C 162.171875 215.304688 166.332031 214.574219 171.125 212.234375 C 175.828125 209.941406 183.53125 205.171875 183.53125 204.53125 C 183.53125 204.082031 182.445312 202.570312 181.570312 201.746094 L 180.933594 201.175781 L 177.8125 201.460938 C 171.339844 202.050781 167.984375 203.351562 163.730469 206.894531 C 161.320312 208.878906 161.015625 209.023438 160.1875 208.40625 C 159.785156 208.101562 159.527344 207.675781 159.480469 207.203125 C 159.265625 205.097656 166.210938 200.351562 171.457031 198.980469 C 172.332031 198.769531 173.113281 198.507812 173.207031 198.414062 C 173.609375 198.058594 169.378906 195.578125 168.410156 195.578125 C 168.222656 195.578125 166.261719 196.757812 164.0625 198.199219 Z M 164.0625 198.199219 " fill-opacity="1" fill-rule="nonzero"/></g></g><g clip-path="url(#b11284ca4b)"><g clip-path="url(#43ece8101a)"><path fill="#ffffff" d="M 198.296875 196.214844 L 196.171875 196.832031 L 192.484375 196.40625 C 190.476562 196.167969 188.492188 196.050781 188.113281 196.144531 C 187.289062 196.359375 185.019531 198.625 184.804688 199.453125 C 184.6875 199.925781 184.855469 200.328125 185.515625 201.199219 C 186.816406 202.972656 186.816406 202.972656 188.136719 202.121094 C 188.800781 201.722656 191.917969 200.066406 195.085938 198.484375 C 198.273438 196.878906 200.777344 195.578125 200.636719 195.601562 C 200.519531 195.601562 199.480469 195.886719 198.296875 196.214844 Z M 198.296875 196.214844 " fill-opacity="1" fill-rule="nonzero"/></g></g><g clip-path="url(#429056d235)"><g clip-path="url(#36c529893e)"><path fill="#ffffff" d="M 229.199219 196.285156 C 226.105469 197.089844 222.421875 199.074219 220.269531 201.035156 L 219.207031 202.027344 L 220.625 203.539062 C 221.402344 204.367188 222.207031 205.3125 222.421875 205.621094 L 222.796875 206.210938 L 223.859375 205.476562 C 225.207031 204.554688 226.957031 203.917969 228.847656 203.707031 C 229.886719 203.585938 230.382812 203.421875 230.546875 203.136719 C 230.808594 202.664062 231.964844 197.066406 231.964844 196.308594 C 231.964844 195.695312 231.492188 195.671875 229.199219 196.285156 Z M 229.199219 196.285156 " fill-opacity="1" fill-rule="nonzero"/></g></g><g clip-path="url(#0bb2a746f6)"><g clip-path="url(#b5842d88df)"><path fill="#ffffff" d="M 201.839844 198.957031 C 200.164062 199.640625 198.792969 200.28125 198.816406 200.421875 C 198.863281 200.679688 198.886719 200.679688 202.550781 201.554688 C 207.511719 202.761719 211.363281 204.628906 214.078125 207.132812 C 215.542969 208.5 216.253906 209.589844 215.992188 210.0625 C 215.617188 210.722656 214.835938 211.40625 214.480469 211.40625 C 214.269531 211.40625 213.230469 210.722656 212.167969 209.894531 C 207.699219 206.375 204.34375 205.027344 196.691406 203.753906 L 192.980469 203.113281 L 191.5625 203.964844 C 190.785156 204.4375 190.097656 204.910156 190.027344 205.027344 C 189.484375 205.925781 201.34375 212.28125 208.21875 214.785156 C 213.132812 216.558594 213.84375 216.722656 216.160156 216.699219 C 217.929688 216.675781 218.355469 216.582031 219.441406 215.992188 C 221.027344 215.140625 221.425781 214.265625 221.261719 212.1875 C 220.90625 207.816406 216.632812 203.46875 208.316406 199.050781 C 206.921875 198.296875 205.597656 197.703125 205.363281 197.703125 C 205.101562 197.726562 203.542969 198.269531 201.839844 198.957031 Z M 201.839844 198.957031 " fill-opacity="1" fill-rule="nonzero"/></g></g><g clip-path="url(#9f809a0c0f)"><g clip-path="url(#fcc446d1a6)"><path fill="#ffffff" d="M 148.917969 202.359375 C 147.761719 202.476562 146.4375 202.902344 146.4375 203.136719 C 146.4375 203.609375 147.714844 207.367188 148.351562 208.761719 L 149.011719 210.25 L 150.265625 210.179688 L 151.492188 210.109375 L 151.777344 208.21875 C 152.109375 206.066406 152.507812 204.792969 153.40625 203.257812 L 154.046875 202.195312 L 151.824219 202.21875 C 150.621094 202.242188 149.320312 202.3125 148.917969 202.359375 Z M 148.917969 202.359375 " fill-opacity="1" fill-rule="nonzero"/></g></g><g clip-path="url(#f23148aa28)"><g clip-path="url(#1cb2e43bc8)"><path fill="#ffffff" d="M 227.570312 207.34375 C 226.910156 207.582031 225.917969 208.125 225.375 208.574219 L 224.355469 209.351562 L 224.546875 210.910156 C 224.828125 213.132812 224.710938 214.597656 224.167969 215.847656 C 223.128906 218.1875 224.355469 216.792969 226.175781 213.535156 C 227.710938 210.816406 229.367188 207.34375 229.222656 207.109375 C 229.058594 206.847656 228.964844 206.871094 227.570312 207.34375 Z M 227.570312 207.34375 " fill-opacity="1" fill-rule="nonzero"/></g></g><g clip-path="url(#655345777b)"><g clip-path="url(#9dcf5ac2be)"><path fill="#ffffff" d="M 182.46875 209.542969 C 180.386719 210.839844 178.59375 212 178.476562 212.117188 C 178.355469 212.234375 178.664062 212.945312 179.207031 213.816406 C 179.726562 214.644531 180.4375 215.875 180.789062 216.535156 C 181.121094 217.21875 181.476562 217.785156 181.546875 217.785156 C 181.617188 217.785156 182.492188 217.125 183.507812 216.296875 C 186.082031 214.195312 187.097656 213.535156 189.863281 212.140625 L 192.273438 210.933594 L 189.484375 209.046875 C 187.925781 208.003906 186.578125 207.15625 186.460938 207.179688 C 186.34375 207.179688 184.546875 208.265625 182.46875 209.542969 Z M 182.46875 209.542969 " fill-opacity="1" fill-rule="nonzero"/></g></g><g clip-path="url(#9fdc9ee392)"><g clip-path="url(#38146da69c)"><path fill="#ffffff" d="M 150.878906 213.414062 C 150.691406 213.628906 151.492188 214.953125 153.265625 217.289062 C 155.109375 219.746094 159.433594 224.191406 161.675781 225.914062 C 164.890625 228.394531 167.960938 230.238281 168.410156 229.953125 C 168.550781 229.882812 168.644531 228.703125 168.644531 227.332031 C 168.644531 223.90625 167.9375 221.851562 165.882812 219.25 C 165.078125 218.257812 165.054688 218.257812 163.496094 218.257812 C 158.816406 218.210938 155.933594 217.195312 153.808594 214.808594 C 152.957031 213.863281 152.4375 213.488281 151.847656 213.390625 C 151.398438 213.320312 150.972656 213.320312 150.878906 213.414062 Z M 150.878906 213.414062 " fill-opacity="1" fill-rule="nonzero"/></g></g><g clip-path="url(#ec66e1a00b)"><g clip-path="url(#f1cd3d8ad8)"><path fill="#ffffff" d="M 193.808594 214.101562 C 192.652344 214.527344 191.210938 215.117188 190.617188 215.425781 C 186.625 217.480469 182.679688 221.332031 180.269531 225.605469 C 179.46875 227.023438 177.980469 231.253906 177.71875 232.8125 L 177.578125 233.804688 L 179.183594 234.160156 C 181.121094 234.585938 183.507812 235.035156 183.910156 235.035156 C 184.074219 235.035156 184.570312 234.253906 185.042969 233.308594 C 187.5 228.207031 190.902344 224.828125 195.886719 222.535156 C 199.03125 221.09375 200.449219 220.789062 204.085938 220.8125 C 206.777344 220.835938 207.628906 220.953125 209.402344 221.449219 C 211.71875 222.109375 213.914062 223.078125 215.757812 224.191406 L 216.914062 224.921875 L 218.898438 222.9375 C 222.136719 219.746094 222.113281 219.417969 218.546875 219.867188 C 213.914062 220.457031 208.714844 219.0625 199.644531 214.855469 C 197.800781 214.007812 196.195312 213.296875 196.101562 213.296875 C 196.003906 213.320312 194.988281 213.675781 193.808594 214.101562 Z M 193.808594 214.101562 " fill-opacity="1" fill-rule="nonzero"/></g></g><g clip-path="url(#c9629a266f)"><g clip-path="url(#fb90d9e643)"><path fill="#ffffff" d="M 171.789062 215.589844 L 168.644531 217.148438 L 169.140625 217.882812 C 171.648438 221.613281 172.6875 226.363281 171.859375 230.261719 L 171.550781 231.773438 L 172.640625 232.246094 C 173.347656 232.554688 173.84375 232.625 174.054688 232.507812 C 174.246094 232.386719 174.601562 231.539062 174.8125 230.640625 C 175.378906 228.300781 176.230469 226.175781 177.71875 223.292969 C 179.019531 220.8125 179.019531 220.789062 178.664062 219.9375 C 177.71875 217.667969 175.472656 213.984375 175.074219 214.03125 C 174.976562 214.03125 173.488281 214.738281 171.789062 215.589844 Z M 171.789062 215.589844 " fill-opacity="1" fill-rule="nonzero"/></g></g><g clip-path="url(#077dc1b6fa)"><g clip-path="url(#f69b16fd75)"><path fill="#ffffff" d="M 200.304688 224.496094 C 197.210938 225.230469 194.304688 226.882812 191.847656 229.316406 C 190.429688 230.710938 188.019531 234.113281 188.019531 234.703125 C 188.019531 235.246094 189.175781 235.363281 192.105469 235.058594 C 196.335938 234.609375 199.832031 233.875 203.257812 232.695312 C 206.355469 231.609375 213.773438 227.640625 213.773438 227.046875 C 213.773438 226.71875 211.71875 225.703125 209.636719 224.992188 C 208.03125 224.425781 207.300781 224.332031 204.675781 224.261719 C 202.714844 224.214844 201.132812 224.308594 200.304688 224.496094 Z M 200.304688 224.496094 " fill-opacity="1" fill-rule="nonzero"/></g></g><g clip-path="url(#cfea83a7f7)"><g clip-path="url(#d21d4f7995)"><path fill="#ffffff" d="M 135.480469 133.796875 L 239.519531 133.796875 L 239.519531 241.085938 L 135.480469 241.085938 Z M 135.480469 133.796875 " fill-opacity="1" fill-rule="nonzero"/></g></g></svg>